<svg width="218" height="218" viewBox="0 0 218 218" fill="none" xmlns="http://www.w3.org/2000/svg">
<path d="M89.2296 108.518C89.2296 113.07 89.2209 117.624 89.2318 122.176C89.2383 124.949 89.4651 125.165 92.323 125.173C95.5364 125.184 98.7519 125.2 101.965 125.169C111.49 125.08 118.459 118.154 118.487 108.778C118.516 99.3099 111.529 92.2968 101.952 92.2075C98.6189 92.1769 95.2857 92.1857 91.9546 92.2075C89.5697 92.2227 89.2514 92.5257 89.2405 94.8605C89.2187 99.4124 89.234 103.966 89.2318 108.518H89.2296ZM139.803 125.867C140.516 125.867 141.231 125.899 141.944 125.862C148.026 125.546 153.766 121.16 155.229 115.695C155.484 114.742 155.907 113.672 154.436 113.229C152.683 112.702 151.573 113.07 151.183 114.546C149.343 121.498 139.919 124.537 133.394 120.364C127.316 116.477 125.559 107.058 129.66 100.76C132.594 96.2514 137.488 94.2523 142.777 95.4099C147.067 96.3495 150.091 98.717 151.309 103.036C151.8 104.775 153.025 104.546 154.296 104.241C155.672 103.912 155.726 102.883 155.321 101.876C154.708 100.354 154.165 98.7082 153.167 97.4504C148.678 91.7976 142.539 90.4395 135.849 91.9175C127.846 93.6833 123.076 100.566 123.161 109.353C123.253 118.673 130.501 125.875 139.806 125.864L139.803 125.867Z" fill="white"/>
<path d="M54.936 92.1879C59.1522 92.1922 63.3726 92.1028 67.5866 92.2227C74.2007 92.4102 79.5439 95.0284 82.4193 101.169C85.3209 107.367 84.8478 113.515 80.66 119.061C77.5797 123.142 73.1696 124.975 68.1207 125.141C63.7302 125.285 59.3309 125.182 54.936 125.187V92.1879ZM59.211 108.693C59.211 112.353 59.2437 116.013 59.1958 119.673C59.174 121.334 59.9064 122.049 61.5567 121.997C63.1001 121.949 64.6501 122.045 66.1892 121.962C69.6881 121.773 73.0213 121.095 75.7071 118.581C79.0207 115.479 79.8098 111.579 79.6049 107.265C79.3193 101.27 75.0051 96.4432 69.0123 95.7652C66.6012 95.4927 64.1574 95.4404 61.7246 95.4077C59.5947 95.3772 59.2306 95.7783 59.2132 97.8907C59.1849 101.492 59.2045 105.093 59.2088 108.695L59.211 108.693Z" fill="white"/>
<path d="M89.2317 108.518C89.2317 103.966 89.2186 99.4123 89.2382 94.8605C89.2491 92.5279 89.5674 92.2227 91.9523 92.2074C95.2855 92.1878 98.6187 92.1769 101.95 92.2074C111.529 92.299 118.516 99.3121 118.485 108.778C118.457 118.156 111.487 125.08 101.963 125.169C98.7495 125.2 95.5362 125.184 92.3207 125.173C89.4627 125.165 89.236 124.949 89.2295 122.176C89.2186 117.624 89.2273 113.07 89.2295 108.518H89.2317ZM98.1827 121.943C99.1332 121.943 100.09 122.006 101.036 121.932C109.144 121.3 113.253 117.382 114.038 109.575C114.755 102.44 109.961 96.4781 102.798 95.702C100.677 95.4731 98.5294 95.4208 96.3908 95.3946C93.7966 95.3641 93.5045 95.6758 93.5001 98.2286C93.4848 104.612 93.4936 110.995 93.4936 117.378C93.4936 120.457 95.0566 121.978 98.1827 121.94V121.943Z" fill="white"/>
<path d="M139.803 125.867C130.501 125.88 123.251 118.675 123.159 109.355C123.074 100.568 127.844 93.6855 135.847 91.9197C142.537 90.4438 148.678 91.802 153.165 97.4525C154.163 98.7104 154.706 100.356 155.318 101.878C155.724 102.885 155.669 103.914 154.294 104.243C153.023 104.546 151.8 104.775 151.307 103.038C150.089 98.7191 147.065 96.3516 142.775 95.412C137.486 94.2523 132.594 96.2535 129.658 100.762C125.557 107.058 127.314 116.48 133.392 120.366C139.917 124.539 149.341 121.5 151.181 114.548C151.571 113.072 152.681 112.702 154.433 113.231C155.903 113.674 155.482 114.744 155.227 115.697C153.764 121.162 148.024 125.546 141.942 125.864C141.231 125.902 140.514 125.869 139.801 125.869L139.803 125.867Z" fill="white"/>
<path d="M98.1829 121.943C95.0568 121.98 93.4937 120.46 93.4937 117.38C93.4937 110.997 93.485 104.614 93.5002 98.2308C93.5068 95.678 93.7967 95.3663 96.3909 95.3968C98.5273 95.423 100.675 95.4731 102.798 95.7042C109.961 96.4781 114.755 102.44 114.038 109.578C113.253 117.384 109.144 121.302 101.036 121.934C100.09 122.008 99.1355 121.945 98.1829 121.945V121.943Z" fill="black"/>
</svg>
