<svg width="174" height="174" viewBox="0 0 174 174" fill="none" xmlns="http://www.w3.org/2000/svg">
<path d="M91.9607 41.8052C96.7787 42.9745 101.47 44.37 105.651 47.2445C117.295 55.252 122.256 69.9376 117.72 83.3791C113.121 97.005 100.314 105.4 85.3469 104.598C72.1577 103.892 60.1378 93.4832 57.1502 80.1809C53.2387 62.7688 64.7488 45.414 82.2775 42.3011C82.683 42.2298 83.1301 42.2681 83.3494 41.8052H91.9624H91.9607Z" fill="white"/>
<path d="M121.851 118.287C120.168 118.259 118.477 118.123 116.803 118.235C115.193 118.341 114.656 117.694 114.866 116.192C114.901 115.945 114.866 115.687 114.873 115.435C114.932 113.342 114.238 110.699 115.256 109.305C116.38 107.765 119.195 109.049 121.245 108.708C122.599 111.865 119.648 110.925 118.433 111.644C118.558 112.07 118.934 111.959 119.213 112.016C120.084 112.193 121.377 111.962 121.483 113.135C121.616 114.586 120.269 114.718 119.178 114.918C118.771 114.993 118.344 115.031 117.953 115.602C119.108 116.507 120.831 115.661 121.852 116.77V118.289L121.851 118.287Z" fill="white"/>
<path d="M121.851 116.766C120.542 116.328 119.194 116.611 117.866 116.568C116.98 116.54 116.733 116.145 116.719 115.327C116.705 114.494 116.977 114.228 117.84 114.102C118.952 113.94 120.987 114.904 120.982 113.33C120.977 111.845 118.939 112.837 117.829 112.613C117.159 112.477 116.768 112.347 116.737 111.584C116.698 110.674 117.144 110.424 117.953 110.455C118.705 110.485 119.46 110.44 120.213 110.455C121.61 110.483 121.781 109.808 121.245 108.707C121.447 108.693 121.65 108.677 121.852 108.663V116.766H121.851Z" fill="black"/>
<path d="M69.325 129.157C70.8631 126.522 72.3978 123.923 73.8977 121.304C74.3205 120.566 74.8634 120.241 75.7317 120.272C77.2472 120.328 78.768 120.239 80.2818 120.309C80.9116 120.338 82.0252 119.837 81.9469 121.134C81.8721 122.355 80.802 121.746 80.1617 121.85C79.5858 121.944 78.9837 121.887 78.3939 121.87C77.7066 121.849 77.3029 122.037 77.2959 122.847C77.289 123.608 77.5987 123.799 78.3086 123.93C79.3404 124.119 81.2144 123.211 81.2301 124.674C81.2457 126.192 79.3787 125.296 78.3643 125.433C77.4334 125.56 77.2942 125.983 77.2994 126.756C77.3046 127.478 77.543 127.859 78.3138 127.843C79.3248 127.824 80.3374 127.833 81.3484 127.855C81.7608 127.864 82.2027 127.89 82.248 128.476C82.3002 129.129 81.9504 129.392 81.3588 129.395C79.758 129.406 78.1555 129.393 76.5529 129.404C75.9613 129.407 75.7804 129.136 75.5629 128.57C74.9922 127.074 72.9024 126.754 72.0185 128.076C71.3312 129.105 70.7274 129.774 69.3232 129.158L69.325 129.157Z" fill="white"/>
<path d="M63.8911 126.75C64.4497 124.661 64.8725 123.303 65.1631 121.918C65.3997 120.787 65.7755 120.135 67.1414 120.257C68.6239 120.389 68.0758 121.412 68.0984 122.105C68.1646 124.121 68.1263 126.14 68.1158 128.158C68.1124 128.739 68.1907 129.406 67.2859 129.386C66.3654 129.367 66.529 128.671 66.5237 128.118C66.5063 126.719 66.5185 125.32 66.5185 123.737C65.6329 124.918 65.612 126.207 65.2135 127.358C64.9351 128.165 65.1839 129.43 63.8285 129.366C62.5357 129.305 62.828 128.04 62.5304 127.25C62.125 126.171 62.1685 124.935 61.3055 123.839C61.3055 125.329 61.3003 126.674 61.3072 128.019C61.3107 128.694 61.4482 129.421 60.3798 129.39C59.4402 129.362 59.6246 128.675 59.6212 128.134C59.6055 125.948 59.6281 123.761 59.609 121.576C59.602 120.82 59.6925 120.253 60.6634 120.283C61.4308 120.307 62.1911 120.201 62.4434 121.215C62.8471 122.841 63.2891 124.457 63.8929 126.75H63.8911Z" fill="white"/>
<path d="M105.641 113.486C105.641 113.15 105.533 112.768 105.658 112.489C106.194 111.297 104.382 109.249 106.815 108.816C110.26 108.204 112.715 109.512 113.309 112.032C113.97 114.833 112.987 117.112 110.789 117.89C109.401 118.383 107.965 118.122 106.549 118.179C105.696 118.214 105.639 117.634 105.639 117.008C105.639 115.834 105.639 114.661 105.639 113.486H105.641Z" fill="white"/>
<path d="M88.9228 113.408C88.9211 112.989 88.8567 112.557 88.9315 112.15C89.1351 111.052 88.2407 109.338 89.4587 108.955C91.0578 108.454 93.0048 108.407 94.5795 109.432C96.0029 110.359 96.3456 112.117 95.3608 113.166C94.0175 114.598 94.5082 115.496 95.3243 116.723C95.5661 117.086 96.203 117.732 95.4078 118.115C94.9258 118.346 94.2263 118.325 93.8487 117.692C93.4642 117.045 93.0797 116.397 92.7299 115.731C92.4515 115.202 92.2166 114.661 91.4649 114.753C90.5532 114.864 90.8368 115.578 90.7881 116.11C90.7481 116.526 90.7776 116.949 90.7481 117.368C90.7028 118.009 90.2852 118.163 89.7128 118.179C88.9663 118.2 88.9385 117.697 88.9315 117.187C88.9176 115.927 88.9263 114.668 88.9245 113.408H88.9228Z" fill="white"/>
<path d="M90.948 129.174C88.8408 129.971 88.5938 128.417 87.9813 127.41C87.5985 126.78 87.3949 125.859 86.4257 126.053C85.4531 126.246 86.0046 127.149 85.862 127.728C85.7054 128.365 86.2656 129.372 84.9711 129.397C83.7026 129.421 84.0384 128.452 84.021 127.775C83.9793 126.263 83.9062 124.741 84.0419 123.239C84.1289 122.261 83.2868 120.643 84.7049 120.418C86.5162 120.13 88.632 119.672 90.1719 121.349C90.8088 122.044 91.3308 123.246 90.6957 123.888C88.8095 125.795 89.8848 127.431 90.948 129.178V129.174Z" fill="white"/>
<path d="M80.2784 117.939C78.046 118.767 77.8059 117.118 77.169 116.006C76.7967 115.355 76.4904 114.509 75.516 114.781C74.5851 115.038 75.0601 115.905 74.961 116.509C74.8479 117.201 75.1906 118.228 73.9831 118.144C72.7633 118.059 73.2732 117.003 73.2453 116.359C73.1723 114.758 73.0939 113.138 73.2697 111.553C73.3758 110.603 72.3023 109.074 74.3328 108.78C77.2613 108.357 79.3841 109.169 79.9443 110.965C80.1323 111.564 80.2662 112.324 79.8887 112.668C77.8807 114.499 79.0795 116.143 80.2784 117.941V117.939Z" fill="white"/>
<path d="M101.656 124.897C101.656 120.039 102.413 119.421 107.236 120.281C107.781 120.378 108.216 120.415 108.178 121.127C108.138 121.863 107.621 121.838 107.12 121.845C106.278 121.857 105.434 121.873 104.591 121.85C103.889 121.831 103.518 122.047 103.507 122.842C103.495 123.622 103.857 123.726 104.529 123.905C105.59 124.187 107.549 122.941 107.565 124.73C107.577 126.068 105.649 125.247 104.609 125.374C103.702 125.485 103.507 125.846 103.507 126.644C103.507 127.478 103.774 127.892 104.666 127.845C105.507 127.801 106.352 127.808 107.193 127.85C107.725 127.876 108.491 127.636 108.534 128.543C108.587 129.639 107.706 129.379 107.092 129.4C105.997 129.437 104.887 129.298 103.808 129.437C101.957 129.677 101.407 128.884 101.639 127.17C101.74 126.425 101.656 125.656 101.656 124.897Z" fill="white"/>
<path d="M88.0526 135.097C88.4111 133.872 88.7016 132.939 88.9539 131.996C89.1662 131.196 89.7056 130.94 90.466 130.996C91.2838 131.055 91.3325 131.657 91.336 132.266C91.3464 133.78 91.3499 135.295 91.3395 136.809C91.336 137.319 91.2977 137.911 90.6417 137.949C89.9353 137.991 89.9336 137.378 89.9231 136.879C89.9057 135.957 89.9179 135.034 89.9179 134.015C89.7021 134.185 89.5473 134.246 89.5003 134.352C88.9818 135.534 89.382 137.676 88.0491 137.796C86.1839 137.963 87.3444 135.346 86.0551 134.596C86.0481 134.606 85.9542 134.697 85.9176 134.806C85.5679 135.831 86.6206 137.77 85.2199 137.787C83.8001 137.805 84.4717 135.847 84.5378 134.845C84.6231 133.569 83.5147 131.426 85.3191 131.133C87.7481 130.742 86.7354 133.642 88.0526 135.095V135.097Z" fill="white"/>
<path d="M60.6998 118.17C59.5114 118.21 59.5845 117.683 59.8072 117.034C60.6494 114.584 61.4828 112.131 62.3093 109.676C62.5251 109.035 62.9218 108.776 63.6195 108.769C64.3486 108.762 64.7175 109.143 64.9193 109.721C65.7719 112.166 66.5897 114.621 67.4267 117.071C67.5676 117.485 67.6998 117.955 67.1918 118.123C66.7254 118.278 66.1147 118.285 65.8085 117.805C64.2755 115.4 62.8278 115.393 61.3488 117.855C61.2131 118.082 60.7833 118.13 60.6963 118.17H60.6998Z" fill="white"/>
<path d="M104.485 117.487C104.504 117.937 104.329 118.16 103.914 118.162C103.415 118.165 103.011 118.143 102.616 117.65C101.085 115.747 99.9507 115.747 98.423 117.634C97.9602 118.207 97.4173 118.343 96.8953 118.066C96.2915 117.746 96.7213 117.187 96.8709 116.735C97.6104 114.497 98.3516 112.261 99.0946 110.024C99.5505 108.653 100.894 108.124 101.459 109.253C102.768 111.866 103.523 114.755 104.485 117.485V117.487Z" fill="white"/>
<path d="M99.7959 120.389C99.6028 122.19 96.7231 122.522 97.8993 124.744C98.6771 126.211 99.4706 127.669 100.276 129.164C97.9776 130.035 97.9133 128.019 97.1129 127.044C96.7144 126.559 96.6761 125.484 95.9523 125.635C95.1867 125.797 94.6908 126.585 94.5655 127.512C94.4715 128.201 95.131 129.463 93.6729 129.357C92.3226 129.258 92.9838 128.055 92.9438 127.358C92.8464 125.684 92.8446 123.994 92.9438 122.32C92.9856 121.629 92.3087 120.42 93.6833 120.335C95.1484 120.244 94.4211 121.506 94.5672 122.19C94.6647 122.647 94.5864 123.142 94.5864 123.733C96.8258 123.176 96.9998 119.726 99.7977 120.389H99.7959Z" fill="white"/>
<path d="M53.947 113.302C53.947 113.05 53.9174 112.794 53.9522 112.547C54.121 111.336 53.3032 109.483 54.3698 109.039C55.8036 108.442 57.648 108.82 59.3166 108.8C59.8247 108.794 60.037 109.117 60.0474 109.601C60.0579 110.086 59.856 110.415 59.348 110.434C58.5093 110.467 57.6706 110.48 56.8319 110.469C55.9393 110.459 55.694 110.932 55.7218 111.746C55.7496 112.575 56.2473 112.688 56.8963 112.663C56.9798 112.66 57.079 112.635 57.1451 112.668C57.9038 113.063 59.5341 111.819 59.4471 113.554C59.3828 114.826 57.9438 114.219 57.1817 114.182C55.3112 114.092 55.7931 115.353 55.6957 116.361C55.6313 117.032 56.0646 118.069 54.8988 118.141C53.4372 118.231 54.034 117.013 53.9696 116.317C53.8774 115.319 53.9453 114.306 53.947 113.298V113.302Z" fill="white"/>
<path d="M84.3968 108.792C84.9032 108.792 85.4113 108.755 85.9124 108.8C86.5945 108.861 87.6071 108.456 87.6419 109.655C87.6715 110.664 86.7963 110.5 86.1543 110.52C84.9484 110.556 85.1816 111.452 85.1711 112.166C85.145 113.765 85.1624 115.365 85.1555 116.966C85.1537 117.6 85.0424 118.125 84.2228 118.17C83.3041 118.223 83.3546 117.601 83.3494 117.015C83.3372 115.752 83.3737 114.487 83.3354 113.225C83.2954 111.938 83.9618 110.152 81.4684 110.464C80.9569 110.528 80.8281 110.036 80.8438 109.577C80.8612 109.077 81.1117 108.814 81.6163 108.813C82.5437 108.811 83.4694 108.813 84.3968 108.813C84.3968 108.806 84.3968 108.799 84.3968 108.79V108.792Z" fill="white"/>
<path d="M64.1294 134.352C64.6097 133.171 62.9758 130.799 66.1409 130.928C68.8187 131.038 70.1655 132.151 70.1864 134.636C70.2072 136.95 69.0414 137.858 66.5498 138.095C63.195 138.414 64.3782 136.038 64.1277 134.352H64.1294Z" fill="white"/>
<path d="M104.297 137.892C102.804 138.302 102.669 137.117 102.168 136.425C101.87 136.014 101.616 135.511 100.998 135.692C100.464 135.849 100.64 136.373 100.591 136.759C100.52 137.324 100.631 138.095 99.7263 137.932C98.9329 137.787 99.1364 137.025 99.119 136.47C99.0895 135.543 99.0233 134.603 99.1382 133.689C99.253 132.779 98.5013 131.408 99.8724 131.078C101.13 130.773 102.571 130.629 103.697 131.723C104.753 132.752 104.64 133.71 103.721 134.813C102.761 135.967 104.372 136.743 104.297 137.893V137.892Z" fill="white"/>
<path d="M112.608 120.279C113.112 120.279 113.627 120.217 114.12 120.295C114.694 120.387 115.576 119.882 115.736 120.928C115.905 122.019 115.066 121.918 114.419 121.868C113.258 121.779 113.271 122.506 113.277 123.314C113.293 124.996 113.271 126.679 113.277 128.363C113.279 129.052 113.086 129.47 112.27 129.411C111.569 129.36 111.487 128.932 111.484 128.395C111.475 127.217 111.537 126.032 111.437 124.862C111.327 123.573 112.267 121.56 109.554 121.817C109.215 121.849 109.091 121.428 109.081 121.062C109.067 120.532 109.331 120.3 109.829 120.295C110.754 120.288 111.68 120.293 112.606 120.293C112.606 120.288 112.606 120.283 112.606 120.277L112.608 120.279Z" fill="white"/>
<path d="M107.379 133.343C108.781 132.638 109.166 130.944 111.581 130.991C108.529 133.049 109.625 134.967 110.855 136.895C111.069 137.23 111.381 137.672 110.826 137.937C110.438 138.121 109.991 138.012 109.731 137.587C109.512 137.229 109.336 136.846 109.11 136.491C108.804 136.009 108.602 135.255 107.915 135.353C107.229 135.45 107.175 136.157 107.149 136.764C107.125 137.354 107.149 138.071 106.27 137.942C105.432 137.818 105.663 137.056 105.649 136.517C105.616 135.17 105.618 133.822 105.653 132.475C105.667 131.934 105.453 131.128 106.291 131.067C107.361 130.987 107.043 131.925 107.156 132.527C107.198 132.753 107.274 132.973 107.375 133.343H107.379Z" fill="white"/>
<path d="M82.6413 130.959C83.1911 133.051 82.8361 134.982 82.9197 136.889C82.9371 137.293 82.9423 137.773 82.4098 137.895C81.9331 138.005 81.6408 137.669 81.3728 137.342C80.5898 136.386 80.3149 135.066 79.123 134.238C78.3435 135.37 79.3701 136.888 78.1556 138.182C77.3517 135.847 77.6074 133.698 77.8354 131.645C77.9589 130.528 78.8689 131.252 79.2326 131.746C80.0104 132.804 80.682 133.938 81.4372 135.102C82.3872 133.825 80.9604 132.064 82.6413 130.958V130.959Z" fill="white"/>
<path d="M92.2131 138.852C92.4898 135.723 93.5564 133.811 94.1863 131.791C94.4786 130.855 95.4861 130.463 96.015 131.614C96.8137 133.355 97.3722 135.21 97.9656 137.039C98.1361 137.563 97.6472 138.314 97.2574 137.831C95.54 135.711 94.0523 136.68 92.2149 138.852H92.2131Z" fill="white"/>
<path d="M72.8103 136.771C73.1566 136.673 72.7825 136.686 72.5354 136.868C72.0273 137.244 71.9316 138.607 70.952 137.751C70.2699 137.155 71.1382 136.367 71.3122 135.682C71.601 134.549 72.0134 133.439 72.4554 132.355C72.685 131.793 72.6955 130.931 73.6786 131.022C74.4059 131.088 74.5834 131.614 74.7748 132.209C75.2585 133.724 75.8257 135.214 76.3129 136.727C76.426 137.077 76.8871 137.509 76.4104 137.848C75.9232 138.193 75.4603 138.008 75.1785 137.469C74.8165 136.776 74.2302 136.553 72.8103 136.773V136.771Z" fill="white"/>
<path d="M70.6909 113.465C70.6909 114.64 70.7031 115.814 70.6857 116.987C70.677 117.554 70.7727 118.205 69.854 118.196C69.1301 118.19 68.7595 117.883 68.7595 117.152C68.7595 114.72 68.7595 112.287 68.7613 109.855C68.7613 109.15 69.0762 108.787 69.8209 108.766C70.7222 108.74 70.6805 109.356 70.6857 109.942C70.6979 111.116 70.6892 112.291 70.6892 113.465H70.6909Z" fill="white"/>
<path d="M114.852 44.8137C115.835 44.2586 116.81 44.7145 117.786 44.8398C119.298 46.0961 120.382 47.4567 118.92 49.4438C118.097 49.6961 117.861 49.0419 117.523 48.5442C117.304 47.2862 116.765 46.317 115.327 46.1744C114.997 46.0038 114.751 45.7515 114.593 45.4157C114.536 45.153 114.621 44.9529 114.851 44.8137H114.852Z" fill="white"/>
<path d="M114.852 44.8137C114.845 44.9999 114.836 45.1861 114.829 45.3723C114.44 46.6842 113.237 47.9823 114.774 49.3203C114.937 49.4908 115.077 49.677 115.209 49.8736C115.331 50.0824 115.409 50.3052 115.44 50.5435C115.339 50.9211 115.19 51.2187 114.72 50.9594C111.875 48.8035 111.934 46.0909 114.854 44.8137H114.852Z" fill="white"/>
<path d="M114.718 50.9577C114.891 50.7993 115.063 50.641 115.235 50.4809C115.644 49.7919 116.657 49.9867 117.029 49.2472C117.245 48.8818 117.436 48.4921 117.875 48.3372C118.238 48.6243 118.113 49.3412 118.778 49.3638C119.007 49.6318 119.023 49.9119 118.825 50.2042C117.655 51.5406 116.316 51.9529 114.718 50.9594V50.9577Z" fill="white"/>
<path d="M118.823 50.2025C118.807 49.9224 118.792 49.6422 118.776 49.3621C119.994 47.5142 118.792 46.197 117.784 44.8381C120.21 46.0439 120.53 47.6952 118.821 50.2025H118.823Z" fill="white"/>
<path d="M109.792 90.8332C109.082 89.5996 109.418 88.1902 109.075 86.9165C108.004 82.9336 105.456 80.1983 101.903 78.22C96.5127 75.2185 90.5045 74.2267 84.6459 72.7477C81.841 72.0395 79.1684 71.0581 76.8803 69.2607C72.4833 65.8051 70.3553 61.3959 71.5419 55.7444C72.7495 49.9902 76.5671 46.6981 82.0602 45.3653C102.178 40.4881 120.97 60.0491 115.421 80.0191C114.012 85.0895 112.187 88.613 109.794 90.8332H109.792Z" fill="black"/>
<path d="M66.7898 54.6534C63.7657 63.6788 66.9029 70.6422 73.3374 76.6313C74.8721 78.0599 76.1997 79.7303 77.5013 81.385C81.6355 86.6398 83.1928 92.3835 80.6785 98.8755C80.2592 99.956 79.8851 100.551 78.5279 100.073C58.6692 93.0795 53.5797 69.0658 66.1356 54.77C66.1791 54.7212 66.2974 54.7369 66.7881 54.6551L66.7898 54.6534Z" fill="black"/>
<path d="M75.3506 122.553C75.3715 123.664 76.2554 124.862 74.98 125.659C74.7138 125.826 73.8907 125.684 73.8594 125.557C73.5253 124.156 74.8007 123.561 75.3506 122.555V122.553Z" fill="black"/>
<path d="M107.368 113.488C107.957 112.467 106.406 110.469 108.952 110.542C110.881 110.598 111.581 111.8 111.628 113.507C111.682 115.423 110.772 116.575 108.767 116.493C106.293 116.392 108.075 114.395 107.368 113.488Z" fill="black"/>
<path d="M93.9862 111.884C93.7478 113.046 92.8847 113.156 91.8947 113.211C90.715 113.278 90.7811 112.54 90.7602 111.752C90.7376 110.866 90.9359 110.236 92.006 110.377C92.9387 110.5 93.8922 110.612 93.9844 111.884H93.9862Z" fill="black"/>
<path d="M86.9981 124.558C86.1751 124.739 85.7923 124.351 85.8376 123.349C85.8776 122.487 85.7523 121.638 87.0712 121.802C87.9151 121.906 88.806 121.889 88.9243 123.02C89.0635 124.344 88.1135 124.46 86.9981 124.558Z" fill="black"/>
<path d="M78.2877 111.915C77.9728 113.199 76.9932 113.222 75.944 113.234C74.7486 113.246 74.947 112.427 74.8878 111.694C74.7956 110.532 75.4289 110.239 76.4225 110.342C77.3986 110.443 78.239 110.713 78.286 111.915H78.2877Z" fill="black"/>
<path d="M63.7084 111.499C63.7397 112.616 65.2796 113.549 64.2374 114.682C64.0216 114.917 62.9585 114.84 62.8454 114.621C62.2468 113.45 63.1638 112.538 63.7067 111.499H63.7084Z" fill="black"/>
<path d="M100.48 111.464C100.932 112.54 101.889 113.478 101.31 114.6C101.11 114.988 99.9805 115.004 99.7525 114.598C99.1261 113.488 100.13 112.517 100.48 111.464Z" fill="black"/>
<path d="M65.5894 134.693C65.8625 133.881 65.0152 132.498 66.7291 132.433C68.0793 132.383 68.6587 133.119 68.6813 134.452C68.704 135.811 68.2533 136.806 66.7952 136.879C65.0517 136.968 65.833 135.532 65.5894 134.695V134.693Z" fill="black"/>
<path d="M102.968 133.354C102.877 134.004 102.465 134.337 101.83 134.408C101.205 134.478 100.673 134.378 100.607 133.592C100.539 132.783 100.869 132.339 101.72 132.391C102.34 132.43 102.824 132.659 102.968 133.354Z" fill="black"/>
<path d="M95.319 133.093C95.3469 133.973 96.3856 134.591 95.5417 135.41C95.4234 135.525 94.9588 135.499 94.8492 135.372C94.1097 134.518 94.7901 133.893 95.319 133.094V133.093Z" fill="black"/>
<path d="M73.475 133.284C74.218 133.874 74.5956 134.545 74.1623 135.381C74.0893 135.522 73.4263 135.565 73.2454 135.41C72.3075 134.606 73.5829 134.05 73.475 133.284Z" fill="black"/>
<path d="M117.874 48.3372C117.725 48.7426 117.883 49.3186 117.253 49.4578C116.277 48.7026 115.692 50.326 114.765 49.8667L114.798 49.9015C114.008 48.4155 113.399 46.9487 115.256 45.7533C117.159 45.5689 118.431 46.0247 117.873 48.3355L117.874 48.3372Z" fill="black"/>
<path d="M115.256 45.7551C114.099 47.027 114.941 48.5182 114.798 49.9032C112.719 48.2815 112.724 47.2619 114.828 45.3723C114.97 45.4993 115.113 45.628 115.256 45.7551Z" fill="white"/>
<path d="M114.765 49.8666C115.696 50.3434 115.799 45.7933 117.253 49.4577C117.452 51.5162 115.894 50.1137 115.235 50.4809C114.976 50.3556 114.659 50.2721 114.765 49.8666Z" fill="white"/>
<path d="M92.0965 70.7989C87.9744 70.8267 84.6232 67.6338 84.5501 63.6074C84.4735 59.4819 87.8439 56.0245 91.9782 55.988C96.0132 55.9514 99.4323 59.2366 99.5124 63.2264C99.5976 67.4111 96.3073 70.7693 92.0965 70.7989Z" fill="white"/>
</svg>
