<svg width="168" height="169" viewBox="0 0 168 169" fill="none" xmlns="http://www.w3.org/2000/svg">
<path d="M144.362 82.7475C141.138 82.5176 137.957 82.9722 134.77 83.3356C134.497 83.366 134.222 83.4167 133.967 83.508C133.283 83.748 132.567 84.1789 132.69 84.9157C132.836 85.7945 133.73 85.3873 134.303 85.3856C134.938 85.3856 135.576 85.2453 136.206 85.127C137.579 84.8718 138.545 85.5208 138.744 86.8559C138.919 88.0237 138.39 88.5678 136.802 88.6997C135.3 88.8247 133.792 88.8923 132.285 88.9261C131.895 88.9346 131.509 88.8416 131.428 89.3182C131.349 89.7745 131.762 89.9283 132.097 90.0669C133.227 90.5316 134.338 90.2105 135.474 90.0179C136.231 89.8877 137.256 89.2371 137.666 90.5198C138.046 91.7095 137.337 93.048 136.193 93.3505C133.293 94.1178 130.444 94.5454 128.307 91.5186C127.752 92.5444 127.438 93.5719 126.331 93.9691C125.039 94.4321 123.781 94.2006 122.556 93.8187C119.986 93.0176 117.975 91.4391 116.409 89.1019C116.133 90.3761 116.31 91.5389 116.303 92.6931C116.298 93.457 116.219 94.2986 115.297 94.3645C114.316 94.4355 113.506 93.9488 113.314 92.8638C113.235 92.4193 113.247 91.9563 113.242 91.5017C113.22 89.6984 113.22 89.7948 111.376 89.9232C109.558 90.05 108.756 91.0842 108.222 92.6238C108.032 93.1697 107.854 93.9235 107.033 93.9691C106.3 94.008 105.827 93.5009 105.479 92.9804C105.081 92.3839 105.126 91.6352 105.427 91.0217C107.177 87.4558 108.824 83.8325 111.166 80.586C111.431 80.2175 111.713 79.8542 112.026 79.5246C113.056 78.4363 113.791 78.4988 114.692 79.7258C115.532 80.8699 115.895 82.1391 116.358 85.6509C116.856 84.8617 117.178 84.135 117.689 83.5756C119.737 81.3279 122.432 80.3933 125.378 80.1161C126.648 79.9978 127.579 80.9003 128.023 82.4213C128.48 83.9829 128.078 85.465 127.021 86.1089C126.336 86.5263 125.708 86.3201 125.094 85.9331C124.448 85.5275 124.16 84.9884 124.307 84.2043C124.532 82.9976 124.288 82.8066 123.099 83.1767C122.924 83.2308 122.749 83.2917 122.586 83.3728C120.632 84.3293 119.028 86.6902 119.566 87.8141C120.432 89.6292 124.389 90.6702 126.284 89.4956C126.969 89.0698 127.435 89.1999 128.061 89.832C128.033 87.7026 128.646 85.9686 129.506 84.3023C129.629 84.064 129.763 83.7851 129.75 83.5333C129.639 81.311 131.064 80.6975 132.937 80.4288C135.474 80.0654 138.005 79.6463 140.53 79.2035C143.086 78.7557 143.081 78.7303 144.367 80.8327V82.7458L144.362 82.7475Z" fill="white"/>
<path d="M95.8793 85.2064C94.6983 86.403 93.2887 87.2564 91.6709 87.6739C90.6494 87.9375 90.2463 88.5307 90.1858 89.4821C90.1102 90.6635 90.0312 91.8448 89.9707 93.0278C89.9304 93.8221 89.7591 94.5555 88.7695 94.5031C87.9077 94.4575 87.0912 94.1398 87.0291 93.114C86.9686 92.1185 87.0022 91.113 87.0711 90.1159C87.1231 89.3638 87.1214 88.8264 86.3302 88.2991C84.9324 87.3663 85.2684 85.4346 86.8392 84.833C87.9615 84.4037 87.6591 83.4286 87.5314 82.739C87.3718 81.8721 86.5267 82.3825 86.1 82.5329C85.1542 82.8675 84.2806 83.41 83.1096 82.5362C83.6186 85.7219 82.7501 88.6557 83.1516 91.6065C83.207 92.0087 83.1936 92.4278 83.1516 92.8334C83.0626 93.6902 82.8475 94.466 81.7706 94.569C80.6921 94.6738 79.8571 94.2192 79.7244 93.1917C79.4758 91.2735 78.3267 89.8658 77.3086 88.3651C77.117 88.0845 77.0028 87.5995 76.5374 87.7398C76.1477 87.8581 76.1124 88.3042 76.0586 88.6557C75.8772 89.8692 75.7058 91.0843 75.5597 92.3028C75.479 92.9754 75.5782 93.7967 74.639 93.8745C73.7486 93.9471 73.0565 93.5145 72.702 92.6441C72.4718 92.078 72.3929 91.4831 72.5071 90.9001C73.1556 87.5995 73.7335 84.3091 73.5722 80.9071C73.4916 79.1985 74.8238 78.4532 76.2132 79.1478C77.023 79.5517 77.1372 80.3511 77.0599 81.0186C76.7995 83.2646 78.2477 84.6538 79.4674 86.1782C79.6018 86.3455 79.7026 86.599 79.9932 86.5162C80.2855 86.4334 80.2351 86.1579 80.2502 85.9534C80.383 84.1823 80.4922 82.4095 80.6299 80.6401C80.6702 80.1195 80.4871 79.4368 81.1558 79.2137C81.8597 78.9771 82.4678 79.3912 82.7803 79.9556C83.1298 80.586 83.3246 80.6282 83.8186 80.1094C84.0807 79.8339 84.5208 79.6785 84.9106 79.5804C87.7246 78.8689 90.594 78.6509 93.4618 79.043C95.7247 79.354 96.7378 81.0051 96.6605 83.8037C96.5731 84.3682 96.521 84.9513 95.8742 85.2064H95.8793Z" fill="white"/>
<path d="M34.7978 94.5488C34.7978 94.4119 34.7776 94.2716 34.8012 94.1398C34.9658 93.1748 34.8045 92.879 33.694 93.2627C31.001 94.1956 28.3567 93.9235 25.8955 92.4363C24.5448 91.62 23.5233 88.965 24.1903 87.6147C26.0433 83.8629 28.686 80.7905 32.4004 78.705C33.5378 78.0662 34.5861 78.3653 35.4614 79.087C36.3955 79.8559 36.6189 81.0305 36.592 82.1881C36.5786 82.7323 36.083 83.0162 35.5555 83.1446C35.0128 83.2765 34.7793 82.9047 34.65 82.5143C34.1997 81.1403 33.3513 81.3634 32.4172 81.9329C29.9762 83.4235 28.1097 85.4667 26.7909 87.9713C25.9744 89.5193 26.4801 90.4573 28.1786 90.9237C29.8418 91.3817 31.5168 91.4409 33.2035 91.1096C33.5983 91.0319 33.983 90.8544 34.3459 90.6702C34.8079 90.4353 35.3152 90.05 35.1304 89.5312C34.9372 88.9887 34.3442 89.3182 33.9276 89.3858C32.8876 89.5548 31.846 89.7238 30.8179 89.9503C30.0182 90.126 29.3932 89.9824 29.2521 89.1188C29.116 88.2856 28.8674 87.2175 29.956 86.8762C32.4492 86.0954 35.0313 85.6256 37.642 85.5242C38.8903 85.4752 39.816 87.6164 39.1893 88.9988C38.2502 91.0724 37.7479 93.2035 37.9293 95.485C37.9999 96.379 37.5916 97.0517 36.6357 97.0736C35.7789 97.0939 34.9658 96.8387 34.8398 95.7774C34.7911 95.3718 34.7928 94.9594 34.7726 94.5505C34.781 94.5505 34.7911 94.5505 34.7995 94.5505L34.7978 94.5488Z" fill="white"/>
<path d="M96.9393 84.0843C97.6802 80.9645 99.8255 79.6835 102.892 79.4334C103.968 79.3455 105.017 78.8926 106.07 78.5816C107.108 78.2757 107.92 78.8182 108.306 80.1077C108.696 81.4073 108.308 82.2523 107.15 82.5159C105.232 82.952 103.305 83.3525 101.381 83.7733C101.114 83.8324 100.813 83.8578 100.597 84.0014C100.056 84.3597 99.4324 84.8684 99.6105 85.5055C99.8071 86.2069 100.575 85.7793 101.05 85.7151C101.952 85.5934 102.888 85.4363 103.71 85.0746C104.85 84.5727 105.447 84.8769 105.746 86.0041C106.131 87.4558 105.716 88.2349 104.407 88.4428C102.599 88.7301 100.788 88.9853 98.9788 89.2573C98.4043 89.3435 97.6651 89.2962 97.7239 90.1598C97.7793 90.9558 98.4664 90.9794 99.0695 91.0014C100.094 91.0403 101.072 90.8443 102.001 90.3981C102.964 89.9367 103.469 90.3558 103.681 91.2989C103.992 92.6813 103.469 93.7139 102.149 94.2631C100.059 95.1318 98.0615 94.8935 96.3547 93.4485C94.5251 91.9005 94.7016 89.8235 95.2492 87.7718C95.4575 86.9894 95.8658 86.261 96.1816 85.5072C96.316 84.9715 96.4303 84.4256 96.9359 84.0826L96.9393 84.0843Z" fill="white"/>
<path d="M43.0568 92.2385C43.0568 92.5106 43.0685 92.7844 43.0534 93.0565C43.0198 93.653 43.3004 94.4372 42.3478 94.569C41.4692 94.6907 40.8224 94.258 40.5166 93.4553C40.3436 92.999 40.2747 92.4768 40.278 91.985C40.2864 90.5231 40.8207 89.0613 39.9471 87.613C39.6682 87.1499 39.8312 86.381 40.4796 85.9314C41.9009 84.9462 42.0924 83.9169 41.2054 82.3402C40.5838 81.2332 41.4372 79.3168 42.7745 78.9061C44.384 78.4126 45.9665 78.3653 47.245 79.6683C48.7419 81.1944 49.4088 83.0196 48.9065 85.149C48.6965 86.0396 48.2648 86.8643 47.6986 87.5758C47.1744 88.2349 47.418 88.5999 47.9976 88.9869C48.715 89.4686 49.4492 89.9384 50.1044 90.4978C51.0317 91.2904 50.9847 92.1979 50.0842 93.2069C49.2912 94.0958 48.4647 94.133 47.5877 93.3488C46.5008 92.3754 45.4239 91.3918 44.3336 90.4234C44.0362 90.1598 43.7338 89.7322 43.2936 89.9164C42.84 90.1057 42.9862 90.6195 42.9677 91.0132C42.9476 91.4205 42.9627 91.8295 42.9627 92.2385C42.9946 92.2385 43.0265 92.2385 43.0584 92.2385H43.0568Z" fill="white"/>
<path d="M66.3851 94.2581C62.4085 94.3138 60.7705 91.5135 61.3569 88.2941C61.6273 86.8085 62.0793 85.3839 62.6387 83.9879C62.7395 83.7344 62.9596 83.4809 62.9478 83.2376C62.8252 80.7212 64.5505 80.177 66.5262 79.8728C67.9273 79.6565 69.3217 79.3793 70.7296 79.2188C71.9997 79.0734 73.1101 80.1618 73.1085 81.431C73.1085 82.1712 72.7069 82.4551 71.9997 82.521C70.5885 82.6511 69.1806 82.8185 67.7745 82.9976C67.3729 83.0483 66.9261 83.1108 66.6035 83.3238C66.0222 83.7057 65.4208 84.3462 65.6627 84.9901C65.9097 85.6475 66.711 85.225 67.252 85.127C67.7862 85.0307 68.3037 84.8177 68.8144 84.6234C70.0878 84.1383 70.7178 84.4273 71.1933 85.7405C71.6401 86.9708 71.3495 87.4896 69.9501 87.9324C68.4145 88.4191 66.8034 88.4985 65.236 88.8095C64.7185 88.9126 63.8416 88.8754 63.9474 89.7035C64.0365 90.3964 64.7958 90.4454 65.3905 90.464C66.2944 90.4944 67.2133 90.633 68.0281 90.0043C68.5338 89.6139 68.937 89.8573 69.2646 90.3677C70.3533 92.0611 69.7199 93.6463 67.7425 94.0823C67.299 94.1803 66.8387 94.2006 66.3868 94.2564L66.3851 94.2581Z" fill="white"/>
<path d="M50.9543 89.1695C50.8535 88.0625 51.2802 86.9454 51.8027 85.8841C52.1488 85.1828 52.1169 84.6589 51.6868 84.0065C50.7359 82.5616 51.2281 81.4749 52.9065 80.7837C54.9947 79.9252 57.2022 79.5652 59.3879 79.1174C60.8377 78.8216 62.1935 80.0756 62.1364 81.5476C62.1045 82.374 61.503 82.592 60.8411 82.6917C59.2535 82.9266 57.6793 83.2122 56.1707 83.7767C55.7893 83.9203 55.3609 83.9964 55.1493 84.4037C55.0014 84.691 54.8519 85.0121 55.0182 85.3146C55.1694 85.5884 55.4987 85.5546 55.7641 85.5106C56.6209 85.3687 57.4761 85.2081 58.3278 85.0425C59.5996 84.7958 60.2397 85.296 60.5152 86.795C60.7537 88.0913 59.8768 88.3346 58.8889 88.4512C57.4828 88.6168 56.0548 88.6016 54.6721 88.9853C54.2488 89.1019 53.8288 89.2016 53.8137 89.7052C53.7969 90.2663 54.2488 90.4573 54.7074 90.584C55.3391 90.7598 56.0111 90.8392 56.5991 90.5654C57.4828 90.1547 58.1296 90.3018 58.5025 91.184C58.9141 92.154 59.0485 93.1528 58.0909 93.915C57.7852 94.1601 57.3484 94.3848 56.9737 94.3814C54.0959 94.3628 50.7544 93.2677 50.9543 89.1661V89.1695Z" fill="white"/>
<path d="M96.9395 84.0843C96.7698 84.6014 96.5531 85.0949 96.1852 85.5089C96.0827 85.4092 95.9819 85.3078 95.8794 85.2081C96.1415 84.74 96.4036 84.2719 96.6656 83.8054C96.7564 83.8984 96.8488 83.993 96.9395 84.086V84.0843Z" fill="black"/>
<path d="M110.982 86.1629C111.485 85.0813 111.915 84.14 112.362 83.2037C112.478 82.9621 112.629 82.7086 112.972 82.7762C113.247 82.8303 113.276 83.0922 113.35 83.295C114.087 85.323 113.328 86.3286 110.982 86.1629Z" fill="black"/>
<path d="M91.4071 81.867C92.19 82.0292 93.1862 81.7639 93.4836 82.788C93.618 83.2528 91.4793 84.5457 90.7905 84.3902C89.7674 84.1586 90.1185 83.241 90.0631 82.5971C89.9623 81.4225 90.935 82.0698 91.4071 81.867Z" fill="black"/>
<path d="M46.1782 83.366C46.1614 84.1349 45.8472 84.7264 45.3466 85.2267C44.9904 85.5816 44.5402 86.0852 44.0816 85.8909C43.4465 85.6221 44.0026 85.034 44.0295 84.5862C44.058 84.1333 44.0614 83.6617 44.1975 83.2376C44.3386 82.7948 44.0076 81.9734 44.9216 82.0444C45.7145 82.1053 46.1194 82.6292 46.1782 83.3677V83.366Z" fill="black"/>
</svg>
