<svg width="127" height="127" viewBox="0 0 127 127" fill="none" xmlns="http://www.w3.org/2000/svg">
<path d="M80.2805 85.4647C80.2297 82.0065 83.0275 79.0664 86.3269 79.107C89.4295 79.1464 92.282 82.1055 92.2832 85.2869C92.2832 88.5457 89.5134 91.4197 86.332 91.4603C83.1557 91.501 80.3275 88.6981 80.2805 85.4634V85.4647Z" fill="white"/>
<path d="M62.3709 35.3175C59.1362 35.2235 56.3562 32.3736 56.3638 29.158C56.3714 25.7848 59.4245 22.9197 62.7938 23.1229C66.1593 23.3261 68.6447 26.0465 68.5393 29.4094C68.4377 32.6809 65.5878 35.4089 62.3709 35.3162V35.3175Z" fill="white"/>
<path d="M68.359 95.2907C68.3196 98.3971 65.6627 101.162 62.6694 101.211C59.1972 101.27 56.3105 98.4911 56.327 95.1065C56.3422 91.7905 59.3839 88.8264 62.6846 88.9102C65.6132 88.9851 68.3996 92.1182 68.359 95.2907Z" fill="white"/>
<path d="M39.3498 32.7038C42.8105 32.8079 45.8242 35.8064 45.6109 38.9331C45.3962 42.0751 42.3787 44.7383 39.1605 44.6265C36.1887 44.5236 33.0455 41.5582 33.0836 38.8937C33.1293 35.6006 36.1595 32.6085 39.351 32.7038H39.3498Z" fill="white"/>
<path d="M85.8379 32.7038C89.239 32.6555 92.1702 35.5435 92.1219 38.895C92.0787 41.9456 89.3889 44.6011 86.2405 44.7027C82.6299 44.8196 79.8359 42.2351 79.8092 38.7528C79.7851 35.5054 82.5309 32.7495 85.8379 32.7025V32.7038Z" fill="white"/>
<path d="M35.1791 61.7487C35.202 65.6031 33.2424 67.7481 29.6584 67.7901C26.5431 67.8269 23.2906 65.0113 23.2157 62.2135C23.1294 58.9674 26.0872 55.9232 29.3866 55.8622C32.8372 55.7987 35.1588 58.1584 35.1791 61.7487Z" fill="white"/>
<path d="M95.6691 67.8967C92.3798 67.8675 89.577 65.1586 89.5643 61.9938C89.5503 58.7261 92.5996 55.7885 95.9143 55.8749C99.2696 55.9625 101.65 58.5368 101.638 62.0649C101.627 65.5752 99.2188 67.9272 95.6691 67.8967Z" fill="white"/>
<path d="M38.9483 79.6633C42.7875 79.6392 45.0341 81.8337 45.0291 85.6069C45.0252 88.58 41.9468 91.647 38.9953 91.6178C36.0159 91.5886 33.0872 88.5482 33.039 85.4367C32.9856 81.9696 35.3212 79.6874 38.947 79.6646L38.9483 79.6633Z" fill="white"/>
<path d="M62.0712 57.2236C61.3143 55.706 59.85 55.2628 58.3844 54.8094C56.6636 54.2772 55.0329 54.5858 53.8112 55.8076C52.5031 57.117 52.7659 58.7362 53.4048 60.3859C54.4931 63.1952 56.6636 65.3847 57.6974 68.2383C55.057 66.2864 53.6613 63.4568 52.2148 60.6476C51.8338 59.9097 52.5043 58.0364 50.6146 58.7438C49.3369 59.2226 49.1731 60.5561 49.4462 61.7474C49.8462 63.4962 51.0603 64.8208 52.1068 66.2229C52.5234 66.7804 52.8904 67.3735 52.9895 68.171C50.64 66.6369 48.9204 64.5592 48.3883 61.7169C47.9742 59.5046 49.6189 58.5533 51.0172 57.0382C53.4987 54.3522 55.8025 53.1838 59.4373 53.646C60.9828 53.8429 61.6547 51.7055 62.6618 50.0392C63.7667 52.9717 65.6247 54.1464 68.7171 53.6346C70.6856 53.3082 76.2825 57.9209 76.7816 59.7509C77.5068 62.4078 75.4075 66.2165 71.44 68.6092C72.757 66.755 73.674 65.4951 74.5566 64.2112C75.2945 63.1368 75.9079 61.9658 75.7618 60.6387C75.6615 59.7306 75.3631 58.7362 74.215 58.5508C72.7037 58.3069 73.4098 59.6443 73.138 60.2246C71.7194 63.2612 70.2348 66.2305 67.1208 68.1456C68.2472 66.393 69.4334 64.6735 70.4875 62.8789C71.8566 60.5485 73.6498 57.8282 71.0819 55.6006C68.6194 53.4644 65.7873 54.6836 63.42 56.5797C63.0148 56.8884 62.8116 57.6161 62.07 57.2236H62.0712Z" fill="white"/>
<path d="M72.5362 71.0857C73.3439 72.0852 73.5712 73.0682 72.4549 74.0143C65.9182 73.566 59.3828 73.5419 52.8473 74.0321C51.4503 73.4352 52.4549 72.1754 52.0841 71.2953C52.4219 71.0489 52.8004 70.9282 53.2195 70.9295C59.4564 71.1594 65.6959 70.9511 71.9342 71.0362C72.1348 71.0514 72.3355 71.0679 72.5362 71.0857Z" fill="white"/>
<path d="M52.2009 70.3542C52.5172 69.0461 53.584 69.3331 54.4755 69.3305C59.8628 69.3166 65.2502 69.2886 70.635 69.3636C71.3652 69.3737 73.0404 68.5546 72.5425 70.6272C68.1902 72.0255 63.7173 71.1225 59.3078 71.2165C56.952 71.2673 54.379 72.1131 52.2009 70.3542Z" fill="white"/>
<path d="M62.0713 57.2237C62.5209 57.009 62.9717 56.7944 63.4213 56.5798V68.2384C62.9717 68.2473 62.5209 68.2562 62.0713 68.265V57.2237Z" fill="white"/>
<path d="M52.2008 70.3542C58.9813 70.4456 65.7618 70.5371 72.5424 70.6272C72.5678 70.7796 72.5665 70.932 72.5373 71.0844C72.4141 71.1784 72.4014 71.2851 72.4992 71.4045C65.946 71.7296 59.3928 71.8731 52.8421 71.3321C52.5894 71.3194 52.3379 71.3067 52.0852 71.294C52.1246 70.9803 52.1627 70.6666 52.202 70.3529L52.2008 70.3542Z" fill="white"/>
<path d="M52.8486 74.0321C54.3193 72.6021 56.1595 73.3273 57.7699 73.4009C62.6645 73.6244 67.6213 72.5107 72.4562 74.0143C65.9207 74.0207 59.3841 74.027 52.8486 74.0321Z" fill="white"/>
<path d="M63.8442 54.135C63.6867 54.958 63.1635 55.3479 62.3469 55.2323C61.7068 55.1421 61.2687 54.7192 61.3296 54.0474C61.4071 53.1978 62.0142 52.8498 62.8054 52.945C63.4467 53.0212 63.8176 53.4606 63.8455 54.135H63.8442Z" fill="white"/>
<path d="M52.8408 71.3334C59.3928 71.3575 65.9459 71.3816 72.4979 71.4058C65.9421 72.2617 59.3889 72.4484 52.8408 71.3334Z" fill="white"/>
</svg>
