<svg width="180" height="177" viewBox="0 0 180 177" fill="none" xmlns="http://www.w3.org/2000/svg">
<path d="M60.8994 112.639C59.2344 112.724 57.5658 112.76 55.908 112.912C54.8424 113.009 54.3258 112.616 54.0558 111.621C52.9956 107.692 51.9516 103.756 50.7654 99.8616C50.301 98.3359 51.4638 97.6721 52.0434 96.6756C52.1748 96.5464 52.3296 96.465 52.5114 96.4296C54.4734 97.7358 56.4642 99.0085 58.1724 100.64C58.6998 101.145 59.2686 101.497 59.9814 101.644C61.3674 103.66 62.5518 105.773 63.1674 108.159C62.3502 109.437 63.3762 111.062 62.3646 112.303C61.9686 112.804 61.3494 112.372 60.8976 112.641L60.8994 112.639Z" fill="white"/>
<path d="M59.4414 102.117C56.9448 100.497 54.081 99.3413 52.38 96.7146C52.398 95.2596 52.488 93.7711 50.7132 93.1197C49.3596 92.5338 49.3956 91.2187 49.0698 90.093C49.0842 89.9691 49.0968 89.8452 49.1112 89.7213C49.4712 88.8186 49.1778 87.7973 49.7052 86.907C50.751 85.1423 52.4268 85.052 54.2034 85.1512C56.9268 83.813 57.3102 83.8343 58.6926 85.4043C58.9194 85.8663 58.8762 86.3654 58.7934 86.8344C58.0068 91.3055 58.788 95.6579 59.8104 99.9908C59.9922 100.759 60.3324 101.536 59.4432 102.117H59.4414Z" fill="white"/>
<path d="M119.876 71.8461C120.96 71.6938 122.281 70.738 123.005 71.3151C123.782 71.9346 122.738 73.1523 122.45 74.0904C122.092 75.2586 122.832 75.1861 123.527 75.0462C124.666 74.8179 125.788 74.5011 126.911 74.2072C127.957 73.9347 128.142 74.3418 127.768 75.2197C127.364 76.1649 126.963 77.11 126.562 78.0552C126.254 78.3136 126.441 78.7862 126.117 79.0393C125.46 79.4535 124.821 79.2447 124.204 78.9615C121.228 77.5879 118.507 75.7454 115.522 74.3807C114.563 72.5275 112.739 71.2319 112.041 69.2052C112.387 67.4706 111.445 65.9927 111.051 64.4068C110.86 63.0757 110.516 61.5163 111.919 60.7818C113.236 60.0915 114.205 61.4084 115.162 62.1412C116.471 63.1465 117.866 64.0315 119.059 65.205C120.2 66.3272 120.496 67.4866 119.941 68.9008C119.691 69.538 119.601 70.2159 119.351 70.8566C119.248 71.1204 118.962 71.9062 119.876 71.8461Z" fill="white"/>
<path d="M86.4199 124.096C84.7513 125.098 82.8883 125.38 80.9875 125.472C79.9561 125.523 79.4701 126.128 79.1353 126.974C78.7789 127.875 78.4171 128.776 78.0175 129.66C77.8033 130.132 77.4433 130.476 76.8475 130.244C76.3147 130.037 76.1023 129.601 76.2103 129.074C76.3183 128.544 76.5325 128.036 76.6729 127.513C76.8637 126.806 76.6045 126.081 75.8629 126.252C73.0819 126.891 72.5941 124.951 71.9281 123.119C71.7643 122.666 71.5087 122.245 71.2963 121.81C69.8869 120.98 68.8159 119.923 68.6755 118.192C68.5909 117.149 68.7727 116.28 69.9049 115.885C71.0227 115.516 71.8057 116.287 72.6049 116.769C76.5469 119.137 80.6761 120.955 85.3435 121.353C85.9771 121.408 86.5621 121.58 86.8861 122.197C87.0733 122.911 87.2191 123.615 86.4199 124.095V124.096Z" fill="white"/>
<path d="M58.6584 71.1292C57.978 70.2637 56.6172 69.7787 56.7648 68.4671C56.8386 67.8158 60.2028 67.3272 61.56 67.7662C60.8706 66.2139 60.3234 64.7466 59.5818 63.3837C58.9104 62.1518 59.3604 61.7606 60.561 61.6402C63.009 61.3942 65.4534 61.1305 67.8996 60.8738C68.0994 60.7499 68.2992 60.7481 68.5008 60.8685C69.5646 62.3553 68.6304 63.9784 68.8122 65.5289C68.8788 66.1006 68.5584 66.6953 68.8392 67.2794C68.9472 67.6387 68.9562 68.014 68.7168 68.306C67.5 69.7911 66.1464 71.1557 64.8162 72.5416C64.557 72.8107 64.179 72.8691 63.7992 72.8142C62.4618 72.8001 61.1442 72.6071 59.8248 72.4089C59.04 72.3328 58.8546 71.7274 58.6602 71.131L58.6584 71.1292Z" fill="white"/>
<path d="M122.809 114.101C122.737 114.199 122.665 114.298 122.591 114.393C121.721 115.54 121.878 117.601 120.433 117.979C119.138 118.317 117.565 117.64 116.12 117.39C114.728 117.149 113.314 116.983 111.96 116.608C110.102 116.093 109.694 116.859 109.829 118.498C109.937 119.81 109.85 121.135 109.85 122.654C108.778 122.185 108.27 121.362 107.64 120.68C106.931 120.222 106.272 120.445 105.575 120.762C104.681 121.169 103.905 121.749 103.127 122.312C101.81 123.265 100.44 124.02 98.757 124.059C98.5068 124.169 98.2583 124.281 98.0081 124.39C96.7445 124.116 96.1505 123.123 95.5295 122.158C95.5619 121.19 96.3396 121.045 97.047 120.863C102.883 119.36 107.903 116.475 112.183 112.31C112.693 111.814 113.191 111.202 114.071 111.434C116.411 112.128 118.66 113.115 121.259 112.345C122.323 112.03 123.415 112.554 122.809 114.103V114.101Z" fill="white"/>
<path d="M58.6585 71.1292L59.7817 71.8832C61.0291 72.508 62.1901 73.2373 62.9119 74.4798C63.0487 75.5153 62.4313 76.3188 62.0047 77.1596C60.9139 79.3155 60.0913 81.5545 59.4901 83.8891C59.2885 84.6715 59.3245 85.8078 57.9619 85.7264C56.7325 84.2449 55.2403 85.3512 53.8633 85.3264C53.6131 85.2096 53.6131 85.0963 53.8651 84.983C55.4221 84.5299 55.0153 83.2714 54.8911 82.2696C54.5383 79.4571 54.0631 76.6587 53.6347 73.855C53.3053 71.7009 53.5249 71.4726 55.7893 71.4655C56.7541 71.462 57.7621 71.7292 58.6567 71.1274L58.6585 71.1292Z" fill="white"/>
<path d="M122.809 114.101C122.683 112.949 121.77 112.852 121.055 113.186C118.291 114.478 116.098 113.122 113.852 111.883C113.314 110.875 114.003 110.105 114.502 109.42C116.042 107.304 117.477 105.145 118.435 102.702C118.678 102.085 119.005 101.469 119.857 101.499C120.832 101.738 121.072 102.664 121.442 103.352C122.569 105.448 124.09 107.365 124.621 109.747C124.776 110.262 124.884 110.797 125.095 111.291C125.413 112.034 125.168 112.545 124.414 112.595C123.376 112.662 123.221 113.478 122.809 114.103V114.101Z" fill="white"/>
<path d="M87.3036 52.1212C89.3736 52.0167 91.4814 52.1159 93.5046 51.7583C96.3738 51.2521 98.1414 52.4628 99.477 54.7266C99.8622 54.8611 100.107 55.1019 100.105 55.5284C99.9018 56.4718 99.2394 57.1143 98.5518 57.7108C97.4916 58.6312 96.6618 59.7446 95.7474 60.7924C94.4856 61.2048 93.3048 60.7871 92.115 60.465C90.5202 58.6047 89.0604 56.6435 87.6978 54.6133C87.2334 53.9195 86.679 53.2327 87.093 52.3106C87.1632 52.2486 87.2352 52.1849 87.3054 52.123L87.3036 52.1212Z" fill="white"/>
<path d="M70.2307 116.328C69.1435 117.123 69.4387 118.146 69.8491 119.102C70.2523 120.038 70.8067 120.91 71.2963 121.811C68.3227 121.066 65.3527 120.314 62.3755 119.579C61.4809 119.358 61.2163 118.742 61.2667 117.947C61.3369 116.864 61.4665 115.785 61.5583 114.703C61.6249 113.93 61.8409 113.103 60.8977 112.637C61.2703 112.533 61.6429 112.429 62.0155 112.324C62.7679 111.096 64.2421 111.924 65.1853 111.243C65.7055 111.122 66.1267 111.285 66.4993 111.652C67.6153 112.747 68.6971 113.876 69.8815 114.901C70.3369 115.296 70.5313 115.753 70.2289 116.326L70.2307 116.328Z" fill="white"/>
<path d="M124.621 109.745C123.323 109.151 122.956 107.82 122.322 106.754C121.37 105.154 120.252 103.607 119.856 101.733C119.237 101.102 119.39 100.494 119.907 99.8935C122.074 98.6014 124.36 98.3217 126.77 99.1306C126.981 99.2262 127.145 99.3714 127.265 99.5678C128.331 101.021 128.145 102.403 127.296 103.945C126.27 105.807 125.501 107.805 124.621 109.745Z" fill="white"/>
<path d="M86.4197 124.096C86.2325 123.574 86.2091 123.063 86.5133 122.571C86.8139 121.792 87.5285 121.726 88.1999 121.711C90.4193 121.657 92.6369 121.551 94.8509 121.496C96.1937 122.383 96.2909 124.231 97.6895 125.082C98.3699 127.093 97.8713 129.122 97.7903 131.171C96.9443 130.017 96.8345 128.635 96.4457 127.357C96.1343 126.33 95.6735 126.052 94.7591 126.725C94.4135 126.978 94.0409 127.194 93.6809 127.426C89.9531 129.837 91.0889 129.716 88.3313 126.544C87.6527 125.764 87.0551 124.916 86.4197 124.098V124.096Z" fill="white"/>
<path d="M98.7571 124.058C100.777 122.735 102.83 121.461 104.801 120.075C106.063 119.188 106.909 119.5 107.638 120.679C106.729 121.086 106.623 122.006 106.328 122.767C105.404 125.137 104.575 127.543 103.648 129.911C103.419 130.493 103.361 131.224 102.51 131.683C101.711 129.688 100.955 127.734 100.141 125.803C99.8515 125.114 99.7741 124.21 98.7571 124.058Z" fill="white"/>
<path d="M112.09 64.1891C112.531 65.8723 113.01 67.5503 112.812 69.3203C112.259 69.6761 111.759 69.5238 111.31 69.138C109.606 67.6777 107.727 66.4423 105.954 65.0688C105.486 64.7059 105.203 64.2953 105.239 63.6988C105.217 61.5482 106.027 59.6048 106.789 57.6507C106.994 57.1232 107.316 56.6896 108.016 56.8914C109.404 57.9622 110.792 59.0348 112.182 60.1057C111.139 61.4438 111.939 62.8226 112.093 64.1855L112.09 64.1891Z" fill="white"/>
<path d="M108.014 56.8931C107.023 59.1393 106.459 61.5164 105.786 63.8599C105.561 64.1873 105.203 64.4386 104.855 64.3024C102.946 63.559 100.854 63.1501 99.3942 61.5447C98.9766 59.5977 100.494 58.5056 101.398 57.1392C102.161 55.4718 103.291 54.4488 105.322 54.87C105.707 54.9497 106.162 54.9904 106.542 54.7302C107.938 54.4836 108.428 55.2045 108.013 56.8931H108.014Z" fill="white"/>
<path d="M112.09 64.189C111.791 62.8226 110.534 61.4349 112.178 60.1092C115.232 60.8243 118.276 61.5889 121.345 62.2332C122.747 62.5288 122.726 63.1412 122.35 64.3041C121.534 66.821 120.087 69.1415 119.875 71.8478C118.933 72.3063 118.206 72.0655 118.715 71.0177C120.478 67.4016 118.642 65.4033 115.695 63.697C114.82 63.1908 114.156 62.3341 113.384 61.6509C113.072 61.3747 112.748 60.9995 112.268 61.2526C111.782 61.5075 111.971 61.9783 111.996 62.3872C112.034 62.9872 112.059 63.589 112.088 64.189H112.09Z" fill="white"/>
<path d="M126.945 99.5182C124.709 99.605 122.441 99.4315 120.307 100.322C119.365 99.766 119.774 98.9483 119.902 98.2031C120.384 95.3941 120.879 92.5887 120.625 89.7178C120.604 89.4133 120.584 89.1071 120.647 88.8115C120.784 88.1761 121.158 87.6274 121.795 87.5318C122.519 87.4221 122.512 88.231 122.837 88.6257C123.329 89.2416 123.822 89.8558 124.313 90.4718C125.32 91.4258 125.528 92.3763 124.31 93.3286C124.33 93.5569 124.348 93.7852 124.367 94.0135C125.69 94.9658 126.572 96.2349 127.156 97.7288C127.408 98.3731 127.559 98.9837 126.945 99.5182Z" fill="white"/>
<path d="M126.945 99.5182C126.086 97.6828 125.226 95.849 124.367 94.0135C125.269 94.2259 126.173 94.626 127.071 94.6153C129.629 94.5853 130.428 96.5623 131.564 98.1766C132.071 98.8987 131.645 99.1412 130.95 99.2085C129.721 99.3253 128.493 99.4475 127.265 99.5678C127.157 99.5643 127.049 99.5483 126.945 99.5182Z" fill="white"/>
<path d="M73.899 55.0807C76.4316 53.2522 79.0668 51.7531 82.4058 52.5088C82.4652 52.5796 82.5264 52.6487 82.5876 52.7195C82.7532 53.1567 82.6362 53.5425 82.3446 53.8824C81.054 55.3922 79.5888 56.7356 78.147 58.1003C77.8752 58.3569 77.4882 58.3817 77.1138 58.2755C76.3758 57.7268 75.4866 57.4507 74.7072 56.9763C73.9782 56.5321 73.4022 56.0276 73.899 55.0807Z" fill="white"/>
<path d="M122.837 88.6257C120.829 87.4203 122.15 89.4983 121.655 89.785C120.778 89.739 120.586 89.1071 120.537 88.4345C120.452 87.2575 120.217 86.091 120.254 84.9069C121.716 82.3847 123.874 80.5049 126.157 78.7385C126.292 78.5119 126.428 78.2836 126.563 78.057C127.348 79.4606 126.761 80.666 126.101 81.9333C124.952 84.1334 123.656 86.268 122.839 88.6274L122.837 88.6257Z" fill="white"/>
<path d="M73.899 55.0806C74.5794 56.5143 76.7196 56.3267 77.2128 57.9693C77.1156 60.4915 75.6432 61.3889 72.7236 60.7075C71.937 59.4118 71.0208 58.1569 71.2728 56.5126C71.3808 54.6735 73.0728 55.647 73.899 55.0824V55.0806Z" fill="white"/>
<path d="M106.542 54.7302C104.882 55.4488 102.794 55.5161 102.029 57.5958C100.427 57.8914 99.9917 57.4595 99.8441 55.4347C99.7217 55.1975 99.5975 54.9621 99.4751 54.7249C99.6659 54.5762 99.8657 54.4364 100.047 54.2753C102.049 52.4894 102.058 52.4734 104.335 54.0133C105.015 54.4735 105.716 54.7621 106.542 54.7284V54.7302Z" fill="white"/>
<path d="M124.312 93.3286C124.312 92.3763 124.313 91.4241 124.315 90.4718C126.704 90.9426 129.2 90.5568 131.846 91.3019C129.433 93.0702 126.788 92.9038 124.312 93.3286Z" fill="white"/>
<path d="M71.2747 56.5108C72.2791 57.525 72.7579 58.7516 72.7921 60.157C71.6689 61.5712 70.1425 61.8403 68.3623 60.9358C68.2075 60.9163 68.0545 60.8951 67.8997 60.8756C68.0491 58.6914 69.0553 57.148 71.2747 56.5108Z" fill="white"/>
<path d="M53.8685 84.9848C53.8685 85.0999 53.8685 85.2131 53.8667 85.3282C52.0577 85.0821 51.0515 86.0503 50.3387 87.5301C49.9769 88.2823 49.5233 88.9903 49.1111 89.7196C49.0481 89.4257 49.0121 89.1231 48.9149 88.8399C47.7863 85.5353 47.7827 85.5229 51.3089 85.1069C52.1549 85.0078 53.0153 85.022 53.8685 84.983V84.9848Z" fill="white"/>
<path d="M82.4077 52.5088C82.6093 52.2805 82.8037 52.0468 83.0125 51.8256C84.5473 50.1972 85.9777 50.2957 87.3037 52.1212C87.2389 52.153 87.1795 52.1902 87.1219 52.2327C86.0797 53.615 84.1087 53.7726 82.5553 52.5973L82.4077 52.5088Z" fill="white"/>
<path d="M97.6913 125.082C95.7239 125.665 95.2433 125.061 95.4071 122.206C95.5061 122.082 95.6195 122.07 95.7455 122.165C97.3421 122.077 97.4483 123.456 98.0081 124.387C97.9019 124.619 97.7975 124.849 97.6913 125.081V125.082Z" fill="white"/>
<path d="M49.0698 90.093C50.3406 90.6523 50.211 92.0648 50.8914 92.9852C50.5296 93.2879 50.139 93.2064 49.743 93.0702C48.3054 92.8814 48.081 91.889 49.0698 90.093Z" fill="white"/>
<path d="M49.743 93.0701C50.1264 93.0418 50.508 93.0135 50.8914 92.9852C51.0588 93.056 51.2208 93.1374 51.3918 93.194C53.0238 93.7297 53.409 94.7339 52.5474 96.2066C52.4592 96.357 52.434 96.5446 52.38 96.7145C52.2684 96.7022 52.1568 96.688 52.0452 96.6756C51.7806 95.1623 51.498 93.6613 49.7412 93.0719L49.743 93.0701Z" fill="white"/>
<path d="M62.4095 107.938C63.3851 109.177 64.3607 110.416 65.3363 111.657C64.4273 112.822 63.1349 112.158 62.0171 112.326C62.0513 110.855 61.9271 109.37 62.4095 107.938Z" fill="white"/>
<path d="M121.019 84.5901C120.028 80.6855 118.415 77.0463 116.192 73.6674C119.455 75.4693 122.681 77.3402 126.157 78.7385C125.348 81.4572 122.877 82.7634 121.019 84.5901Z" fill="white"/>
<path d="M92.0501 59.7924C84.8141 59.449 78.0569 60.9358 71.9855 64.9519C70.7597 65.7626 69.6113 66.6901 68.4287 67.5645C67.5251 65.3644 67.9931 63.1483 68.3621 60.9358C69.8381 60.6774 71.3159 60.4172 72.7919 60.1588C74.8799 60.6278 76.0877 59.3782 77.2145 57.9711C78.9947 56.1798 80.7749 54.3886 82.5551 52.5991C84.0779 52.477 85.6007 52.3566 87.1235 52.2345C88.5689 54.2594 90.0071 56.2878 91.4651 58.3038C91.7945 58.7587 92.0483 59.2242 92.0537 59.7942L92.0501 59.7924Z" fill="white"/>
<path d="M63.9017 72.2266C63.4031 72.9523 62.9045 73.6798 62.4041 74.4055C61.0685 74.0303 60.4097 72.9718 59.7815 71.885C61.1693 71.8178 62.5535 71.7983 63.8999 72.2284L63.9017 72.2266Z" fill="white"/>
<path d="M99.8496 61.2721C98.4906 60.9057 97.1298 60.5393 95.7708 60.1747C95.589 58.4631 97.1352 57.9091 98.0442 56.9444C98.5752 56.3798 99.2412 55.9355 99.846 55.4364C100.753 55.9816 100.948 57.2241 102.031 57.5976C101.394 58.8737 100.287 59.8809 99.8514 61.2739L99.8496 61.2721Z" fill="white"/>
<path d="M103.838 91.7922C103.838 90.7231 103.827 89.6523 103.844 88.5832C103.849 88.1602 103.858 87.6752 104.481 87.6929C104.969 87.7071 105.041 88.0929 105.042 88.4699C105.053 90.2275 105.057 91.9851 105.051 93.741C105.051 94.0383 105.037 94.3605 104.675 94.4844C104.178 94.6543 103.835 94.3693 103.561 94.0383C102.555 92.8188 101.572 91.5816 100.445 90.1833C99.9017 91.3656 100.242 92.4436 100.137 93.4684C100.089 93.9375 100.188 94.5375 99.4499 94.5074C98.7227 94.4791 98.8325 93.8702 98.8271 93.4118C98.8091 91.8365 98.8181 90.2612 98.8235 88.6859C98.8235 88.2628 98.8037 87.7973 99.3653 87.6752C99.8477 87.569 100.184 87.8221 100.469 88.1796C101.448 89.4133 102.431 90.6435 103.412 91.8754L103.838 91.794V91.7922Z" fill="white"/>
<path d="M116.111 93.9905C116.127 94.3392 116.01 94.5073 115.715 94.5427C115.384 94.5817 115.15 94.4578 114.914 94.2188C113.159 92.4435 112.054 92.4223 110.498 94.1356C110.227 94.4348 109.94 94.6543 109.553 94.4985C108.868 94.2224 109.357 93.7693 109.49 93.4524C110.176 91.8346 110.907 90.2346 111.632 88.6345C111.852 88.1495 111.994 87.5619 112.734 87.6061C113.346 87.6433 113.512 88.1247 113.71 88.5672C114.521 90.3939 115.33 92.2223 116.113 93.9905H116.111Z" fill="white"/>
<path d="M79.1046 94.7233C78.3486 94.7109 77.6484 94.4861 76.9896 94.1463C76.6242 93.9587 76.1148 93.7746 76.455 93.217C76.7484 92.7356 77.1588 92.8754 77.571 93.1108C77.8338 93.2613 78.12 93.41 78.4134 93.4613C79.0812 93.5799 79.9002 93.7374 80.172 92.9427C80.5068 91.9656 79.533 91.9798 78.9552 91.7479C78.5574 91.5886 78.1344 91.4877 77.7348 91.3337C76.833 90.9833 76.3416 90.3532 76.464 89.3655C76.5828 88.4009 77.2038 87.8203 78.1182 87.6504C78.705 87.5406 79.353 87.5778 79.9398 87.7052C80.4816 87.8238 81.3618 87.9283 81.081 88.7584C80.8164 89.5407 80.1576 88.9619 79.668 88.8487C78.9354 88.6787 78.039 88.4345 77.8194 89.3814C77.616 90.2594 78.5646 90.3107 79.1838 90.516C80.0406 90.801 81.027 90.8612 81.441 91.8789C82.0242 93.3091 80.91 94.6773 79.1046 94.7251V94.7233Z" fill="white"/>
<path d="M94.4929 93.5551C94.7161 94.2171 94.6549 94.4366 94.3579 94.5038C93.9619 94.5941 93.6829 94.4348 93.4093 94.1215C91.9513 92.4613 90.5293 92.4542 89.0749 94.0967C88.8067 94.3994 88.5295 94.6525 88.1443 94.4915C87.4657 94.2065 87.9859 93.7392 88.1101 93.4383C88.8013 91.7497 89.5555 90.0877 90.2881 88.415C90.6553 87.5778 91.4455 87.1247 91.9225 87.9725C92.9935 89.8753 93.7693 91.9373 94.4965 93.5551H94.4929Z" fill="white"/>
<path d="M65.2463 94.7392C64.8809 94.6578 64.4129 94.649 64.0529 94.4543C63.5345 94.1728 62.4167 94.2277 62.7983 93.2772C63.1691 92.3568 63.8027 93.2436 64.3283 93.3427C64.8035 93.433 65.2949 93.4932 65.7755 93.4825C66.1607 93.4755 66.4991 93.2489 66.5963 92.8577C66.7295 92.3214 66.3281 92.0984 65.9105 91.9497C65.3903 91.7639 64.8503 91.6293 64.3265 91.4488C63.2987 91.093 62.5733 90.4753 62.7857 89.2983C63.0017 88.0947 63.8783 87.592 65.0483 87.5725C65.5325 87.5637 66.0347 87.6433 66.5009 87.7761C66.9491 87.9035 67.5881 88.0398 67.4279 88.6788C67.2497 89.3868 66.6827 89.0646 66.2165 88.9443C65.8061 88.8381 65.3813 88.7159 64.9637 88.7195C64.5119 88.723 64.1033 88.9584 64.0601 89.4611C64.0241 89.8717 64.3517 90.1195 64.6991 90.2611C65.0951 90.4222 65.5127 90.5496 65.9321 90.6417C67.1453 90.9107 68.0309 91.4984 67.8671 92.8577C67.6925 94.3056 66.5423 94.6047 65.2481 94.7428L65.2463 94.7392Z" fill="white"/>
<path d="M69.0895 90.3674C69.0895 90.0647 69.0211 89.7408 69.1039 89.4629C69.2839 88.8611 68.5801 87.7018 69.7555 87.7584C70.7437 87.8062 70.2775 88.916 70.3441 89.5638C70.4251 90.3444 70.3369 91.1391 70.3963 91.9232C70.4701 92.895 71.0011 93.5127 72.0397 93.5286C73.1431 93.5445 73.7839 92.9516 73.8469 91.8825C73.9135 90.7356 73.8739 89.5815 73.8919 88.431C73.8973 88.0452 73.9909 87.6841 74.4841 87.6894C74.9755 87.6947 75.0673 88.0646 75.0691 88.4434C75.0727 89.7143 75.1537 90.9957 75.0277 92.256C74.8657 93.8915 73.6597 94.7871 71.9443 94.7304C70.2379 94.6738 69.2245 93.7145 69.1021 92.0046C69.0643 91.463 69.0967 90.9143 69.0967 90.3692C69.0949 90.3692 69.0913 90.3692 69.0895 90.3692V90.3674Z" fill="white"/>
<path d="M85.3325 87.6132C85.7015 87.6132 86.0795 87.5654 86.4395 87.6238C86.9795 87.7123 87.8669 87.2769 87.9335 88.1796C87.9965 89.0203 87.1433 88.723 86.6627 88.7708C85.8941 88.8487 85.8203 89.3248 85.8239 89.916C85.8293 91.1266 85.8312 92.3391 85.8114 93.5498C85.8042 93.9533 85.8761 94.4684 85.2479 94.4967C84.6215 94.525 84.6179 94.0401 84.6107 93.6135C84.5963 92.6453 84.5747 91.6753 84.6035 90.7072C84.6359 89.6275 84.7097 88.5725 83.0771 88.746C82.7765 88.7779 82.4508 88.6681 82.4202 88.2769C82.3842 87.7973 82.7171 87.6504 83.1149 87.6397C83.8529 87.6203 84.5927 87.6344 85.3307 87.6344C85.3307 87.6274 85.3307 87.6203 85.3307 87.615L85.3325 87.6132Z" fill="white"/>
<path d="M97.1047 91.1568C97.1047 92.0577 97.1101 92.9604 97.1029 93.8613C97.0993 94.1905 96.9517 94.4543 96.5935 94.4914C96.1327 94.5392 95.9239 94.2578 95.9203 93.8436C95.9059 92.04 95.8987 90.2364 95.9023 88.4345C95.9023 88.0433 96.0625 87.7088 96.5251 87.7141C96.9895 87.7194 97.1209 88.0593 97.1245 88.4522C97.1317 89.3531 97.1263 90.2558 97.1263 91.1568C97.1191 91.1568 97.1119 91.1568 97.1047 91.1568Z" fill="white"/>
<path d="M107.984 91.1585C107.984 92.063 107.991 92.9675 107.98 93.8702C107.977 94.1888 107.858 94.4596 107.478 94.4967C107.001 94.5445 106.808 94.256 106.807 93.8525C106.792 92.0435 106.792 90.2363 106.801 88.4274C106.803 88.0469 106.925 87.6893 107.408 87.6964C107.89 87.7035 107.987 88.061 107.991 88.4451C107.998 89.3496 107.993 90.254 107.993 91.1585C107.989 91.1585 107.987 91.1585 107.984 91.1585Z" fill="white"/>
<path d="M112.397 89.0753C113.146 90.1868 113.853 90.847 113.445 91.6772C113.256 92.0612 112.23 92.0701 111.956 91.709C111.301 90.8453 112.426 90.3054 112.397 89.0753Z" fill="black"/>
<path d="M92.1707 91.1514C92.2697 91.9798 91.6739 91.8665 91.2221 91.8559C90.7883 91.847 90.0791 91.9993 90.2969 91.2098C90.4607 90.6151 90.6263 89.6469 91.2131 89.6363C91.8881 89.6257 91.8629 90.6381 92.1707 91.1514Z" fill="black"/>
</svg>
