<svg width="318" height="202" viewBox="0 0 318 202" fill="none" xmlns="http://www.w3.org/2000/svg">
<rect x="0.5" y="0.5" width="317" height="201" fill="white" stroke="#EAEAEA"/>
<rect x="73" y="34" width="20" height="20" fill="#52B37F"/>
<path d="M82.9783 37.2479L84.6621 42.4303H90.1112L85.7028 45.6332L87.3867 50.8156L82.9783 47.6127L78.5699 50.8156L80.2537 45.6332L75.8453 42.4303H81.2944L82.9783 37.2479Z" fill="white"/>
<path d="M81.9581 48.3479L86.2563 45.2114L87.036 46.758L81.9581 48.3479Z" fill="#52B37F"/>
<rect x="95" y="34" width="20" height="20" fill="#52B37F"/>
<path d="M104.978 37.2479L106.662 42.4303H112.111L107.703 45.6332L109.387 50.8156L104.978 47.6127L100.57 50.8156L102.254 45.6332L97.8453 42.4303H103.294L104.978 37.2479Z" fill="white"/>
<path d="M103.958 48.3479L108.256 45.2114L109.036 46.758L103.958 48.3479Z" fill="#52B37F"/>
<rect x="117" y="34" width="20" height="20" fill="#52B37F"/>
<path d="M126.978 37.2479L128.662 42.4303H134.111L129.703 45.6332L131.387 50.8156L126.978 47.6127L122.57 50.8156L124.254 45.6332L119.845 42.4303H125.294L126.978 37.2479Z" fill="white"/>
<path d="M125.958 48.3479L130.256 45.2114L131.036 46.758L125.958 48.3479Z" fill="#52B37F"/>
<rect x="139" y="34" width="20" height="20" fill="#52B37F"/>
<path d="M148.978 37.2479L150.662 42.4303H156.111L151.703 45.6332L153.387 50.8156L148.978 47.6127L144.57 50.8156L146.254 45.6332L141.845 42.4303H147.294L148.978 37.2479Z" fill="white"/>
<path d="M147.958 48.3479L152.256 45.2114L153.036 46.758L147.958 48.3479Z" fill="#52B37F"/>
<rect x="161" y="34" width="20" height="20" fill="#52B37F"/>
<path d="M170.978 37.2479L172.662 42.4303H178.111L173.703 45.6332L175.387 50.8156L170.978 47.6127L166.57 50.8156L168.254 45.6332L163.845 42.4303H169.294L170.978 37.2479Z" fill="white"/>
<path d="M169.958 48.3479L174.256 45.2114L175.036 46.758L169.958 48.3479Z" fill="#52B37F"/>
<circle cx="44" cy="44" r="20" fill="#4BC7D8"/>
<path d="M39.3711 52V34.8672H43.0039V49H49.9531V52H39.3711Z" fill="white"/>
<path d="M25.2748 83V74.4336H27.0912V81.5H30.5658V83H25.2748ZM33.5745 76.4492V83H31.7874V76.4492H33.5745ZM32.6838 73.8828C32.9495 73.8828 33.178 73.9453 33.3694 74.0703C33.5608 74.1914 33.6565 74.4199 33.6565 74.7559C33.6565 75.0879 33.5608 75.3184 33.3694 75.4473C33.178 75.5723 32.9495 75.6348 32.6838 75.6348C32.4143 75.6348 32.1838 75.5723 31.9924 75.4473C31.8049 75.3184 31.7112 75.0879 31.7112 74.7559C31.7112 74.4199 31.8049 74.1914 31.9924 74.0703C32.1838 73.9453 32.4143 73.8828 32.6838 73.8828ZM39.044 76.3262C39.7433 76.3262 40.3058 76.5176 40.7315 76.9004C41.1573 77.2793 41.3702 77.8887 41.3702 78.7285V83H39.5831V79.1738C39.5831 78.7051 39.4972 78.3516 39.3253 78.1133C39.1573 77.875 38.8917 77.7559 38.5284 77.7559C37.9815 77.7559 37.6085 77.9414 37.4093 78.3125C37.21 78.6836 37.1104 79.2188 37.1104 79.918V83H35.3233V76.4492H36.6886L36.9288 77.2871H37.0284C37.169 77.0605 37.3429 76.877 37.5499 76.7363C37.7608 76.5957 37.9933 76.4922 38.2472 76.4258C38.505 76.3594 38.7706 76.3262 39.044 76.3262ZM46.7988 76.3262C47.498 76.3262 48.0605 76.5176 48.4863 76.9004C48.912 77.2793 49.1249 77.8887 49.1249 78.7285V83H47.3378V79.1738C47.3378 78.7051 47.2519 78.3516 47.08 78.1133C46.912 77.875 46.6464 77.7559 46.2831 77.7559C45.7363 77.7559 45.3632 77.9414 45.164 78.3125C44.9648 78.6836 44.8652 79.2188 44.8652 79.918V83H43.078V76.4492H44.4433L44.6835 77.2871H44.7831C44.9238 77.0605 45.0976 76.877 45.3046 76.7363C45.5155 76.5957 45.748 76.4922 46.0019 76.4258C46.2597 76.3594 46.5253 76.3262 46.7988 76.3262ZM53.9586 83V74.4336H55.775V81.5H59.2496V83H53.9586ZM59.9438 85.8828C59.7406 85.8828 59.5297 85.8672 59.311 85.8359C59.0922 85.8086 58.9106 85.7754 58.766 85.7363V84.3301C58.9106 84.3691 59.0473 84.3965 59.1762 84.4121C59.3012 84.4316 59.4438 84.4414 59.6039 84.4414C59.8461 84.4414 60.0512 84.373 60.2192 84.2363C60.3871 84.1035 60.4711 83.8398 60.4711 83.4453V76.4492H62.2582V83.709C62.2582 84.1074 62.182 84.4707 62.0297 84.7988C61.8774 85.1309 61.6313 85.3945 61.2914 85.5898C60.9516 85.7852 60.5024 85.8828 59.9438 85.8828ZM60.3949 74.7559C60.3949 74.4199 60.4887 74.1914 60.6762 74.0703C60.8676 73.9453 61.0981 73.8828 61.3676 73.8828C61.6332 73.8828 61.8617 73.9453 62.0531 74.0703C62.2445 74.1914 62.3403 74.4199 62.3403 74.7559C62.3403 75.0879 62.2445 75.3184 62.0531 75.4473C61.8617 75.5723 61.6332 75.6348 61.3676 75.6348C61.0981 75.6348 60.8676 75.5723 60.6762 75.4473C60.4887 75.3184 60.3949 75.0879 60.3949 74.7559ZM70.0188 76.4492V83H68.6477L68.4075 82.1621H68.3137C68.1731 82.3848 67.9973 82.5664 67.7864 82.707C67.5754 82.8477 67.343 82.9512 67.0891 83.0176C66.8352 83.084 66.5715 83.1172 66.2981 83.1172C65.8293 83.1172 65.4211 83.0352 65.0735 82.8711C64.7258 82.7031 64.4543 82.4434 64.259 82.0918C64.0676 81.7402 63.9719 81.2832 63.9719 80.7207V76.4492H65.759V80.2754C65.759 80.7441 65.843 81.0977 66.011 81.3359C66.179 81.5742 66.4465 81.6934 66.8137 81.6934C67.177 81.6934 67.4622 81.6113 67.6692 81.4473C67.8762 81.2793 68.0208 81.0352 68.1028 80.7148C68.1887 80.3906 68.2317 79.9961 68.2317 79.5312V76.4492H70.0188ZM75.4825 76.3262C76.1817 76.3262 76.7442 76.5176 77.17 76.9004C77.5958 77.2793 77.8087 77.8887 77.8087 78.7285V83H76.0216V79.1738C76.0216 78.7051 75.9356 78.3516 75.7638 78.1133C75.5958 77.875 75.3302 77.7559 74.9669 77.7559C74.42 77.7559 74.047 77.9414 73.8477 78.3125C73.6485 78.6836 73.5489 79.2188 73.5489 79.918V83H71.7618V76.4492H73.127L73.3673 77.2871H73.4669C73.6075 77.0605 73.7813 76.877 73.9884 76.7363C74.1993 76.5957 74.4317 76.4922 74.6856 76.4258C74.9434 76.3594 75.2091 76.3262 75.4825 76.3262ZM81.4325 85.8828C80.5185 85.8828 79.8193 85.7227 79.3349 85.4023C78.8544 85.0859 78.6142 84.6406 78.6142 84.0664C78.6142 83.6719 78.7372 83.3418 78.9833 83.0762C79.2294 82.8105 79.5907 82.6211 80.0673 82.5078C79.8837 82.4297 79.7235 82.3027 79.5868 82.127C79.4501 81.9473 79.3818 81.7578 79.3818 81.5586C79.3818 81.3086 79.454 81.1016 79.5985 80.9375C79.7431 80.7695 79.9521 80.6055 80.2255 80.4453C79.8818 80.2969 79.6083 80.0586 79.4052 79.7305C79.206 79.4023 79.1064 79.0156 79.1064 78.5703C79.1064 78.0938 79.2099 77.6895 79.4169 77.3574C79.6278 77.0215 79.9325 76.7656 80.331 76.5898C80.7333 76.4141 81.2216 76.3262 81.7958 76.3262C81.9169 76.3262 82.0575 76.334 82.2177 76.3496C82.3778 76.3652 82.5243 76.3828 82.6571 76.4023C82.7939 76.4219 82.8857 76.4375 82.9325 76.4492H85.2177V77.3574L84.1923 77.6211C84.286 77.7656 84.3564 77.9199 84.4032 78.084C84.4501 78.248 84.4735 78.4219 84.4735 78.6055C84.4735 79.3086 84.2275 79.8574 83.7353 80.252C83.247 80.6426 82.5673 80.8379 81.6962 80.8379C81.4892 80.8262 81.2939 80.8105 81.1103 80.791C81.0204 80.8613 80.9521 80.9355 80.9052 81.0137C80.8583 81.0918 80.8349 81.1738 80.8349 81.2598C80.8349 81.3457 80.87 81.418 80.9403 81.4766C81.0146 81.5312 81.1239 81.5742 81.2685 81.6055C81.4169 81.6328 81.6005 81.6465 81.8193 81.6465H82.9325C83.6513 81.6465 84.1982 81.8008 84.5732 82.1094C84.9521 82.418 85.1415 82.8711 85.1415 83.4688C85.1415 84.2344 84.8212 84.8281 84.1806 85.25C83.5439 85.6719 82.6278 85.8828 81.4325 85.8828ZM81.5087 84.7168C81.9345 84.7168 82.2997 84.6758 82.6044 84.5938C82.913 84.5156 83.1493 84.4023 83.3134 84.2539C83.4775 84.1094 83.5595 83.9355 83.5595 83.7324C83.5595 83.5684 83.5107 83.4375 83.413 83.3398C83.3193 83.2461 83.1747 83.1797 82.9794 83.1406C82.788 83.1016 82.5419 83.082 82.2411 83.082H81.3153C81.0966 83.082 80.8993 83.1172 80.7235 83.1875C80.5517 83.2578 80.415 83.3555 80.3134 83.4805C80.2118 83.6094 80.161 83.7578 80.161 83.9258C80.161 84.1719 80.2782 84.3652 80.5126 84.5059C80.7509 84.6465 81.0829 84.7168 81.5087 84.7168ZM81.7958 79.748C82.1318 79.748 82.3778 79.6445 82.5341 79.4375C82.6903 79.2305 82.7685 78.9492 82.7685 78.5938C82.7685 78.1992 82.6864 77.9043 82.5224 77.709C82.3622 77.5098 82.12 77.4102 81.7958 77.4102C81.4677 77.4102 81.2216 77.5098 81.0575 77.709C80.8935 77.9043 80.8114 78.1992 80.8114 78.5938C80.8114 78.9492 80.8915 79.2305 81.0517 79.4375C81.2157 79.6445 81.4638 79.748 81.7958 79.748ZM88.8533 76.3145C89.7322 76.3145 90.406 76.5059 90.8748 76.8887C91.3435 77.2715 91.5779 77.8535 91.5779 78.6348V83H90.3298L89.9841 82.1094H89.9373C89.7498 82.3438 89.5583 82.5352 89.363 82.6836C89.1677 82.832 88.9431 82.9414 88.6892 83.0117C88.4353 83.082 88.1267 83.1172 87.7634 83.1172C87.3767 83.1172 87.029 83.043 86.7205 82.8945C86.4158 82.7461 86.1755 82.5195 85.9998 82.2148C85.824 81.9062 85.7361 81.5156 85.7361 81.043C85.7361 80.3477 85.9802 79.8359 86.4685 79.5078C86.9568 79.1758 87.6892 78.9922 88.6658 78.957L89.8025 78.9219V78.6348C89.8025 78.291 89.7126 78.0391 89.533 77.8789C89.3533 77.7188 89.1033 77.6387 88.783 77.6387C88.4665 77.6387 88.156 77.6836 87.8513 77.7734C87.5466 77.8633 87.2419 77.9766 86.9373 78.1133L86.3455 76.9062C86.6931 76.7227 87.0818 76.5781 87.5115 76.4727C87.9451 76.3672 88.3923 76.3145 88.8533 76.3145ZM89.8025 79.9648L89.1111 79.9883C88.533 80.0039 88.1306 80.1074 87.904 80.2988C87.6814 80.4902 87.5701 80.7422 87.5701 81.0547C87.5701 81.3281 87.6501 81.5234 87.8103 81.6406C87.9705 81.7539 88.1794 81.8105 88.4373 81.8105C88.8201 81.8105 89.1423 81.6973 89.404 81.4707C89.6697 81.2441 89.8025 80.9219 89.8025 80.5039V79.9648ZM96.9478 76.3262C97.0377 76.3262 97.1412 76.332 97.2584 76.3438C97.3795 76.3516 97.4771 76.3633 97.5513 76.3789L97.4166 78.0547C97.358 78.0352 97.274 78.0215 97.1646 78.0137C97.0592 78.002 96.9674 77.9961 96.8892 77.9961C96.6588 77.9961 96.4342 78.0254 96.2154 78.084C96.0006 78.1426 95.8072 78.2383 95.6353 78.3711C95.4635 78.5 95.3267 78.6719 95.2252 78.8867C95.1275 79.0977 95.0787 79.3574 95.0787 79.666V83H93.2916V76.4492H94.6451L94.9088 77.5508H94.9967C95.1256 77.3281 95.2857 77.125 95.4771 76.9414C95.6724 76.7539 95.8931 76.6055 96.1392 76.4961C96.3892 76.3828 96.6588 76.3262 96.9478 76.3262Z" fill="black"/>
<path d="M103.783 73.8828V75.7402C103.783 76.0645 103.771 76.373 103.748 76.666C103.728 76.959 103.713 77.166 103.701 77.2871H103.795C103.935 77.0605 104.101 76.877 104.293 76.7363C104.488 76.5957 104.703 76.4922 104.937 76.4258C105.172 76.3594 105.424 76.3262 105.693 76.3262C106.166 76.3262 106.578 76.4102 106.93 76.5781C107.281 76.7422 107.555 77.002 107.75 77.3574C107.945 77.709 108.043 78.166 108.043 78.7285V83H106.256V79.1738C106.256 78.7051 106.17 78.3516 105.998 78.1133C105.826 77.875 105.56 77.7559 105.201 77.7559C104.842 77.7559 104.558 77.8398 104.351 78.0078C104.144 78.1719 103.998 78.416 103.912 78.7402C103.826 79.0605 103.783 79.4531 103.783 79.918V83H101.996V73.8828H103.783ZM112.434 76.3145C113.313 76.3145 113.987 76.5059 114.456 76.8887C114.924 77.2715 115.159 77.8535 115.159 78.6348V83H113.911L113.565 82.1094H113.518C113.331 82.3438 113.139 82.5352 112.944 82.6836C112.749 82.832 112.524 82.9414 112.27 83.0117C112.016 83.082 111.708 83.1172 111.344 83.1172C110.958 83.1172 110.61 83.043 110.301 82.8945C109.997 82.7461 109.757 82.5195 109.581 82.2148C109.405 81.9062 109.317 81.5156 109.317 81.043C109.317 80.3477 109.561 79.8359 110.049 79.5078C110.538 79.1758 111.27 78.9922 112.247 78.957L113.383 78.9219V78.6348C113.383 78.291 113.294 78.0391 113.114 77.8789C112.934 77.7188 112.684 77.6387 112.364 77.6387C112.048 77.6387 111.737 77.6836 111.432 77.7734C111.128 77.8633 110.823 77.9766 110.518 78.1133L109.926 76.9062C110.274 76.7227 110.663 76.5781 111.092 76.4727C111.526 76.3672 111.973 76.3145 112.434 76.3145ZM113.383 79.9648L112.692 79.9883C112.114 80.0039 111.712 80.1074 111.485 80.2988C111.262 80.4902 111.151 80.7422 111.151 81.0547C111.151 81.3281 111.231 81.5234 111.391 81.6406C111.551 81.7539 111.76 81.8105 112.018 81.8105C112.401 81.8105 112.723 81.6973 112.985 81.4707C113.251 81.2441 113.383 80.9219 113.383 80.5039V79.9648ZM120.529 76.3262C120.619 76.3262 120.722 76.332 120.839 76.3438C120.96 76.3516 121.058 76.3633 121.132 76.3789L120.998 78.0547C120.939 78.0352 120.855 78.0215 120.746 78.0137C120.64 78.002 120.548 77.9961 120.47 77.9961C120.24 77.9961 120.015 78.0254 119.796 78.084C119.582 78.1426 119.388 78.2383 119.216 78.3711C119.044 78.5 118.908 78.6719 118.806 78.8867C118.708 79.0977 118.66 79.3574 118.66 79.666V83H116.873V76.4492H118.226L118.49 77.5508H118.578C118.707 77.3281 118.867 77.125 119.058 76.9414C119.253 76.7539 119.474 76.6055 119.72 76.4961C119.97 76.3828 120.24 76.3262 120.529 76.3262ZM127.859 76.3145C128.737 76.3145 129.411 76.5059 129.88 76.8887C130.349 77.2715 130.583 77.8535 130.583 78.6348V83H129.335L128.989 82.1094H128.943C128.755 82.3438 128.564 82.5352 128.368 82.6836C128.173 82.832 127.948 82.9414 127.694 83.0117C127.441 83.082 127.132 83.1172 126.769 83.1172C126.382 83.1172 126.034 83.043 125.726 82.8945C125.421 82.7461 125.181 82.5195 125.005 82.2148C124.829 81.9062 124.741 81.5156 124.741 81.043C124.741 80.3477 124.986 79.8359 125.474 79.5078C125.962 79.1758 126.694 78.9922 127.671 78.957L128.808 78.9219V78.6348C128.808 78.291 128.718 78.0391 128.538 77.8789C128.359 77.7188 128.109 77.6387 127.788 77.6387C127.472 77.6387 127.161 77.6836 126.857 77.7734C126.552 77.8633 126.247 77.9766 125.943 78.1133L125.351 76.9062C125.698 76.7227 126.087 76.5781 126.517 76.4727C126.95 76.3672 127.398 76.3145 127.859 76.3145ZM128.808 79.9648L128.116 79.9883C127.538 80.0039 127.136 80.1074 126.909 80.2988C126.687 80.4902 126.575 80.7422 126.575 81.0547C126.575 81.3281 126.655 81.5234 126.816 81.6406C126.976 81.7539 127.185 81.8105 127.443 81.8105C127.825 81.8105 128.148 81.6973 128.409 81.4707C128.675 81.2441 128.808 80.9219 128.808 80.5039V79.9648ZM136.018 76.3262C136.717 76.3262 137.279 76.5176 137.705 76.9004C138.131 77.2793 138.344 77.8887 138.344 78.7285V83H136.557V79.1738C136.557 78.7051 136.471 78.3516 136.299 78.1133C136.131 77.875 135.865 77.7559 135.502 77.7559C134.955 77.7559 134.582 77.9414 134.383 78.3125C134.184 78.6836 134.084 79.2188 134.084 79.918V83H132.297V76.4492H133.662L133.902 77.2871H134.002C134.143 77.0605 134.316 76.877 134.523 76.7363C134.734 76.5957 134.967 76.4922 135.221 76.4258C135.479 76.3594 135.744 76.3262 136.018 76.3262ZM147.745 76.3262C148.487 76.3262 149.048 76.5176 149.427 76.9004C149.809 77.2793 150.001 77.8887 150.001 78.7285V83H148.208V79.1738C148.208 78.7051 148.128 78.3516 147.968 78.1133C147.807 77.875 147.559 77.7559 147.223 77.7559C146.751 77.7559 146.415 77.9258 146.216 78.2656C146.016 78.6016 145.917 79.084 145.917 79.7129V83H144.13V79.1738C144.13 78.8613 144.095 78.5996 144.024 78.3887C143.954 78.1777 143.847 78.0195 143.702 77.9141C143.557 77.8086 143.372 77.7559 143.145 77.7559C142.813 77.7559 142.552 77.8398 142.36 78.0078C142.173 78.1719 142.038 78.416 141.956 78.7402C141.878 79.0605 141.839 79.4531 141.839 79.918V83H140.052V76.4492H141.417L141.657 77.2871H141.757C141.889 77.0605 142.056 76.877 142.255 76.7363C142.458 76.5957 142.681 76.4922 142.923 76.4258C143.165 76.3594 143.411 76.3262 143.661 76.3262C144.141 76.3262 144.548 76.4043 144.88 76.5605C145.216 76.7168 145.473 76.959 145.653 77.2871H145.811C146.007 76.9512 146.282 76.707 146.638 76.5547C146.997 76.4023 147.366 76.3262 147.745 76.3262ZM154.41 76.3262C155.015 76.3262 155.537 76.4434 155.974 76.6777C156.412 76.9082 156.75 77.2441 156.988 77.6855C157.226 78.127 157.345 78.666 157.345 79.3027V80.1699H153.121C153.14 80.6738 153.291 81.0703 153.572 81.3594C153.857 81.6445 154.252 81.7871 154.756 81.7871C155.174 81.7871 155.556 81.7441 155.904 81.6582C156.252 81.5723 156.609 81.4434 156.976 81.2715V82.6543C156.652 82.8145 156.312 82.9316 155.957 83.0059C155.605 83.0801 155.177 83.1172 154.674 83.1172C154.017 83.1172 153.435 82.9961 152.927 82.7539C152.424 82.5117 152.027 82.1426 151.738 81.6465C151.453 81.1504 151.31 80.5254 151.31 79.7715C151.31 79.0059 151.439 78.3691 151.697 77.8613C151.959 77.3496 152.322 76.9668 152.787 76.7129C153.252 76.4551 153.793 76.3262 154.41 76.3262ZM154.422 77.5977C154.074 77.5977 153.785 77.709 153.554 77.9316C153.328 78.1543 153.197 78.5039 153.162 78.9805H155.67C155.666 78.7148 155.617 78.4785 155.523 78.2715C155.433 78.0645 155.297 77.9004 155.113 77.7793C154.933 77.6582 154.703 77.5977 154.422 77.5977ZM160.454 83H158.667V73.8828H160.454V83ZM164.277 83.1172C163.546 83.1172 162.951 82.832 162.49 82.2617C162.033 81.6875 161.804 80.8457 161.804 79.7363C161.804 78.6152 162.036 77.7676 162.501 77.1934C162.966 76.6152 163.574 76.3262 164.324 76.3262C164.636 76.3262 164.911 76.3691 165.15 76.4551C165.388 76.541 165.593 76.6562 165.765 76.8008C165.941 76.9453 166.089 77.1074 166.21 77.2871H166.269C166.245 77.1621 166.216 76.9785 166.181 76.7363C166.15 76.4902 166.134 76.2383 166.134 75.9805V73.8828H167.927V83H166.556L166.21 82.1504H166.134C166.021 82.3301 165.878 82.4941 165.706 82.6426C165.538 82.7871 165.337 82.9023 165.103 82.9883C164.868 83.0742 164.593 83.1172 164.277 83.1172ZM164.904 81.6934C165.392 81.6934 165.736 81.5488 165.935 81.2598C166.138 80.9668 166.245 80.5273 166.257 79.9414V79.748C166.257 79.1113 166.16 78.625 165.964 78.2891C165.769 77.9492 165.406 77.7793 164.874 77.7793C164.48 77.7793 164.171 77.9492 163.949 78.2891C163.726 78.6289 163.615 79.1191 163.615 79.7598C163.615 80.4004 163.726 80.8828 163.949 81.207C164.175 81.5312 164.493 81.6934 164.904 81.6934ZM172.424 81.6934C172.619 81.6934 172.809 81.6738 172.992 81.6348C173.18 81.5957 173.365 81.5469 173.549 81.4883V82.8184C173.358 82.9043 173.119 82.9746 172.834 83.0293C172.553 83.0879 172.244 83.1172 171.908 83.1172C171.518 83.1172 171.166 83.0547 170.854 82.9297C170.545 82.8008 170.301 82.5801 170.121 82.2676C169.945 81.9512 169.858 81.5117 169.858 80.9492V77.791H169.002V77.0352L169.986 76.4375L170.502 75.0547H171.645V76.4492H173.479V77.791H171.645V80.9492C171.645 81.1992 171.715 81.3867 171.856 81.5117C172 81.6328 172.19 81.6934 172.424 81.6934Z" fill="#797A7A"/>
<path d="M178.527 74.4336H181.193C182.334 74.4336 183.197 74.5938 183.783 74.9141C184.369 75.2344 184.662 75.7969 184.662 76.6016C184.662 76.9258 184.609 77.2188 184.504 77.4805C184.402 77.7422 184.254 77.957 184.058 78.125C183.863 78.293 183.625 78.4023 183.344 78.4531V78.5117C183.629 78.5703 183.887 78.6719 184.117 78.8164C184.347 78.957 184.531 79.1641 184.668 79.4375C184.808 79.707 184.879 80.0664 184.879 80.5156C184.879 81.0352 184.752 81.4805 184.498 81.8516C184.244 82.2227 183.881 82.5078 183.408 82.707C182.939 82.9023 182.381 83 181.732 83H178.527V74.4336ZM180.344 77.8262H181.398C181.926 77.8262 182.291 77.7441 182.494 77.5801C182.697 77.4121 182.799 77.166 182.799 76.8418C182.799 76.5137 182.678 76.2793 182.435 76.1387C182.197 75.9941 181.818 75.9219 181.299 75.9219H180.344V77.8262ZM180.344 79.2676V81.5H181.527C182.074 81.5 182.455 81.3945 182.67 81.1836C182.885 80.9727 182.992 80.6895 182.992 80.334C182.992 80.123 182.945 79.9375 182.851 79.7773C182.758 79.6172 182.599 79.4922 182.377 79.4023C182.158 79.3125 181.855 79.2676 181.469 79.2676H180.344ZM188.104 83H186.317V73.8828H188.104V83ZM195.806 79.7129C195.806 80.2598 195.732 80.7441 195.583 81.166C195.439 81.5879 195.226 81.9453 194.945 82.2383C194.667 82.5273 194.332 82.7461 193.937 82.8945C193.546 83.043 193.105 83.1172 192.613 83.1172C192.152 83.1172 191.728 83.043 191.341 82.8945C190.958 82.7461 190.625 82.5273 190.339 82.2383C190.058 81.9453 189.839 81.5879 189.683 81.166C189.531 80.7441 189.455 80.2598 189.455 79.7129C189.455 78.9863 189.583 78.3711 189.841 77.8672C190.099 77.3633 190.466 76.9805 190.943 76.7188C191.419 76.457 191.988 76.3262 192.648 76.3262C193.261 76.3262 193.804 76.457 194.277 76.7188C194.753 76.9805 195.126 77.3633 195.396 77.8672C195.669 78.3711 195.806 78.9863 195.806 79.7129ZM191.277 79.7129C191.277 80.1426 191.324 80.5039 191.417 80.7969C191.511 81.0898 191.658 81.3105 191.857 81.459C192.056 81.6074 192.316 81.6816 192.636 81.6816C192.953 81.6816 193.208 81.6074 193.404 81.459C193.603 81.3105 193.748 81.0898 193.837 80.7969C193.931 80.5039 193.978 80.1426 193.978 79.7129C193.978 79.2793 193.931 78.9199 193.837 78.6348C193.748 78.3457 193.603 78.1289 193.404 77.9844C193.205 77.8398 192.945 77.7676 192.625 77.7676C192.152 77.7676 191.808 77.9297 191.593 78.2539C191.382 78.5781 191.277 79.0645 191.277 79.7129ZM203.104 79.7129C203.104 80.2598 203.03 80.7441 202.881 81.166C202.737 81.5879 202.524 81.9453 202.243 82.2383C201.965 82.5273 201.629 82.7461 201.235 82.8945C200.844 83.043 200.403 83.1172 199.91 83.1172C199.45 83.1172 199.026 83.043 198.639 82.8945C198.256 82.7461 197.922 82.5273 197.637 82.2383C197.356 81.9453 197.137 81.5879 196.981 81.166C196.828 80.7441 196.752 80.2598 196.752 79.7129C196.752 78.9863 196.881 78.3711 197.139 77.8672C197.397 77.3633 197.764 76.9805 198.241 76.7188C198.717 76.457 199.285 76.3262 199.946 76.3262C200.559 76.3262 201.102 76.457 201.575 76.7188C202.051 76.9805 202.424 77.3633 202.694 77.8672C202.967 78.3711 203.104 78.9863 203.104 79.7129ZM198.575 79.7129C198.575 80.1426 198.621 80.5039 198.715 80.7969C198.809 81.0898 198.955 81.3105 199.155 81.459C199.354 81.6074 199.614 81.6816 199.934 81.6816C200.25 81.6816 200.506 81.6074 200.701 81.459C200.901 81.3105 201.045 81.0898 201.135 80.7969C201.229 80.5039 201.276 80.1426 201.276 79.7129C201.276 79.2793 201.229 78.9199 201.135 78.6348C201.045 78.3457 200.901 78.1289 200.701 77.9844C200.502 77.8398 200.243 77.7676 199.922 77.7676C199.45 77.7676 199.106 77.9297 198.891 78.2539C198.68 78.5781 198.575 79.0645 198.575 79.7129ZM212.142 76.3262C212.884 76.3262 213.444 76.5176 213.823 76.9004C214.206 77.2793 214.398 77.8887 214.398 78.7285V83H212.605V79.1738C212.605 78.7051 212.525 78.3516 212.364 78.1133C212.204 77.875 211.956 77.7559 211.62 77.7559C211.148 77.7559 210.812 77.9258 210.612 78.2656C210.413 78.6016 210.314 79.084 210.314 79.7129V83H208.527V79.1738C208.527 78.8613 208.491 78.5996 208.421 78.3887C208.351 78.1777 208.243 78.0195 208.099 77.9141C207.954 77.8086 207.769 77.7559 207.542 77.7559C207.21 77.7559 206.948 77.8398 206.757 78.0078C206.569 78.1719 206.435 78.416 206.353 78.7402C206.275 79.0605 206.236 79.4531 206.236 79.918V83H204.448V76.4492H205.814L206.054 77.2871H206.153C206.286 77.0605 206.452 76.877 206.652 76.7363C206.855 76.5957 207.077 76.4922 207.319 76.4258C207.562 76.3594 207.808 76.3262 208.058 76.3262C208.538 76.3262 208.944 76.4043 209.277 76.5605C209.612 76.7168 209.87 76.959 210.05 77.2871H210.208C210.403 76.9512 210.679 76.707 211.034 76.5547C211.394 76.4023 211.763 76.3262 212.142 76.3262ZM222.858 83L220.796 76.2793H220.743C220.751 76.4395 220.763 76.6816 220.778 77.0059C220.798 77.3262 220.815 77.668 220.831 78.0312C220.847 78.3945 220.854 78.7227 220.854 79.0156V83H219.231V74.4336H221.704L223.731 80.9844H223.766L225.917 74.4336H228.389V83H226.696V78.9453C226.696 78.6758 226.7 78.3652 226.708 78.0137C226.72 77.6621 226.733 77.3281 226.749 77.0117C226.764 76.6914 226.776 76.4512 226.784 76.291H226.731L224.522 83H222.858ZM232.98 76.3262C233.586 76.3262 234.107 76.4434 234.545 76.6777C234.982 76.9082 235.32 77.2441 235.558 77.6855C235.797 78.127 235.916 78.666 235.916 79.3027V80.1699H231.691C231.711 80.6738 231.861 81.0703 232.142 81.3594C232.427 81.6445 232.822 81.7871 233.326 81.7871C233.744 81.7871 234.127 81.7441 234.474 81.6582C234.822 81.5723 235.179 81.4434 235.547 81.2715V82.6543C235.222 82.8145 234.882 82.9316 234.527 83.0059C234.175 83.0801 233.748 83.1172 233.244 83.1172C232.588 83.1172 232.006 82.9961 231.498 82.7539C230.994 82.5117 230.597 82.1426 230.308 81.6465C230.023 81.1504 229.881 80.5254 229.881 79.7715C229.881 79.0059 230.009 78.3691 230.267 77.8613C230.529 77.3496 230.892 76.9668 231.357 76.7129C231.822 76.4551 232.363 76.3262 232.98 76.3262ZM232.992 77.5977C232.644 77.5977 232.355 77.709 232.125 77.9316C231.898 78.1543 231.767 78.5039 231.732 78.9805H234.24C234.236 78.7148 234.187 78.4785 234.093 78.2715C234.004 78.0645 233.867 77.9004 233.683 77.7793C233.504 77.6582 233.273 77.5977 232.992 77.5977ZM239.311 83.1172C238.581 83.1172 237.985 82.832 237.524 82.2617C237.067 81.6875 236.838 80.8457 236.838 79.7363C236.838 78.6152 237.071 77.7676 237.536 77.1934C238 76.6152 238.608 76.3262 239.358 76.3262C239.67 76.3262 239.946 76.3691 240.184 76.4551C240.422 76.541 240.627 76.6562 240.799 76.8008C240.975 76.9453 241.124 77.1074 241.245 77.2871H241.303C241.28 77.1621 241.25 76.9785 241.215 76.7363C241.184 76.4902 241.168 76.2383 241.168 75.9805V73.8828H242.961V83H241.59L241.245 82.1504H241.168C241.055 82.3301 240.913 82.4941 240.741 82.6426C240.573 82.7871 240.372 82.9023 240.137 82.9883C239.903 83.0742 239.627 83.1172 239.311 83.1172ZM239.938 81.6934C240.426 81.6934 240.77 81.5488 240.969 81.2598C241.172 80.9668 241.28 80.5273 241.292 79.9414V79.748C241.292 79.1113 241.194 78.625 240.999 78.2891C240.803 77.9492 240.44 77.7793 239.909 77.7793C239.514 77.7793 239.206 77.9492 238.983 78.2891C238.76 78.6289 238.649 79.1191 238.649 79.7598C238.649 80.4004 238.76 80.8828 238.983 81.207C239.209 81.5312 239.528 81.6934 239.938 81.6934ZM246.486 76.4492V83H244.699V76.4492H246.486ZM245.595 73.8828C245.861 73.8828 246.089 73.9453 246.281 74.0703C246.472 74.1914 246.568 74.4199 246.568 74.7559C246.568 75.0879 246.472 75.3184 246.281 75.4473C246.089 75.5723 245.861 75.6348 245.595 75.6348C245.326 75.6348 245.095 75.5723 244.904 75.4473C244.716 75.3184 244.622 75.0879 244.622 74.7559C244.622 74.4199 244.716 74.1914 244.904 74.0703C245.095 73.9453 245.326 73.8828 245.595 73.8828ZM250.918 76.3145C251.797 76.3145 252.471 76.5059 252.94 76.8887C253.408 77.2715 253.643 77.8535 253.643 78.6348V83H252.395L252.049 82.1094H252.002C251.815 82.3438 251.623 82.5352 251.428 82.6836C251.233 82.832 251.008 82.9414 250.754 83.0117C250.5 83.082 250.192 83.1172 249.828 83.1172C249.442 83.1172 249.094 83.043 248.785 82.8945C248.481 82.7461 248.24 82.5195 248.065 82.2148C247.889 81.9062 247.801 81.5156 247.801 81.043C247.801 80.3477 248.045 79.8359 248.533 79.5078C249.022 79.1758 249.754 78.9922 250.731 78.957L251.867 78.9219V78.6348C251.867 78.291 251.777 78.0391 251.598 77.8789C251.418 77.7188 251.168 77.6387 250.848 77.6387C250.531 77.6387 250.221 77.6836 249.916 77.7734C249.611 77.8633 249.307 77.9766 249.002 78.1133L248.41 76.9062C248.758 76.7227 249.147 76.5781 249.576 76.4727C250.01 76.3672 250.457 76.3145 250.918 76.3145ZM251.867 79.9648L251.176 79.9883C250.598 80.0039 250.195 80.1074 249.969 80.2988C249.746 80.4902 249.635 80.7422 249.635 81.0547C249.635 81.3281 249.715 81.5234 249.875 81.6406C250.035 81.7539 250.244 81.8105 250.502 81.8105C250.885 81.8105 251.207 81.6973 251.469 81.4707C251.735 81.2441 251.867 80.9219 251.867 80.5039V79.9648Z" fill="black"/>
<path d="M26.4883 122.006L26.2148 125.615H25.1826L24.916 122.006H26.4883ZM29.1816 122.006L28.915 125.615H27.8828L27.6162 122.006H29.1816ZM40.1292 126.989C40.1292 127.759 40.0312 128.461 39.8353 129.095C39.6439 129.724 39.3545 130.266 38.9671 130.722C38.5797 131.173 38.0944 131.521 37.511 131.768C36.9277 132.014 36.2441 132.137 35.4603 132.137C34.6627 132.137 33.97 132.014 33.3821 131.768C32.7988 131.521 32.3134 131.171 31.9261 130.715C31.5433 130.259 31.2562 129.715 31.0648 129.081C30.8733 128.448 30.7776 127.746 30.7776 126.976C30.7776 125.946 30.9463 125.048 31.2835 124.282C31.6253 123.512 32.1425 122.915 32.8353 122.491C33.5325 122.063 34.4121 121.849 35.4739 121.849C36.513 121.849 37.3766 122.061 38.0648 122.484C38.7529 122.908 39.2679 123.505 39.6097 124.275C39.956 125.041 40.1292 125.946 40.1292 126.989ZM32.5003 126.989C32.5003 127.759 32.6051 128.427 32.8148 128.992C33.0244 129.553 33.3457 129.986 33.7786 130.291C34.2161 130.592 34.7767 130.742 35.4603 130.742C36.1484 130.742 36.709 130.592 37.1419 130.291C37.5748 129.986 37.8939 129.553 38.0989 128.992C38.304 128.427 38.4065 127.759 38.4065 126.989C38.4065 125.818 38.1718 124.902 37.7024 124.241C37.2376 123.576 36.4948 123.243 35.4739 123.243C34.7903 123.243 34.2275 123.394 33.7855 123.694C33.348 123.995 33.0244 124.426 32.8148 124.986C32.6051 125.542 32.5003 126.21 32.5003 126.989ZM43.6871 132L40.8092 124.433H42.5113L44.0699 128.876C44.1702 129.159 44.2613 129.464 44.3434 129.792C44.4254 130.12 44.4824 130.396 44.5143 130.619H44.569C44.6009 130.387 44.6624 130.109 44.7535 129.785C44.8447 129.457 44.9381 129.154 45.0338 128.876L46.5924 124.433H48.2877L45.4098 132H43.6871ZM52.2968 124.289C52.9713 124.289 53.55 124.428 54.0331 124.706C54.5162 124.984 54.8876 125.378 55.1474 125.889C55.4071 126.399 55.537 127.01 55.537 127.721V128.582H50.4853C50.5035 129.316 50.6995 129.881 51.0732 130.277C51.4514 130.674 51.9801 130.872 52.6591 130.872C53.1422 130.872 53.5751 130.826 53.9579 130.735C54.3453 130.64 54.7441 130.501 55.1542 130.318V131.624C54.776 131.802 54.3909 131.932 53.9989 132.014C53.607 132.096 53.1376 132.137 52.5907 132.137C51.8479 132.137 51.1939 131.993 50.6288 131.706C50.0683 131.414 49.6285 130.981 49.3095 130.407C48.995 129.833 48.8378 129.12 48.8378 128.268C48.8378 127.42 48.9814 126.7 49.2685 126.107C49.5556 125.515 49.9589 125.064 50.4784 124.754C50.998 124.444 51.6041 124.289 52.2968 124.289ZM52.2968 125.499C51.7909 125.499 51.3808 125.663 51.0663 125.991C50.7564 126.319 50.5741 126.8 50.5194 127.434H53.9648C53.9602 127.055 53.8964 126.72 53.7734 126.429C53.6549 126.137 53.4726 125.909 53.2265 125.745C52.9849 125.581 52.675 125.499 52.2968 125.499ZM61.0295 124.289C61.1571 124.289 61.2961 124.296 61.4465 124.31C61.5969 124.323 61.7268 124.341 61.8361 124.364L61.6858 125.868C61.5901 125.841 61.4716 125.82 61.3303 125.807C61.1936 125.793 61.0705 125.786 60.9611 125.786C60.674 125.786 60.4006 125.834 60.1408 125.93C59.8811 126.021 59.6509 126.162 59.4504 126.354C59.2499 126.54 59.0927 126.775 58.9787 127.058C58.8648 127.34 58.8078 127.668 58.8078 128.042V132H57.1945V124.433H58.4524L58.6711 125.766H58.7463C58.8967 125.497 59.0835 125.251 59.3069 125.027C59.5302 124.804 59.7854 124.626 60.0725 124.494C60.3641 124.357 60.6832 124.289 61.0295 124.289ZM65.2437 135.363C64.2183 135.363 63.4321 135.179 62.8853 134.81C62.3384 134.44 62.065 133.923 62.065 133.258C62.065 132.793 62.2108 132.399 62.5025 132.075C62.7941 131.756 63.2111 131.535 63.7534 131.412C63.5484 131.321 63.3706 131.18 63.2202 130.988C63.0744 130.792 63.0015 130.576 63.0015 130.339C63.0015 130.056 63.0812 129.815 63.2407 129.614C63.4002 129.414 63.6395 129.22 63.9585 129.033C63.562 128.865 63.243 128.591 63.0015 128.213C62.7645 127.83 62.646 127.381 62.646 126.866C62.646 126.319 62.7622 125.854 62.9946 125.472C63.2271 125.084 63.5666 124.79 64.0132 124.59C64.4598 124.385 64.9999 124.282 65.6333 124.282C65.77 124.282 65.9182 124.291 66.0777 124.31C66.2417 124.323 66.3921 124.341 66.5288 124.364C66.6701 124.382 66.7772 124.403 66.8501 124.426H69.4683V125.321L68.1831 125.561C68.3062 125.734 68.4042 125.932 68.4771 126.155C68.55 126.374 68.5864 126.613 68.5864 126.873C68.5864 127.657 68.3153 128.274 67.773 128.726C67.2352 129.172 66.4924 129.396 65.5445 129.396C65.3166 129.386 65.0956 129.368 64.8814 129.341C64.7173 129.441 64.592 129.553 64.5054 129.676C64.4188 129.794 64.3755 129.929 64.3755 130.079C64.3755 130.202 64.4188 130.302 64.5054 130.38C64.592 130.453 64.7196 130.507 64.8882 130.544C65.0614 130.58 65.271 130.599 65.5171 130.599H66.8228C67.6522 130.599 68.2857 130.774 68.7232 131.125C69.1607 131.476 69.3794 131.991 69.3794 132.67C69.3794 133.531 69.0239 134.194 68.313 134.659C67.6021 135.129 66.579 135.363 65.2437 135.363ZM65.3052 134.235C65.8657 134.235 66.3374 134.181 66.7202 134.071C67.103 133.962 67.3924 133.805 67.5884 133.6C67.7844 133.399 67.8823 133.16 67.8823 132.882C67.8823 132.636 67.8208 132.447 67.6978 132.314C67.5747 132.182 67.3902 132.091 67.1441 132.041C66.898 131.991 66.5926 131.966 66.228 131.966H65.0386C64.7424 131.966 64.4803 132.011 64.2525 132.103C64.0246 132.198 63.8469 132.335 63.7193 132.513C63.5962 132.69 63.5347 132.905 63.5347 133.155C63.5347 133.502 63.6874 133.768 63.9927 133.955C64.3026 134.142 64.7401 134.235 65.3052 134.235ZM65.6196 128.343C66.089 128.343 66.4377 128.215 66.6655 127.96C66.8934 127.7 67.0073 127.336 67.0073 126.866C67.0073 126.356 66.8889 125.973 66.6519 125.718C66.4195 125.463 66.0731 125.335 65.6128 125.335C65.1616 125.335 64.8176 125.465 64.5806 125.725C64.3482 125.984 64.232 126.369 64.232 126.88C64.232 127.34 64.3482 127.7 64.5806 127.96C64.8176 128.215 65.1639 128.343 65.6196 128.343ZM72.3016 124.433V132H70.6951V124.433H72.3016ZM71.5086 121.534C71.7547 121.534 71.9666 121.6 72.1444 121.732C72.3267 121.865 72.4178 122.092 72.4178 122.416C72.4178 122.735 72.3267 122.963 72.1444 123.1C71.9666 123.232 71.7547 123.298 71.5086 123.298C71.2534 123.298 71.0369 123.232 70.8592 123.1C70.686 122.963 70.5994 122.735 70.5994 122.416C70.5994 122.092 70.686 121.865 70.8592 121.732C71.0369 121.6 71.2534 121.534 71.5086 121.534ZM76.0577 121.363V126.504C76.0577 126.736 76.0486 126.992 76.0304 127.27C76.0122 127.543 75.9939 127.8 75.9757 128.042H76.0099C76.1284 127.882 76.2697 127.696 76.4337 127.481C76.6023 127.267 76.7618 127.08 76.9122 126.921L79.2228 124.433H81.0685L78.0402 127.687L81.2667 132H79.38L76.9601 128.678L76.0577 129.45V132H74.4513V121.363H76.0577ZM88.7722 124.289C89.7292 124.289 90.4516 124.501 90.9392 124.925C91.4314 125.349 91.6775 126.009 91.6775 126.907V132H90.5359L90.2283 130.927H90.1736C89.9594 131.2 89.7383 131.426 89.5105 131.604C89.2826 131.781 89.0183 131.913 88.7175 132C88.4213 132.091 88.059 132.137 87.6306 132.137C87.1794 132.137 86.7761 132.055 86.4206 131.891C86.0652 131.722 85.7849 131.467 85.5798 131.125C85.3747 130.783 85.2722 130.35 85.2722 129.826C85.2722 129.047 85.5616 128.461 86.1404 128.069C86.7237 127.677 87.6033 127.461 88.779 127.42L90.0915 127.372V126.976C90.0915 126.451 89.9685 126.078 89.7224 125.854C89.4809 125.631 89.1391 125.52 88.697 125.52C88.3188 125.52 87.9519 125.574 87.5964 125.684C87.241 125.793 86.8946 125.927 86.5574 126.087L86.0378 124.952C86.407 124.756 86.8262 124.597 87.2956 124.474C87.7696 124.351 88.2618 124.289 88.7722 124.289ZM90.0847 128.384L89.1072 128.418C88.3051 128.445 87.7423 128.582 87.4187 128.828C87.0951 129.074 86.9333 129.411 86.9333 129.84C86.9333 130.214 87.045 130.487 87.2683 130.66C87.4916 130.829 87.7855 130.913 88.1501 130.913C88.7061 130.913 89.1664 130.756 89.531 130.441C89.9001 130.122 90.0847 129.655 90.0847 129.04V128.384ZM95.3858 132H93.7725V121.363H95.3858V132ZM99.1419 132H97.5287V121.363H99.1419V132ZM104.299 124.289C104.974 124.289 105.553 124.428 106.036 124.706C106.519 124.984 106.89 125.378 107.15 125.889C107.41 126.399 107.54 127.01 107.54 127.721V128.582H102.488C102.506 129.316 102.702 129.881 103.076 130.277C103.454 130.674 103.983 130.872 104.662 130.872C105.145 130.872 105.578 130.826 105.961 130.735C106.348 130.64 106.747 130.501 107.157 130.318V131.624C106.779 131.802 106.394 131.932 106.002 132.014C105.61 132.096 105.14 132.137 104.593 132.137C103.851 132.137 103.197 131.993 102.631 131.706C102.071 131.414 101.631 130.981 101.312 130.407C100.998 129.833 100.84 129.12 100.84 128.268C100.84 127.42 100.984 126.7 101.271 126.107C101.558 125.515 101.962 125.064 102.481 124.754C103.001 124.444 103.607 124.289 104.299 124.289ZM104.299 125.499C103.794 125.499 103.383 125.663 103.069 125.991C102.759 126.319 102.577 126.8 102.522 127.434H105.967C105.963 127.055 105.899 126.72 105.776 126.429C105.658 126.137 105.475 125.909 105.229 125.745C104.988 125.581 104.678 125.499 104.299 125.499ZM116.46 125.656H114.621V132H113.015V125.656H111.778V124.884L113.015 124.412V123.886C113.015 123.243 113.115 122.733 113.316 122.354C113.521 121.976 113.812 121.705 114.191 121.541C114.573 121.372 115.029 121.288 115.558 121.288C115.904 121.288 116.221 121.318 116.508 121.377C116.795 121.432 117.037 121.495 117.233 121.568L116.816 122.785C116.661 122.735 116.488 122.689 116.296 122.648C116.105 122.603 115.9 122.58 115.681 122.58C115.316 122.58 115.047 122.694 114.874 122.922C114.706 123.15 114.621 123.482 114.621 123.92V124.433H116.46V125.656ZM124.297 128.199C124.297 128.828 124.215 129.386 124.051 129.874C123.887 130.362 123.648 130.774 123.334 131.111C123.019 131.444 122.641 131.699 122.199 131.877C121.757 132.05 121.258 132.137 120.702 132.137C120.182 132.137 119.706 132.05 119.273 131.877C118.84 131.699 118.464 131.444 118.145 131.111C117.831 130.774 117.587 130.362 117.414 129.874C117.24 129.386 117.154 128.828 117.154 128.199C117.154 127.365 117.297 126.659 117.585 126.08C117.876 125.497 118.291 125.052 118.829 124.747C119.366 124.442 120.007 124.289 120.75 124.289C121.447 124.289 122.062 124.442 122.595 124.747C123.128 125.052 123.545 125.497 123.846 126.08C124.147 126.663 124.297 127.37 124.297 128.199ZM118.808 128.199C118.808 128.751 118.874 129.222 119.006 129.614C119.143 130.006 119.353 130.307 119.635 130.517C119.918 130.722 120.282 130.824 120.729 130.824C121.176 130.824 121.54 130.722 121.823 130.517C122.105 130.307 122.313 130.006 122.445 129.614C122.577 129.222 122.643 128.751 122.643 128.199C122.643 127.648 122.577 127.181 122.445 126.798C122.313 126.41 122.105 126.117 121.823 125.916C121.54 125.711 121.173 125.608 120.722 125.608C120.057 125.608 119.572 125.832 119.266 126.278C118.961 126.725 118.808 127.365 118.808 128.199ZM129.824 124.289C129.952 124.289 130.091 124.296 130.241 124.31C130.391 124.323 130.521 124.341 130.631 124.364L130.48 125.868C130.385 125.841 130.266 125.82 130.125 125.807C129.988 125.793 129.865 125.786 129.756 125.786C129.469 125.786 129.195 125.834 128.935 125.93C128.676 126.021 128.446 126.162 128.245 126.354C128.044 126.54 127.887 126.775 127.773 127.058C127.659 127.34 127.602 127.668 127.602 128.042V132H125.989V124.433H127.247L127.466 125.766H127.541C127.691 125.497 127.878 125.251 128.101 125.027C128.325 124.804 128.58 124.626 128.867 124.494C129.159 124.357 129.478 124.289 129.824 124.289ZM133.608 132L130.73 124.433H132.432L133.99 128.876C134.091 129.159 134.182 129.464 134.264 129.792C134.346 130.12 134.403 130.396 134.435 130.619H134.489C134.521 130.387 134.583 130.109 134.674 129.785C134.765 129.457 134.859 129.154 134.954 128.876L136.513 124.433H138.208L135.33 132H133.608ZM142.217 124.289C142.892 124.289 143.471 124.428 143.954 124.706C144.437 124.984 144.808 125.378 145.068 125.889C145.328 126.399 145.457 127.01 145.457 127.721V128.582H140.406C140.424 129.316 140.62 129.881 140.994 130.277C141.372 130.674 141.901 130.872 142.58 130.872C143.063 130.872 143.496 130.826 143.878 130.735C144.266 130.64 144.665 130.501 145.075 130.318V131.624C144.696 131.802 144.311 131.932 143.919 132.014C143.527 132.096 143.058 132.137 142.511 132.137C141.768 132.137 141.114 131.993 140.549 131.706C139.989 131.414 139.549 130.981 139.23 130.407C138.915 129.833 138.758 129.12 138.758 128.268C138.758 127.42 138.902 126.7 139.189 126.107C139.476 125.515 139.879 125.064 140.399 124.754C140.918 124.444 141.525 124.289 142.217 124.289ZM142.217 125.499C141.711 125.499 141.301 125.663 140.987 125.991C140.677 126.319 140.495 126.8 140.44 127.434H143.885C143.881 127.055 143.817 126.72 143.694 126.429C143.575 126.137 143.393 125.909 143.147 125.745C142.905 125.581 142.596 125.499 142.217 125.499ZM151.059 124.289C151.912 124.289 152.575 124.51 153.049 124.952C153.527 125.39 153.766 126.094 153.766 127.064V132H152.16V127.365C152.16 126.777 152.039 126.338 151.798 126.046C151.556 125.75 151.182 125.602 150.677 125.602C149.943 125.602 149.432 125.827 149.145 126.278C148.863 126.729 148.721 127.383 148.721 128.24V132H147.115V124.433H148.366L148.592 125.458H148.68C148.845 125.194 149.047 124.977 149.289 124.809C149.535 124.635 149.808 124.506 150.109 124.419C150.414 124.332 150.731 124.289 151.059 124.289ZM158.678 130.838C158.887 130.838 159.095 130.82 159.3 130.783C159.505 130.742 159.692 130.694 159.86 130.64V131.856C159.683 131.934 159.453 132 159.17 132.055C158.887 132.109 158.594 132.137 158.288 132.137C157.86 132.137 157.475 132.066 157.133 131.925C156.791 131.779 156.52 131.531 156.319 131.18C156.119 130.829 156.019 130.343 156.019 129.724V125.656H154.986V124.938L156.094 124.371L156.62 122.751H157.632V124.433H159.799V125.656H157.632V129.703C157.632 130.086 157.728 130.371 157.919 130.558C158.11 130.744 158.363 130.838 158.678 130.838ZM165.189 124.289C166.041 124.289 166.704 124.51 167.178 124.952C167.657 125.39 167.896 126.094 167.896 127.064V132H166.289V127.365C166.289 126.777 166.169 126.338 165.927 126.046C165.686 125.75 165.312 125.602 164.806 125.602C164.072 125.602 163.562 125.827 163.275 126.278C162.992 126.729 162.851 127.383 162.851 128.24V132H161.245V124.433H162.495L162.721 125.458H162.81C162.974 125.194 163.177 124.977 163.418 124.809C163.664 124.635 163.938 124.506 164.239 124.419C164.544 124.332 164.861 124.289 165.189 124.289ZM171.597 124.433V132H169.991V124.433H171.597ZM170.804 121.534C171.05 121.534 171.262 121.6 171.44 121.732C171.622 121.865 171.714 122.092 171.714 122.416C171.714 122.735 171.622 122.963 171.44 123.1C171.262 123.232 171.05 123.298 170.804 123.298C170.549 123.298 170.333 123.232 170.155 123.1C169.982 122.963 169.895 122.735 169.895 122.416C169.895 122.092 169.982 121.865 170.155 121.732C170.333 121.6 170.549 121.534 170.804 121.534ZM177.691 124.289C178.544 124.289 179.207 124.51 179.681 124.952C180.159 125.39 180.398 126.094 180.398 127.064V132H178.792V127.365C178.792 126.777 178.671 126.338 178.43 126.046C178.188 125.75 177.814 125.602 177.309 125.602C176.575 125.602 176.064 125.827 175.777 126.278C175.495 126.729 175.354 127.383 175.354 128.24V132H173.747V124.433H174.998L175.224 125.458H175.312C175.477 125.194 175.679 124.977 175.921 124.809C176.167 124.635 176.44 124.506 176.741 124.419C177.047 124.332 177.363 124.289 177.691 124.289ZM184.654 135.363C183.628 135.363 182.842 135.179 182.295 134.81C181.748 134.44 181.475 133.923 181.475 133.258C181.475 132.793 181.621 132.399 181.912 132.075C182.204 131.756 182.621 131.535 183.163 131.412C182.958 131.321 182.781 131.18 182.63 130.988C182.484 130.792 182.411 130.576 182.411 130.339C182.411 130.056 182.491 129.815 182.651 129.614C182.81 129.414 183.049 129.22 183.368 129.033C182.972 128.865 182.653 128.591 182.411 128.213C182.174 127.83 182.056 127.381 182.056 126.866C182.056 126.319 182.172 125.854 182.405 125.472C182.637 125.084 182.977 124.79 183.423 124.59C183.87 124.385 184.41 124.282 185.043 124.282C185.18 124.282 185.328 124.291 185.488 124.31C185.652 124.323 185.802 124.341 185.939 124.364C186.08 124.382 186.187 124.403 186.26 124.426H188.878V125.321L187.593 125.561C187.716 125.734 187.814 125.932 187.887 126.155C187.96 126.374 187.996 126.613 187.996 126.873C187.996 127.657 187.725 128.274 187.183 128.726C186.645 129.172 185.902 129.396 184.954 129.396C184.727 129.386 184.505 129.368 184.291 129.341C184.127 129.441 184.002 129.553 183.915 129.676C183.829 129.794 183.785 129.929 183.785 130.079C183.785 130.202 183.829 130.302 183.915 130.38C184.002 130.453 184.13 130.507 184.298 130.544C184.471 130.58 184.681 130.599 184.927 130.599H186.233C187.062 130.599 187.696 130.774 188.133 131.125C188.571 131.476 188.789 131.991 188.789 132.67C188.789 133.531 188.434 134.194 187.723 134.659C187.012 135.129 185.989 135.363 184.654 135.363ZM184.715 134.235C185.276 134.235 185.747 134.181 186.13 134.071C186.513 133.962 186.802 133.805 186.998 133.6C187.194 133.399 187.292 133.16 187.292 132.882C187.292 132.636 187.231 132.447 187.108 132.314C186.985 132.182 186.8 132.091 186.554 132.041C186.308 131.991 186.003 131.966 185.638 131.966H184.449C184.152 131.966 183.89 132.011 183.662 132.103C183.435 132.198 183.257 132.335 183.129 132.513C183.006 132.69 182.945 132.905 182.945 133.155C182.945 133.502 183.097 133.768 183.403 133.955C183.713 134.142 184.15 134.235 184.715 134.235ZM185.03 128.343C185.499 128.343 185.848 128.215 186.075 127.96C186.303 127.7 186.417 127.336 186.417 126.866C186.417 126.356 186.299 125.973 186.062 125.718C185.829 125.463 185.483 125.335 185.023 125.335C184.572 125.335 184.228 125.465 183.991 125.725C183.758 125.984 183.642 126.369 183.642 126.88C183.642 127.34 183.758 127.7 183.991 127.96C184.228 128.215 184.574 128.343 185.03 128.343ZM193.12 124.289C193.794 124.289 194.373 124.428 194.856 124.706C195.339 124.984 195.711 125.378 195.97 125.889C196.23 126.399 196.36 127.01 196.36 127.721V128.582H191.308C191.326 129.316 191.522 129.881 191.896 130.277C192.274 130.674 192.803 130.872 193.482 130.872C193.965 130.872 194.398 130.826 194.781 130.735C195.168 130.64 195.567 130.501 195.977 130.318V131.624C195.599 131.802 195.214 131.932 194.822 132.014C194.43 132.096 193.961 132.137 193.414 132.137C192.671 132.137 192.017 131.993 191.452 131.706C190.891 131.414 190.451 130.981 190.132 130.407C189.818 129.833 189.661 129.12 189.661 128.268C189.661 127.42 189.804 126.7 190.091 126.107C190.379 125.515 190.782 125.064 191.301 124.754C191.821 124.444 192.427 124.289 193.12 124.289ZM193.12 125.499C192.614 125.499 192.204 125.663 191.889 125.991C191.579 126.319 191.397 126.8 191.342 127.434H194.788C194.783 127.055 194.719 126.72 194.596 126.429C194.478 126.137 194.296 125.909 194.049 125.745C193.808 125.581 193.498 125.499 193.12 125.499ZM201.852 124.289C201.98 124.289 202.119 124.296 202.269 124.31C202.42 124.323 202.55 124.341 202.659 124.364L202.509 125.868C202.413 125.841 202.295 125.82 202.153 125.807C202.017 125.793 201.893 125.786 201.784 125.786C201.497 125.786 201.224 125.834 200.964 125.93C200.704 126.021 200.474 126.162 200.273 126.354C200.073 126.54 199.916 126.775 199.802 127.058C199.688 127.34 199.631 127.668 199.631 128.042V132H198.017V124.433H199.275L199.494 125.766H199.569C199.72 125.497 199.906 125.251 200.13 125.027C200.353 124.804 200.608 124.626 200.895 124.494C201.187 124.357 201.506 124.289 201.852 124.289ZM206.733 128.924V127.563H210.26V128.924H206.733ZM216.959 132L214.081 124.433H215.783L217.342 128.876C217.442 129.159 217.533 129.464 217.615 129.792C217.697 130.12 217.754 130.396 217.786 130.619H217.841C217.873 130.387 217.934 130.109 218.026 129.785C218.117 129.457 218.21 129.154 218.306 128.876L219.864 124.433H221.56L218.682 132H216.959ZM224.161 124.433V132H222.554V124.433H224.161ZM223.368 121.534C223.614 121.534 223.826 121.6 224.003 121.732C224.186 121.865 224.277 122.092 224.277 122.416C224.277 122.735 224.186 122.963 224.003 123.1C223.826 123.232 223.614 123.298 223.368 123.298C223.112 123.298 222.896 123.232 222.718 123.1C222.545 122.963 222.458 122.735 222.458 122.416C222.458 122.092 222.545 121.865 222.718 121.732C222.896 121.6 223.112 121.534 223.368 121.534ZM230.145 124.289C230.273 124.289 230.412 124.296 230.562 124.31C230.713 124.323 230.843 124.341 230.952 124.364L230.801 125.868C230.706 125.841 230.587 125.82 230.446 125.807C230.309 125.793 230.186 125.786 230.077 125.786C229.79 125.786 229.516 125.834 229.257 125.93C228.997 126.021 228.767 126.162 228.566 126.354C228.366 126.54 228.208 126.775 228.094 127.058C227.981 127.34 227.924 127.668 227.924 128.042V132H226.31V124.433H227.568L227.787 125.766H227.862C228.012 125.497 228.199 125.251 228.423 125.027C228.646 124.804 228.901 124.626 229.188 124.494C229.48 124.357 229.799 124.289 230.145 124.289ZM233.806 121.363V126.504C233.806 126.736 233.797 126.992 233.778 127.27C233.76 127.543 233.742 127.8 233.724 128.042H233.758C233.876 127.882 234.018 127.696 234.182 127.481C234.35 127.267 234.51 127.08 234.66 126.921L236.971 124.433H238.816L235.788 127.687L239.015 132H237.128L234.708 128.678L233.806 129.45V132H232.199V121.363H233.806ZM243.085 124.289C243.76 124.289 244.339 124.428 244.822 124.706C245.305 124.984 245.676 125.378 245.936 125.889C246.196 126.399 246.326 127.01 246.326 127.721V128.582H241.274C241.292 129.316 241.488 129.881 241.862 130.277C242.24 130.674 242.769 130.872 243.448 130.872C243.931 130.872 244.364 130.826 244.746 130.735C245.134 130.64 245.533 130.501 245.943 130.318V131.624C245.564 131.802 245.179 131.932 244.787 132.014C244.396 132.096 243.926 132.137 243.379 132.137C242.636 132.137 241.982 131.993 241.417 131.706C240.857 131.414 240.417 130.981 240.098 130.407C239.784 129.833 239.626 129.12 239.626 128.268C239.626 127.42 239.77 126.7 240.057 126.107C240.344 125.515 240.747 125.064 241.267 124.754C241.786 124.444 242.393 124.289 243.085 124.289ZM243.085 125.499C242.579 125.499 242.169 125.663 241.855 125.991C241.545 126.319 241.363 126.8 241.308 127.434H244.753C244.749 127.055 244.685 126.72 244.562 126.429C244.443 126.137 244.261 125.909 244.015 125.745C243.773 125.581 243.464 125.499 243.085 125.499ZM249.596 132H247.983V121.363H249.596V132ZM253.346 124.433V132H251.739V124.433H253.346ZM252.553 121.534C252.799 121.534 253.011 121.6 253.188 121.732C253.371 121.865 253.462 122.092 253.462 122.416C253.462 122.735 253.371 122.963 253.188 123.1C253.011 123.232 252.799 123.298 252.553 123.298C252.297 123.298 252.081 123.232 251.903 123.1C251.73 122.963 251.643 122.735 251.643 122.416C251.643 122.092 251.73 121.865 251.903 121.732C252.081 121.6 252.297 121.534 252.553 121.534ZM257.656 135.363C256.63 135.363 255.844 135.179 255.297 134.81C254.75 134.44 254.477 133.923 254.477 133.258C254.477 132.793 254.623 132.399 254.914 132.075C255.206 131.756 255.623 131.535 256.165 131.412C255.96 131.321 255.782 131.18 255.632 130.988C255.486 130.792 255.413 130.576 255.413 130.339C255.413 130.056 255.493 129.815 255.653 129.614C255.812 129.414 256.051 129.22 256.37 129.033C255.974 128.865 255.655 128.591 255.413 128.213C255.176 127.83 255.058 127.381 255.058 126.866C255.058 126.319 255.174 125.854 255.406 125.472C255.639 125.084 255.978 124.79 256.425 124.59C256.872 124.385 257.412 124.282 258.045 124.282C258.182 124.282 258.33 124.291 258.49 124.31C258.654 124.323 258.804 124.341 258.941 124.364C259.082 124.382 259.189 124.403 259.262 124.426H261.88V125.321L260.595 125.561C260.718 125.734 260.816 125.932 260.889 126.155C260.962 126.374 260.998 126.613 260.998 126.873C260.998 127.657 260.727 128.274 260.185 128.726C259.647 129.172 258.904 129.396 257.956 129.396C257.728 129.386 257.507 129.368 257.293 129.341C257.129 129.441 257.004 129.553 256.917 129.676C256.831 129.794 256.787 129.929 256.787 130.079C256.787 130.202 256.831 130.302 256.917 130.38C257.004 130.453 257.131 130.507 257.3 130.544C257.473 130.58 257.683 130.599 257.929 130.599H259.235C260.064 130.599 260.698 130.774 261.135 131.125C261.573 131.476 261.791 131.991 261.791 132.67C261.791 133.531 261.436 134.194 260.725 134.659C260.014 135.129 258.991 135.363 257.656 135.363ZM257.717 134.235C258.278 134.235 258.749 134.181 259.132 134.071C259.515 133.962 259.804 133.805 260 133.6C260.196 133.399 260.294 133.16 260.294 132.882C260.294 132.636 260.233 132.447 260.11 132.314C259.987 132.182 259.802 132.091 259.556 132.041C259.31 131.991 259.004 131.966 258.64 131.966H257.45C257.154 131.966 256.892 132.011 256.664 132.103C256.436 132.198 256.259 132.335 256.131 132.513C256.008 132.69 255.947 132.905 255.947 133.155C255.947 133.502 256.099 133.768 256.405 133.955C256.714 134.142 257.152 134.235 257.717 134.235ZM258.031 128.343C258.501 128.343 258.85 128.215 259.077 127.96C259.305 127.7 259.419 127.336 259.419 126.866C259.419 126.356 259.301 125.973 259.064 125.718C258.831 125.463 258.485 125.335 258.025 125.335C257.573 125.335 257.229 125.465 256.992 125.725C256.76 125.984 256.644 126.369 256.644 126.88C256.644 127.34 256.76 127.7 256.992 127.96C257.229 128.215 257.576 128.343 258.031 128.343ZM269.604 124.289C270.279 124.289 270.858 124.428 271.341 124.706C271.824 124.984 272.195 125.378 272.455 125.889C272.715 126.399 272.845 127.01 272.845 127.721V128.582H267.793C267.811 129.316 268.007 129.881 268.381 130.277C268.759 130.674 269.288 130.872 269.967 130.872C270.45 130.872 270.883 130.826 271.265 130.735C271.653 130.64 272.052 130.501 272.462 130.318V131.624C272.084 131.802 271.698 131.932 271.307 132.014C270.915 132.096 270.445 132.137 269.898 132.137C269.155 132.137 268.501 131.993 267.936 131.706C267.376 131.414 266.936 130.981 266.617 130.407C266.303 129.833 266.145 129.12 266.145 128.268C266.145 127.42 266.289 126.7 266.576 126.107C266.863 125.515 267.266 125.064 267.786 124.754C268.306 124.444 268.912 124.289 269.604 124.289ZM269.604 125.499C269.098 125.499 268.688 125.663 268.374 125.991C268.064 126.319 267.882 126.8 267.827 127.434H271.272C271.268 127.055 271.204 126.72 271.081 126.429C270.962 126.137 270.78 125.909 270.534 125.745C270.293 125.581 269.983 125.499 269.604 125.499ZM277.319 130.838C277.528 130.838 277.736 130.82 277.941 130.783C278.146 130.742 278.333 130.694 278.501 130.64V131.856C278.323 131.934 278.093 132 277.811 132.055C277.528 132.109 277.234 132.137 276.929 132.137C276.5 132.137 276.115 132.066 275.774 131.925C275.432 131.779 275.161 131.531 274.96 131.18C274.76 130.829 274.659 130.343 274.659 129.724V125.656H273.627V124.938L274.735 124.371L275.261 122.751H276.273V124.433H278.44V125.656H276.273V129.703C276.273 130.086 276.368 130.371 276.56 130.558C276.751 130.744 277.004 130.838 277.319 130.838ZM30.2344 150.84C30.2344 151.337 30.1136 151.756 29.8721 152.098C29.6305 152.439 29.2773 152.699 28.8125 152.877C28.3522 153.05 27.7871 153.137 27.1172 153.137C26.5885 153.137 26.1328 153.098 25.75 153.021C25.3717 152.948 25.014 152.834 24.6768 152.679V151.291C25.0368 151.46 25.4401 151.605 25.8867 151.729C26.3379 151.852 26.764 151.913 27.165 151.913C27.6937 151.913 28.0742 151.831 28.3066 151.667C28.5391 151.498 28.6553 151.275 28.6553 150.997C28.6553 150.833 28.6074 150.687 28.5117 150.56C28.4206 150.427 28.2474 150.293 27.9922 150.156C27.7415 150.015 27.3724 149.846 26.8848 149.65C26.4062 149.459 26.0029 149.268 25.6748 149.076C25.3467 148.885 25.0983 148.655 24.9297 148.386C24.7611 148.112 24.6768 147.764 24.6768 147.34C24.6768 146.67 24.9411 146.162 25.4697 145.815C26.0029 145.465 26.707 145.289 27.582 145.289C28.0469 145.289 28.4844 145.337 28.8945 145.433C29.3092 145.524 29.7148 145.658 30.1113 145.836L29.6055 147.046C29.2637 146.896 28.9196 146.772 28.5732 146.677C28.2314 146.576 27.8828 146.526 27.5273 146.526C27.1126 146.526 26.7959 146.59 26.5771 146.718C26.363 146.845 26.2559 147.028 26.2559 147.265C26.2559 147.442 26.3083 147.593 26.4131 147.716C26.5179 147.839 26.6979 147.962 26.9531 148.085C27.2129 148.208 27.5729 148.361 28.0332 148.543C28.4844 148.716 28.874 148.898 29.2021 149.09C29.5348 149.277 29.79 149.507 29.9678 149.78C30.1455 150.054 30.2344 150.407 30.2344 150.84ZM33.4231 142.363V147.504C33.4231 147.736 33.414 147.992 33.3958 148.27C33.3776 148.543 33.3593 148.8 33.3411 149.042H33.3753C33.4938 148.882 33.6351 148.696 33.7991 148.481C33.9677 148.267 34.1273 148.08 34.2776 147.921L36.5882 145.433H38.4339L35.4056 148.687L38.6321 153H36.7454L34.3255 149.678L33.4231 150.45V153H31.8167V142.363H33.4231ZM43.5231 145.289C43.6507 145.289 43.7897 145.296 43.94 145.31C44.0904 145.323 44.2203 145.341 44.3297 145.364L44.1793 146.868C44.0836 146.841 43.9651 146.82 43.8238 146.807C43.6871 146.793 43.5641 146.786 43.4547 146.786C43.1676 146.786 42.8941 146.834 42.6344 146.93C42.3746 147.021 42.1445 147.162 41.944 147.354C41.7434 147.54 41.5862 147.775 41.4723 148.058C41.3583 148.34 41.3014 148.668 41.3014 149.042V153H39.6881V145.433H40.9459L41.1647 146.766H41.2399C41.3902 146.497 41.5771 146.251 41.8004 146.027C42.0237 145.804 42.2789 145.626 42.566 145.494C42.8577 145.357 43.1767 145.289 43.5231 145.289ZM47.1835 145.433V153H45.5771V145.433H47.1835ZM46.3905 142.534C46.6366 142.534 46.8485 142.6 47.0263 142.732C47.2086 142.865 47.2997 143.092 47.2997 143.416C47.2997 143.735 47.2086 143.963 47.0263 144.1C46.8485 144.232 46.6366 144.298 46.3905 144.298C46.1353 144.298 45.9189 144.232 45.7411 144.1C45.5679 143.963 45.4814 143.735 45.4814 143.416C45.4814 143.092 45.5679 142.865 45.7411 142.732C45.9189 142.6 46.1353 142.534 46.3905 142.534ZM51.8762 153.137C50.9738 153.137 50.2492 152.809 49.7024 152.152C49.16 151.492 48.8889 150.519 48.8889 149.233C48.8889 147.935 49.1646 146.952 49.716 146.287C50.272 145.622 51.0035 145.289 51.9104 145.289C52.2932 145.289 52.6281 145.341 52.9153 145.446C53.2024 145.547 53.4485 145.683 53.6535 145.856C53.8632 146.03 54.0409 146.223 54.1867 146.438H54.2619C54.2391 146.296 54.2118 146.093 54.1799 145.829C54.1526 145.56 54.1389 145.312 54.1389 145.084V142.363H55.7522V153H54.4944L54.2072 151.968H54.1389C54.0022 152.187 53.829 152.385 53.6194 152.562C53.4143 152.736 53.1682 152.875 52.8811 152.979C52.5985 153.084 52.2636 153.137 51.8762 153.137ZM52.3274 151.831C53.0155 151.831 53.5009 151.633 53.7834 151.236C54.066 150.84 54.2118 150.245 54.2209 149.452V149.24C54.2209 148.393 54.0842 147.743 53.8108 147.292C53.5373 146.836 53.0383 146.608 52.3137 146.608C51.7349 146.608 51.2929 146.843 50.9875 147.312C50.6867 147.777 50.5363 148.427 50.5363 149.261C50.5363 150.095 50.6867 150.733 50.9875 151.175C51.2929 151.612 51.7395 151.831 52.3274 151.831ZM60.7183 151.838C60.9279 151.838 61.1353 151.82 61.3404 151.783C61.5454 151.742 61.7323 151.694 61.9009 151.64V152.856C61.7232 152.934 61.493 153 61.2105 153.055C60.9279 153.109 60.634 153.137 60.3286 153.137C59.9002 153.137 59.5152 153.066 59.1734 152.925C58.8316 152.779 58.5604 152.531 58.3599 152.18C58.1594 151.829 58.0591 151.343 58.0591 150.724V146.656H57.0269V145.938L58.1343 145.371L58.6607 143.751H59.6724V145.433H61.8394V146.656H59.6724V150.703C59.6724 151.086 59.7681 151.371 59.9595 151.558C60.1509 151.744 60.4038 151.838 60.7183 151.838ZM70.548 146.656H68.7091V153H67.1027V146.656H65.8654V145.884L67.1027 145.412V144.886C67.1027 144.243 67.2029 143.733 67.4034 143.354C67.6085 142.976 67.9002 142.705 68.2784 142.541C68.6613 142.372 69.117 142.288 69.6456 142.288C69.992 142.288 70.3087 142.318 70.5958 142.377C70.8829 142.432 71.1245 142.495 71.3204 142.568L70.9034 143.785C70.7485 143.735 70.5753 143.689 70.3839 143.648C70.1925 143.603 69.9874 143.58 69.7687 143.58C69.4041 143.58 69.1352 143.694 68.962 143.922C68.7934 144.15 68.7091 144.482 68.7091 144.92V145.433H70.548V146.656ZM78.3852 149.199C78.3852 149.828 78.3032 150.386 78.1391 150.874C77.975 151.362 77.7358 151.774 77.4213 152.111C77.1069 152.444 76.7286 152.699 76.2866 152.877C75.8445 153.05 75.3455 153.137 74.7895 153.137C74.27 153.137 73.7937 153.05 73.3608 152.877C72.9278 152.699 72.5519 152.444 72.2328 152.111C71.9184 151.774 71.6746 151.362 71.5014 150.874C71.3282 150.386 71.2416 149.828 71.2416 149.199C71.2416 148.365 71.3852 147.659 71.6723 147.08C71.964 146.497 72.3787 146.052 72.9164 145.747C73.4542 145.442 74.0945 145.289 74.8373 145.289C75.5346 145.289 76.1498 145.442 76.683 145.747C77.2162 146.052 77.6332 146.497 77.934 147.08C78.2348 147.663 78.3852 148.37 78.3852 149.199ZM72.8959 149.199C72.8959 149.751 72.962 150.222 73.0942 150.614C73.2309 151.006 73.4405 151.307 73.7231 151.517C74.0056 151.722 74.3702 151.824 74.8168 151.824C75.2634 151.824 75.628 151.722 75.9106 151.517C76.1931 151.307 76.4005 151.006 76.5326 150.614C76.6648 150.222 76.7309 149.751 76.7309 149.199C76.7309 148.648 76.6648 148.181 76.5326 147.798C76.4005 147.41 76.1931 147.117 75.9106 146.916C75.628 146.711 75.2612 146.608 74.81 146.608C74.1446 146.608 73.6593 146.832 73.3539 147.278C73.0486 147.725 72.8959 148.365 72.8959 149.199ZM83.9118 145.289C84.0395 145.289 84.1785 145.296 84.3288 145.31C84.4792 145.323 84.6091 145.341 84.7185 145.364L84.5681 146.868C84.4724 146.841 84.3539 146.82 84.2126 146.807C84.0759 146.793 83.9529 146.786 83.8435 146.786C83.5564 146.786 83.2829 146.834 83.0232 146.93C82.7634 147.021 82.5333 147.162 82.3327 147.354C82.1322 147.54 81.975 147.775 81.8611 148.058C81.7471 148.34 81.6902 148.668 81.6902 149.042V153H80.0769V145.433H81.3347L81.5535 146.766H81.6286C81.779 146.497 81.9659 146.251 82.1892 146.027C82.4125 145.804 82.6677 145.626 82.9548 145.494C83.2465 145.357 83.5655 145.289 83.9118 145.289ZM88.9327 145.289C89.8897 145.289 90.612 145.501 91.0996 145.925C91.5918 146.349 91.8379 147.009 91.8379 147.907V153H90.6963L90.3887 151.927H90.334C90.1198 152.2 89.8988 152.426 89.6709 152.604C89.4431 152.781 89.1787 152.913 88.878 153C88.5817 153.091 88.2194 153.137 87.7911 153.137C87.3399 153.137 86.9366 153.055 86.5811 152.891C86.2256 152.722 85.9454 152.467 85.7403 152.125C85.5352 151.783 85.4327 151.35 85.4327 150.826C85.4327 150.047 85.722 149.461 86.3008 149.069C86.8842 148.677 87.7637 148.461 88.9395 148.42L90.252 148.372V147.976C90.252 147.451 90.1289 147.078 89.8829 146.854C89.6413 146.631 89.2995 146.52 88.8575 146.52C88.4792 146.52 88.1123 146.574 87.7569 146.684C87.4014 146.793 87.0551 146.927 86.7178 147.087L86.1983 145.952C86.5674 145.756 86.9867 145.597 87.4561 145.474C87.9301 145.351 88.4222 145.289 88.9327 145.289ZM90.2452 149.384L89.2676 149.418C88.4655 149.445 87.9027 149.582 87.5791 149.828C87.2556 150.074 87.0938 150.411 87.0938 150.84C87.0938 151.214 87.2054 151.487 87.4287 151.66C87.6521 151.829 87.946 151.913 88.3106 151.913C88.8666 151.913 89.3269 151.756 89.6914 151.441C90.0606 151.122 90.2452 150.655 90.2452 150.04V149.384ZM97.8773 145.289C98.7295 145.289 99.3926 145.51 99.8665 145.952C100.345 146.39 100.584 147.094 100.584 148.064V153H98.9779V148.365C98.9779 147.777 98.8571 147.338 98.6156 147.046C98.374 146.75 98.0003 146.602 97.4945 146.602C96.7608 146.602 96.2503 146.827 95.9632 147.278C95.6807 147.729 95.5394 148.383 95.5394 149.24V153H93.933V145.433H95.1839L95.4095 146.458H95.4984C95.6624 146.194 95.8652 145.977 96.1068 145.809C96.3529 145.635 96.6263 145.506 96.9271 145.419C97.2324 145.332 97.5492 145.289 97.8773 145.289ZM107.769 145.433V153H106.162V145.433H107.769ZM106.976 142.534C107.222 142.534 107.434 142.6 107.611 142.732C107.794 142.865 107.885 143.092 107.885 143.416C107.885 143.735 107.794 143.963 107.611 144.1C107.434 144.232 107.222 144.298 106.976 144.298C106.72 144.298 106.504 144.232 106.326 144.1C106.153 143.963 106.066 143.735 106.066 143.416C106.066 143.092 106.153 142.865 106.326 142.732C106.504 142.6 106.72 142.534 106.976 142.534ZM115.007 142.363V144.927C115.007 145.223 114.998 145.515 114.98 145.802C114.966 146.084 114.953 146.305 114.939 146.465H115.007C115.212 146.137 115.497 145.861 115.862 145.638C116.231 145.41 116.703 145.296 117.277 145.296C118.175 145.296 118.897 145.626 119.444 146.287C119.991 146.943 120.264 147.916 120.264 149.206C120.264 150.063 120.139 150.783 119.888 151.366C119.638 151.95 119.284 152.392 118.829 152.692C118.378 152.989 117.847 153.137 117.236 153.137C116.662 153.137 116.197 153.032 115.841 152.822C115.49 152.608 115.215 152.36 115.014 152.077H114.898L114.604 153H113.401V142.363H115.007ZM116.853 146.602C116.397 146.602 116.035 146.693 115.766 146.875C115.502 147.057 115.31 147.331 115.192 147.695C115.073 148.055 115.012 148.513 115.007 149.069V149.213C115.007 150.056 115.14 150.701 115.404 151.147C115.673 151.594 116.16 151.817 116.867 151.817C117.427 151.817 117.858 151.592 118.159 151.141C118.46 150.685 118.61 150.033 118.61 149.186C118.61 148.329 118.46 147.684 118.159 147.251C117.863 146.818 117.427 146.602 116.853 146.602ZM125.805 145.289C125.932 145.289 126.071 145.296 126.222 145.31C126.372 145.323 126.502 145.341 126.611 145.364L126.461 146.868C126.365 146.841 126.247 146.82 126.105 146.807C125.969 146.793 125.846 146.786 125.736 146.786C125.449 146.786 125.176 146.834 124.916 146.93C124.656 147.021 124.426 147.162 124.225 147.354C124.025 147.54 123.868 147.775 123.754 148.058C123.64 148.34 123.583 148.668 123.583 149.042V153H121.97V145.433H123.227L123.446 146.766H123.521C123.672 146.497 123.859 146.251 124.082 146.027C124.305 145.804 124.56 145.626 124.848 145.494C125.139 145.357 125.458 145.289 125.805 145.289ZM130.825 145.289C131.782 145.289 132.505 145.501 132.992 145.925C133.485 146.349 133.731 147.009 133.731 147.907V153H132.589L132.281 151.927H132.227C132.013 152.2 131.792 152.426 131.564 152.604C131.336 152.781 131.071 152.913 130.771 153C130.474 153.091 130.112 153.137 129.684 153.137C129.233 153.137 128.829 153.055 128.474 152.891C128.118 152.722 127.838 152.467 127.633 152.125C127.428 151.783 127.325 151.35 127.325 150.826C127.325 150.047 127.615 149.461 128.194 149.069C128.777 148.677 129.656 148.461 130.832 148.42L132.145 148.372V147.976C132.145 147.451 132.022 147.078 131.776 146.854C131.534 146.631 131.192 146.52 130.75 146.52C130.372 146.52 130.005 146.574 129.65 146.684C129.294 146.793 128.948 146.927 128.611 147.087L128.091 145.952C128.46 145.756 128.879 145.597 129.349 145.474C129.823 145.351 130.315 145.289 130.825 145.289ZM132.138 149.384L131.16 149.418C130.358 149.445 129.795 149.582 129.472 149.828C129.148 150.074 128.986 150.411 128.986 150.84C128.986 151.214 129.098 151.487 129.321 151.66C129.545 151.829 129.839 151.913 130.203 151.913C130.759 151.913 131.22 151.756 131.584 151.441C131.953 151.122 132.138 150.655 132.138 150.04V149.384ZM139.77 145.289C140.622 145.289 141.285 145.51 141.759 145.952C142.238 146.39 142.477 147.094 142.477 148.064V153H140.871V148.365C140.871 147.777 140.75 147.338 140.508 147.046C140.267 146.75 139.893 146.602 139.387 146.602C138.653 146.602 138.143 146.827 137.856 147.278C137.573 147.729 137.432 148.383 137.432 149.24V153H135.826V145.433H137.077L137.302 146.458H137.391C137.555 146.194 137.758 145.977 137.999 145.809C138.246 145.635 138.519 145.506 138.82 145.419C139.125 145.332 139.442 145.289 139.77 145.289ZM147.621 153.137C146.905 153.137 146.286 152.998 145.761 152.72C145.237 152.442 144.834 152.016 144.552 151.441C144.269 150.867 144.128 150.138 144.128 149.254C144.128 148.333 144.283 147.581 144.593 146.998C144.902 146.415 145.331 145.984 145.878 145.706C146.429 145.428 147.06 145.289 147.771 145.289C148.222 145.289 148.63 145.335 148.995 145.426C149.364 145.512 149.676 145.619 149.931 145.747L149.453 147.032C149.175 146.918 148.89 146.823 148.598 146.745C148.307 146.668 148.026 146.629 147.758 146.629C147.316 146.629 146.946 146.727 146.65 146.923C146.359 147.119 146.14 147.41 145.994 147.798C145.853 148.185 145.782 148.666 145.782 149.24C145.782 149.796 145.855 150.266 146.001 150.648C146.147 151.027 146.363 151.314 146.65 151.51C146.937 151.701 147.29 151.797 147.71 151.797C148.124 151.797 148.496 151.747 148.824 151.646C149.152 151.546 149.462 151.416 149.754 151.257V152.651C149.467 152.815 149.159 152.936 148.831 153.014C148.503 153.096 148.099 153.137 147.621 153.137ZM152.983 142.363V145.036C152.983 145.314 152.974 145.585 152.956 145.85C152.942 146.114 152.927 146.319 152.908 146.465H152.997C153.157 146.201 153.353 145.984 153.585 145.815C153.817 145.642 154.077 145.512 154.364 145.426C154.656 145.339 154.966 145.296 155.294 145.296C155.873 145.296 156.365 145.394 156.771 145.59C157.176 145.781 157.486 146.08 157.7 146.485C157.919 146.891 158.028 147.417 158.028 148.064V153H156.422V148.365C156.422 147.777 156.301 147.338 156.06 147.046C155.818 146.75 155.444 146.602 154.939 146.602C154.451 146.602 154.064 146.704 153.776 146.909C153.494 147.11 153.291 147.408 153.168 147.805C153.045 148.197 152.983 148.675 152.983 149.24V153H151.377V142.363H152.983ZM163.138 145.289C163.813 145.289 164.391 145.428 164.874 145.706C165.357 145.984 165.729 146.378 165.989 146.889C166.248 147.399 166.378 148.01 166.378 148.721V149.582H161.327C161.345 150.316 161.541 150.881 161.914 151.277C162.293 151.674 162.821 151.872 163.5 151.872C163.983 151.872 164.416 151.826 164.799 151.735C165.187 151.64 165.585 151.501 165.995 151.318V152.624C165.617 152.802 165.232 152.932 164.84 153.014C164.448 153.096 163.979 153.137 163.432 153.137C162.689 153.137 162.035 152.993 161.47 152.706C160.91 152.414 160.47 151.981 160.151 151.407C159.836 150.833 159.679 150.12 159.679 149.268C159.679 148.42 159.823 147.7 160.11 147.107C160.397 146.515 160.8 146.064 161.32 145.754C161.839 145.444 162.445 145.289 163.138 145.289ZM163.138 146.499C162.632 146.499 162.222 146.663 161.908 146.991C161.598 147.319 161.415 147.8 161.361 148.434H164.806C164.801 148.055 164.738 147.72 164.615 147.429C164.496 147.137 164.314 146.909 164.068 146.745C163.826 146.581 163.516 146.499 163.138 146.499ZM171.98 145.289C172.832 145.289 173.495 145.51 173.969 145.952C174.448 146.39 174.687 147.094 174.687 148.064V153H173.081V148.365C173.081 147.777 172.96 147.338 172.718 147.046C172.477 146.75 172.103 146.602 171.597 146.602C170.864 146.602 170.353 146.827 170.066 147.278C169.784 147.729 169.642 148.383 169.642 149.24V153H168.036V145.433H169.287L169.512 146.458H169.601C169.765 146.194 169.968 145.977 170.21 145.809C170.456 145.635 170.729 145.506 171.03 145.419C171.335 145.332 171.652 145.289 171.98 145.289ZM178.17 149.951H176.96L176.632 143.006H178.498L178.17 149.951ZM176.55 152.152C176.55 151.779 176.645 151.517 176.837 151.366C177.033 151.211 177.272 151.134 177.555 151.134C177.833 151.134 178.07 151.211 178.266 151.366C178.462 151.517 178.56 151.779 178.56 152.152C178.56 152.517 178.462 152.781 178.266 152.945C178.07 153.105 177.833 153.185 177.555 153.185C177.272 153.185 177.033 153.105 176.837 152.945C176.645 152.781 176.55 152.517 176.55 152.152ZM182.818 153.98H196.818V139.98H182.818V153.98ZM196.664 153.98H210.664V139.98H196.664V153.98ZM212.998 143.006L212.725 146.615H211.693L211.426 143.006H212.998ZM215.692 143.006L215.425 146.615H214.393L214.126 143.006H215.692Z" fill="black"/>
</svg>
