<svg width="36" height="40" viewBox="0 0 36 40" fill="none" xmlns="http://www.w3.org/2000/svg">
<g clip-path="url(#clip0_562_115)">
<path d="M18 0.732422C13.1152 0.732422 12.501 0.756512 10.5818 0.848052C8.6625 0.944411 7.35525 1.26721 6.21 1.74419C5.00871 2.22795 3.92061 2.9868 3.02175 3.96766C2.10617 4.93052 1.39749 6.09536 0.945 7.38117C0.4995 8.60493 0.19575 10.0069 0.108 12.0546C0.0225 14.1142 0 14.7695 0 20.0066C0 25.2388 0.0225 25.8941 0.108 27.9489C0.198 30.0014 0.4995 31.401 0.945 32.6271C1.40625 33.8943 2.0205 34.9687 3.02175 36.0407C4.02075 37.1126 5.02425 37.7727 6.20775 38.2641C7.35525 38.7411 8.66025 39.0663 10.5773 39.1603C12.4988 39.2518 13.1107 39.2759 18 39.2759C22.8893 39.2759 23.499 39.2518 25.4205 39.1603C27.3353 39.0639 28.647 38.7411 29.7923 38.2641C30.9928 37.7801 32.0801 37.0213 32.9782 36.0407C33.9795 34.9687 34.5937 33.8943 35.055 32.6271C35.4982 31.401 35.802 30.0014 35.892 27.9489C35.9775 25.8941 36 25.2388 36 20.0042C36 14.7695 35.9775 14.1142 35.892 12.057C35.802 10.0069 35.4982 8.60493 35.055 7.38117C34.6026 6.09533 33.8939 4.93047 32.9782 3.96766C32.0797 2.98643 30.9915 2.22754 29.79 1.74419C28.6425 1.26721 27.333 0.942002 25.4182 0.848052C23.4967 0.756512 22.887 0.732422 17.9955 0.732422H18.0023H18ZM16.3867 4.20615H18.0023C22.8083 4.20615 23.3775 4.22302 25.2742 4.31696C27.0292 4.40128 27.9832 4.71685 28.6177 4.97943C29.457 5.32873 30.0577 5.74789 30.6877 6.4224C31.3177 7.09691 31.707 7.7377 32.0333 8.63865C32.2808 9.31557 32.5733 10.337 32.652 12.216C32.7398 14.2467 32.7578 14.8562 32.7578 19.9993C32.7578 25.1425 32.7398 25.7544 32.652 27.7851C32.5733 29.6641 32.2785 30.6831 32.0333 31.3624C31.7447 32.1992 31.2841 32.9558 30.6855 33.5763C30.0555 34.2508 29.457 34.6675 28.6155 35.0168C27.9855 35.2818 27.0315 35.595 25.2742 35.6817C23.3775 35.7733 22.8083 35.7949 18.0023 35.7949C13.1963 35.7949 12.6248 35.7733 10.728 35.6817C8.973 35.595 8.02125 35.2818 7.38675 35.0168C6.60487 34.7083 5.89753 34.216 5.31675 33.5763C4.71769 32.9548 4.25638 32.1975 3.96675 31.36C3.7215 30.6831 3.42675 29.6617 3.348 27.7827C3.2625 25.752 3.2445 25.1425 3.2445 19.9945C3.2445 14.849 3.2625 14.2419 3.348 12.2111C3.429 10.3322 3.7215 9.31075 3.969 8.63142C4.29525 7.73288 4.68675 7.08969 5.31675 6.41517C5.94675 5.74066 6.54525 5.32391 7.38675 4.97461C8.02125 4.70963 8.973 4.39646 10.728 4.30974C12.3885 4.22783 13.032 4.20374 16.3867 4.20133V4.20615ZM27.6097 7.40526C27.3261 7.40526 27.0452 7.46508 26.7832 7.5813C26.5211 7.69752 26.283 7.86786 26.0824 8.08261C25.8818 8.29735 25.7227 8.55229 25.6142 8.83287C25.5056 9.11345 25.4497 9.41417 25.4497 9.71787C25.4497 10.0216 25.5056 10.3223 25.6142 10.6029C25.7227 10.8834 25.8818 11.1384 26.0824 11.3531C26.283 11.5679 26.5211 11.7382 26.7832 11.8544C27.0452 11.9707 27.3261 12.0305 27.6097 12.0305C28.1826 12.0305 28.732 11.7868 29.1371 11.3531C29.5422 10.9194 29.7697 10.3312 29.7697 9.71787C29.7697 9.10453 29.5422 8.51631 29.1371 8.08261C28.732 7.64891 28.1826 7.40526 27.6097 7.40526ZM18.0023 10.1081C16.7762 10.0876 15.5585 10.3285 14.4202 10.8167C13.2819 11.3049 12.2457 12.0306 11.3718 12.9517C10.498 13.8728 9.80407 14.9708 9.33039 16.1818C8.85672 17.3927 8.61278 18.6925 8.61278 20.0054C8.61278 21.3182 8.85672 22.618 9.33039 23.829C9.80407 25.0399 10.498 26.1379 11.3718 27.059C12.2457 27.9801 13.2819 28.7058 14.4202 29.194C15.5585 29.6822 16.7762 29.9231 18.0023 29.9026C20.429 29.8621 22.7435 28.8015 24.4462 26.9498C26.1489 25.0981 27.1033 22.6038 27.1033 20.0054C27.1033 17.4069 26.1489 14.9126 24.4462 13.0609C22.7435 11.2092 20.429 10.1487 18.0023 10.1081ZM18.0023 13.5794C19.5937 13.5794 21.1201 14.2563 22.2454 15.4612C23.3708 16.6661 24.003 18.3002 24.003 20.0042C24.003 21.7081 23.3708 23.3422 22.2454 24.5471C21.1201 25.752 19.5937 26.4289 18.0023 26.4289C16.4108 26.4289 14.8844 25.752 13.7591 24.5471C12.6337 23.3422 12.0015 21.7081 12.0015 20.0042C12.0015 18.3002 12.6337 16.6661 13.7591 15.4612C14.8844 14.2563 16.4108 13.5794 18.0023 13.5794Z" fill="white"/>
</g>
<defs>
<clipPath id="clip0_562_115">
<rect width="36" height="38.5435" fill="white" transform="translate(0 0.732422)"/>
</clipPath>
</defs>
</svg>
