<svg width="34" height="39" viewBox="0 0 34 39" fill="none" xmlns="http://www.w3.org/2000/svg">
<g clip-path="url(#clip0_709_185)">
<path d="M0 3.41059C0 1.92482 1.11775 0.720703 2.49687 0.720703H31.5031C32.8822 0.720703 34 1.92482 34 3.41059V35.586C34 37.0718 32.8822 38.2759 31.5031 38.2759H2.49687C1.11775 38.2759 0 37.0718 0 35.586V3.41059ZM10.5039 32.1591V15.2006H5.40175V32.1591H10.5039ZM7.95388 12.8839C9.7325 12.8839 10.8396 11.5835 10.8396 9.95458C10.8077 8.29042 9.73462 7.02528 7.98787 7.02528C6.24113 7.02528 5.1 8.29277 5.1 9.95458C5.1 11.5835 6.20713 12.8839 7.91988 12.8839H7.95388ZM18.3834 32.1591V22.6881C18.3834 22.1811 18.4174 21.6741 18.5534 21.3127C18.921 20.301 19.7604 19.2518 21.1714 19.2518C23.018 19.2518 23.7554 20.8057 23.7554 23.0872V32.1591H28.8575V22.4323C28.8575 17.2215 26.3415 14.7992 22.984 14.7992C20.2768 14.7992 19.0634 16.4422 18.3834 17.5994V17.6581H18.3494C18.3607 17.6385 18.372 17.6189 18.3834 17.5994V15.2006H13.2834C13.3471 16.792 13.2834 32.1591 13.2834 32.1591H18.3834Z" fill="white"/>
</g>
<defs>
<clipPath id="clip0_709_185">
<rect width="34" height="37.5552" fill="white" transform="translate(0 0.720703)"/>
</clipPath>
</defs>
</svg>
