<svg width="103" height="47" viewBox="0 0 103 47" fill="none" xmlns="http://www.w3.org/2000/svg">
<path d="M45.85 33.3938C48.3896 33.3938 50.4485 31.2743 50.4485 28.6598C50.4485 26.0453 48.3896 23.9258 45.85 23.9258C43.3103 23.9258 41.2515 26.0453 41.2515 28.6598C41.2515 31.2743 43.3103 33.3938 45.85 33.3938Z" stroke="white" stroke-width="2.5" stroke-miterlimit="10"/>
<path d="M68.2473 31.6493C74.8438 31.6493 80.1914 26.1442 80.1914 19.3534C80.1914 12.5625 74.8438 7.05737 68.2473 7.05737C61.6508 7.05737 56.3032 12.5625 56.3032 19.3534C56.3032 26.1442 61.6508 31.6493 68.2473 31.6493Z" stroke="white" stroke-width="2.5" stroke-miterlimit="10"/>
<path d="M32.1233 40.5557C32.1233 43.1714 30.0635 45.2897 27.5248 45.2897C24.986 45.2897 22.9263 43.1692 22.9263 40.5557" stroke="white" stroke-width="2.5" stroke-miterlimit="10"/>
<path d="M22.9263 40.5559V12.0304" stroke="white" stroke-width="2.5" stroke-miterlimit="10"/>
<path d="M91.8027 39.9189C91.8027 37.3032 93.8625 35.1849 96.4012 35.1849C98.94 35.1849 101 37.3054 101 39.9189" stroke="white" stroke-width="2.5" stroke-miterlimit="10"/>
<path d="M82.6035 39.9189C82.6035 37.3032 84.6633 35.1849 87.202 35.1849C89.7408 35.1849 91.8005 37.3054 91.8005 39.9189" stroke="white" stroke-width="2.5" stroke-miterlimit="10"/>
<path d="M101 39.9192V45.898" stroke="white" stroke-width="2.5" stroke-miterlimit="10"/>
<path d="M91.8027 39.9192V45.9268" stroke="white" stroke-width="2.5" stroke-miterlimit="10"/>
<path d="M82.6035 39.9192V45.898" stroke="white" stroke-width="2.5" stroke-miterlimit="10"/>
<path d="M9.19713 33.3938C11.7368 33.3938 13.7956 31.2743 13.7956 28.6598C13.7956 26.0453 11.7368 23.9258 9.19713 23.9258C6.65745 23.9258 4.59863 26.0453 4.59863 28.6598C4.59863 31.2743 6.65745 33.3938 9.19713 33.3938Z" stroke="white" stroke-width="2.5" stroke-miterlimit="10"/>
<path d="M4.5985 23.9258C4.5985 26.5415 2.53873 28.6598 0 28.6598" stroke="white" stroke-width="2.5" stroke-miterlimit="10"/>
<path d="M4.59839 28.6599V0.136597" stroke="white" stroke-width="2.5" stroke-miterlimit="10"/>
</svg>
