<svg width="103" height="47" viewBox="0 0 103 47" fill="none" xmlns="http://www.w3.org/2000/svg">
<path d="M45.8505 33.4102C48.3901 33.4102 50.449 31.281 50.449 28.6544C50.449 26.0279 48.3901 23.8987 45.8505 23.8987C43.3108 23.8987 41.252 26.0279 41.252 28.6544C41.252 31.281 43.3108 33.4102 45.8505 33.4102Z" stroke="#FF999A" stroke-width="2.5" stroke-miterlimit="10"/>
<path d="M68.2478 31.6579C74.8443 31.6579 80.1919 26.1275 80.1919 19.3054C80.1919 12.4833 74.8443 6.95288 68.2478 6.95288C61.6513 6.95288 56.3037 12.4833 56.3037 19.3054C56.3037 26.1275 61.6513 31.6579 68.2478 31.6579Z" stroke="#FFD392" stroke-width="2.5" stroke-miterlimit="10"/>
<path d="M32.1228 40.6057C32.1228 43.2335 30.063 45.3615 27.5243 45.3615C24.9855 45.3615 22.9258 43.2313 22.9258 40.6057" stroke="#FF999A" stroke-width="2.5" stroke-miterlimit="10"/>
<path d="M22.9258 40.6059V11.9492" stroke="#FF999A" stroke-width="2.5" stroke-miterlimit="10"/>
<path d="M91.8027 39.9647C91.8027 37.337 93.8625 35.209 96.4012 35.209C98.94 35.209 101 37.3392 101 39.9647" stroke="#B0D0FF" stroke-width="2.5" stroke-miterlimit="10"/>
<path d="M82.6035 39.9647C82.6035 37.337 84.6633 35.209 87.202 35.209C89.7408 35.209 91.8005 37.3392 91.8005 39.9647" stroke="#B0D0FF" stroke-width="2.5" stroke-miterlimit="10"/>
<path d="M101 39.9648V45.9712" stroke="#B0D0FF" stroke-width="2.5" stroke-miterlimit="10"/>
<path d="M91.8027 39.9648V46" stroke="#B0D0FF" stroke-width="2.5" stroke-miterlimit="10"/>
<path d="M82.6035 39.9648V45.9712" stroke="#B0D0FF" stroke-width="2.5" stroke-miterlimit="10"/>
<path d="M9.19713 33.4102C11.7368 33.4102 13.7956 31.281 13.7956 28.6544C13.7956 26.0279 11.7368 23.8987 9.19713 23.8987C6.65745 23.8987 4.59863 26.0279 4.59863 28.6544C4.59863 31.281 6.65745 33.4102 9.19713 33.4102Z" stroke="#FF999A" stroke-width="2.5" stroke-miterlimit="10"/>
<path d="M4.5985 23.8987C4.5985 26.5264 2.53873 28.6544 0 28.6544" stroke="#FF999A" stroke-width="2.5" stroke-miterlimit="10"/>
<path d="M4.59839 28.6544V0" stroke="#FF999A" stroke-width="2.5" stroke-miterlimit="10"/>
</svg>
