<svg width="43" height="36" viewBox="0 0 43 36" fill="none" xmlns="http://www.w3.org/2000/svg">
<path d="M13.4755 35.3093C29.3875 35.3093 38.0919 21.7364 38.0919 9.98663C38.0919 9.60681 38.0919 9.22157 38.0761 8.84176C39.7708 7.57884 41.2334 6.01527 42.3954 4.22432C40.8124 4.94284 39.1349 5.4164 37.4173 5.62962C39.2265 4.51633 40.5816 2.76466 41.2306 0.70019C39.5308 1.73687 37.6703 2.46462 35.7307 2.85156C34.4267 1.4219 32.7012 0.474792 30.8213 0.156942C28.9415 -0.160908 27.0124 0.168239 25.3327 1.0934C23.653 2.01856 22.3165 3.4881 21.5302 5.27439C20.7439 7.06068 20.5518 9.06404 20.9835 10.9741C17.5438 10.7966 14.1787 9.87666 11.1065 8.27405C8.03432 6.67145 5.32369 4.42194 3.15039 1.67143C2.04709 3.63312 1.71039 5.95355 2.20865 8.16153C2.70692 10.3695 4.00279 12.2995 5.83313 13.5596C4.46156 13.5116 3.12014 13.1325 1.91707 12.4527V12.5748C1.91943 14.6298 2.61096 16.6209 3.87477 18.2116C5.13857 19.8024 6.89713 20.8951 8.8532 21.3051C8.11073 21.5156 7.34377 21.6206 6.57365 21.6171C6.03074 21.6187 5.48891 21.567 4.95558 21.4624C5.50843 23.2314 6.58492 24.7781 8.03426 25.8858C9.48361 26.9935 11.2332 27.6068 13.0381 27.6398C9.97203 30.1189 6.18469 31.4635 2.28601 31.4569C1.59904 31.4599 0.912547 31.4191 0.230469 31.3348C4.18742 33.9319 8.78283 35.3108 13.4755 35.3093Z" fill="white"/>
</svg>
