<svg width="422" height="429" viewBox="0 0 422 429" fill="none" xmlns="http://www.w3.org/2000/svg">
<rect width="422" height="429" fill="#FFDBE5"/>
<path d="M106.938 176H94V153.156H106.938V156.312H97.75V162.516H106.359V165.656H97.75V172.828H106.938V176ZM121.734 176L115.156 156.922H115.016C115.047 157.349 115.083 157.932 115.125 158.672C115.167 159.411 115.203 160.203 115.234 161.047C115.266 161.891 115.281 162.698 115.281 163.469V176H111.875V153.156H117.141L123.469 171.391H123.562L130.109 153.156H135.359V176H131.781V163.281C131.781 162.583 131.792 161.828 131.812 161.016C131.844 160.203 131.875 159.432 131.906 158.703C131.948 157.974 131.979 157.391 132 156.953H131.875L125.047 176H121.734ZM151.234 176L144.656 156.922H144.516C144.547 157.349 144.583 157.932 144.625 158.672C144.667 159.411 144.703 160.203 144.734 161.047C144.766 161.891 144.781 162.698 144.781 163.469V176H141.375V153.156H146.641L152.969 171.391H153.062L159.609 153.156H164.859V176H161.281V163.281C161.281 162.583 161.292 161.828 161.312 161.016C161.344 160.203 161.375 159.432 161.406 158.703C161.448 157.974 161.479 157.391 161.5 156.953H161.375L154.547 176H151.234ZM185.031 176L182.797 169.656H174.062L171.828 176H167.875L176.375 153.062H180.531L189.016 176H185.031ZM181.828 166.438L179.656 160.188C179.573 159.917 179.453 159.536 179.297 159.047C179.141 158.547 178.984 158.042 178.828 157.531C178.672 157.01 178.542 156.573 178.438 156.219C178.333 156.646 178.203 157.125 178.047 157.656C177.901 158.177 177.755 158.667 177.609 159.125C177.474 159.583 177.37 159.938 177.297 160.188L175.109 166.438H181.828ZM210.203 176L203.625 156.922H203.484C203.516 157.349 203.552 157.932 203.594 158.672C203.635 159.411 203.672 160.203 203.703 161.047C203.734 161.891 203.75 162.698 203.75 163.469V176H200.344V153.156H205.609L211.938 171.391H212.031L218.578 153.156H223.828V176H220.25V163.281C220.25 162.583 220.26 161.828 220.281 161.016C220.312 160.203 220.344 159.432 220.375 158.703C220.417 157.974 220.448 157.391 220.469 156.953H220.344L213.516 176H210.203ZM244 176L241.766 169.656H233.031L230.797 176H226.844L235.344 153.062H239.5L247.984 176H244ZM240.797 166.438L238.625 160.188C238.542 159.917 238.422 159.536 238.266 159.047C238.109 158.547 237.953 158.042 237.797 157.531C237.641 157.01 237.51 156.573 237.406 156.219C237.302 156.646 237.172 157.125 237.016 157.656C236.87 158.177 236.724 158.667 236.578 159.125C236.443 159.583 236.339 159.938 236.266 160.188L234.078 166.438H240.797ZM269.547 164.359C269.547 166.932 269.068 169.083 268.109 170.812C267.151 172.531 265.76 173.828 263.938 174.703C262.115 175.568 259.917 176 257.344 176H251V153.156H258.031C260.396 153.156 262.438 153.583 264.156 154.438C265.875 155.281 267.203 156.536 268.141 158.203C269.078 159.859 269.547 161.911 269.547 164.359ZM265.641 164.469C265.641 162.594 265.344 161.052 264.75 159.844C264.167 158.635 263.302 157.74 262.156 157.156C261.021 156.562 259.62 156.266 257.953 156.266H254.75V172.859H257.406C260.167 172.859 262.229 172.156 263.594 170.75C264.958 169.344 265.641 167.25 265.641 164.469ZM287.656 169.781C287.656 171.135 287.323 172.302 286.656 173.281C286 174.26 285.052 175.01 283.812 175.531C282.583 176.052 281.115 176.312 279.406 176.312C278.573 176.312 277.776 176.266 277.016 176.172C276.255 176.078 275.536 175.943 274.859 175.766C274.193 175.578 273.583 175.354 273.031 175.094V171.562C273.958 171.969 274.995 172.339 276.141 172.672C277.286 172.995 278.453 173.156 279.641 173.156C280.609 173.156 281.411 173.031 282.047 172.781C282.693 172.521 283.172 172.156 283.484 171.688C283.797 171.208 283.953 170.651 283.953 170.016C283.953 169.339 283.771 168.766 283.406 168.297C283.042 167.828 282.49 167.401 281.75 167.016C281.021 166.62 280.104 166.198 279 165.75C278.25 165.448 277.531 165.104 276.844 164.719C276.167 164.333 275.562 163.88 275.031 163.359C274.5 162.839 274.078 162.224 273.766 161.516C273.464 160.797 273.312 159.953 273.312 158.984C273.312 157.693 273.62 156.589 274.234 155.672C274.859 154.755 275.734 154.052 276.859 153.562C277.995 153.073 279.318 152.828 280.828 152.828C282.026 152.828 283.151 152.953 284.203 153.203C285.266 153.453 286.307 153.807 287.328 154.266L286.141 157.281C285.203 156.896 284.292 156.589 283.406 156.359C282.531 156.13 281.635 156.016 280.719 156.016C279.927 156.016 279.255 156.135 278.703 156.375C278.151 156.615 277.729 156.953 277.438 157.391C277.156 157.818 277.016 158.328 277.016 158.922C277.016 159.589 277.177 160.151 277.5 160.609C277.833 161.057 278.344 161.469 279.031 161.844C279.729 162.219 280.625 162.635 281.719 163.094C282.979 163.615 284.047 164.161 284.922 164.734C285.807 165.307 286.484 165.995 286.953 166.797C287.422 167.589 287.656 168.583 287.656 169.781ZM305 176H292.062V153.156H305V156.312H295.812V162.516H304.422V165.656H295.812V172.828H305V176ZM329 176H324.391L313.203 157.766H313.062C313.104 158.38 313.141 159.031 313.172 159.719C313.214 160.406 313.245 161.115 313.266 161.844C313.297 162.573 313.323 163.312 313.344 164.062V176H309.938V153.156H314.516L325.688 171.266H325.797C325.776 170.734 325.75 170.125 325.719 169.438C325.688 168.75 325.656 168.042 325.625 167.312C325.604 166.573 325.589 165.859 325.578 165.172V153.156H329V176ZM71.7539 228.725C71.7539 230.333 71.4609 231.677 70.875 232.758C70.2891 233.832 69.4395 234.643 68.3262 235.189C67.2194 235.73 65.875 236 64.293 236H60.416V221.723H64.7227C66.1745 221.723 67.4245 221.99 68.4727 222.523C69.5208 223.051 70.3281 223.835 70.8945 224.877C71.4674 225.912 71.7539 227.195 71.7539 228.725ZM70.0059 228.783C70.0059 227.501 69.791 226.443 69.3613 225.609C68.9382 224.776 68.3132 224.158 67.4863 223.754C66.666 223.344 65.6602 223.139 64.4688 223.139H62.0762V234.574H64.0977C66.0638 234.574 67.5384 234.089 68.5215 233.119C69.5111 232.149 70.0059 230.704 70.0059 228.783ZM74.9277 236V221.723H76.5879V236H74.9277ZM86.6172 228.52H91.6074V235.443C90.8587 235.697 90.0872 235.886 89.293 236.01C88.5052 236.133 87.623 236.195 86.6465 236.195C85.1621 236.195 83.9089 235.899 82.8867 235.307C81.8711 234.714 81.0996 233.871 80.5723 232.777C80.0449 231.677 79.7812 230.372 79.7812 228.861C79.7812 227.383 80.071 226.094 80.6504 224.994C81.2363 223.894 82.0794 223.041 83.1797 222.436C84.2865 221.824 85.6146 221.518 87.1641 221.518C87.9583 221.518 88.7103 221.592 89.4199 221.742C90.1361 221.885 90.8001 222.09 91.4121 222.357L90.7773 223.803C90.25 223.575 89.6673 223.38 89.0293 223.217C88.3978 223.054 87.7435 222.973 87.0664 222.973C85.901 222.973 84.9017 223.214 84.0684 223.695C83.2415 224.177 82.6068 224.857 82.1641 225.736C81.7279 226.615 81.5098 227.657 81.5098 228.861C81.5098 230.053 81.7018 231.091 82.0859 231.977C82.4701 232.855 83.069 233.539 83.8828 234.027C84.6966 234.516 85.7448 234.76 87.0273 234.76C87.6719 234.76 88.2253 234.724 88.6875 234.652C89.1497 234.574 89.5697 234.483 89.9473 234.379V230.004H86.6172V228.52ZM95.0645 236V221.723H96.7246V236H95.0645ZM105.035 236H103.365V223.188H98.873V221.723H109.508V223.188H105.035V236ZM120.621 236L118.863 231.469H113.141L111.393 236H109.713L115.299 221.664H116.793L122.34 236H120.621ZM118.365 229.994L116.695 225.492C116.656 225.375 116.591 225.183 116.5 224.916C116.415 224.649 116.327 224.372 116.236 224.086C116.145 223.799 116.07 223.568 116.012 223.393C115.947 223.66 115.875 223.926 115.797 224.193C115.725 224.454 115.654 224.698 115.582 224.926C115.51 225.147 115.449 225.336 115.396 225.492L113.697 229.994H118.365ZM124.322 236V221.723H125.982V234.516H132.32V236H124.322ZM146.246 236L141.451 223.363H141.373C141.399 223.63 141.422 223.956 141.441 224.34C141.461 224.724 141.477 225.144 141.49 225.6C141.503 226.049 141.51 226.508 141.51 226.977V236H139.967V221.723H142.428L146.949 233.598H147.018L151.607 221.723H154.049V236H152.408V226.859C152.408 226.436 152.415 226.013 152.428 225.59C152.441 225.16 152.457 224.757 152.477 224.379C152.496 223.995 152.516 223.663 152.535 223.383H152.457L147.604 236H146.246ZM166.91 236L165.152 231.469H159.43L157.682 236H156.002L161.588 221.664H163.082L168.629 236H166.91ZM164.654 229.994L162.984 225.492C162.945 225.375 162.88 225.183 162.789 224.916C162.704 224.649 162.617 224.372 162.525 224.086C162.434 223.799 162.359 223.568 162.301 223.393C162.236 223.66 162.164 223.926 162.086 224.193C162.014 224.454 161.943 224.698 161.871 224.926C161.799 225.147 161.738 225.336 161.686 225.492L159.986 229.994H164.654ZM174.469 221.723C175.641 221.723 176.607 221.869 177.369 222.162C178.137 222.449 178.71 222.888 179.088 223.48C179.465 224.073 179.654 224.828 179.654 225.746C179.654 226.501 179.518 227.133 179.244 227.641C178.971 228.142 178.613 228.549 178.17 228.861C177.727 229.174 177.255 229.415 176.754 229.584L180.67 236H178.736L175.24 230.043H172.271V236H170.611V221.723H174.469ZM174.371 223.158H172.271V228.637H174.537C175.702 228.637 176.559 228.399 177.105 227.924C177.659 227.449 177.936 226.749 177.936 225.824C177.936 224.854 177.643 224.167 177.057 223.764C176.477 223.36 175.582 223.158 174.371 223.158ZM193.248 236H191.285L186.139 229.057L184.615 230.424V236H182.955V221.723H184.615V228.842C184.986 228.419 185.367 227.999 185.758 227.582C186.148 227.159 186.536 226.732 186.92 226.303L191.09 221.723H193.033L187.35 227.914L193.248 236ZM203.15 236H195.201V221.723H203.15V223.188H196.861V227.807H202.789V229.252H196.861V234.535H203.15V236ZM210.699 236H209.029V223.188H204.537V221.723H215.172V223.188H210.699V236ZM217.33 236V221.723H218.99V236H217.33ZM234.078 236H232.164L224.381 224.008H224.303C224.322 224.327 224.345 224.691 224.371 225.102C224.397 225.505 224.417 225.938 224.43 226.4C224.449 226.856 224.459 227.322 224.459 227.797V236H222.916V221.723H224.82L232.574 233.676H232.643C232.63 233.448 232.613 233.126 232.594 232.709C232.574 232.286 232.555 231.833 232.535 231.352C232.522 230.863 232.516 230.411 232.516 229.994V221.723H234.078V236ZM244.078 228.52H249.068V235.443C248.32 235.697 247.548 235.886 246.754 236.01C245.966 236.133 245.084 236.195 244.107 236.195C242.623 236.195 241.37 235.899 240.348 235.307C239.332 234.714 238.561 233.871 238.033 232.777C237.506 231.677 237.242 230.372 237.242 228.861C237.242 227.383 237.532 226.094 238.111 224.994C238.697 223.894 239.54 223.041 240.641 222.436C241.747 221.824 243.076 221.518 244.625 221.518C245.419 221.518 246.171 221.592 246.881 221.742C247.597 221.885 248.261 222.09 248.873 222.357L248.238 223.803C247.711 223.575 247.128 223.38 246.49 223.217C245.859 223.054 245.204 222.973 244.527 222.973C243.362 222.973 242.363 223.214 241.529 223.695C240.702 224.177 240.068 224.857 239.625 225.736C239.189 226.615 238.971 227.657 238.971 228.861C238.971 230.053 239.163 231.091 239.547 231.977C239.931 232.855 240.53 233.539 241.344 234.027C242.158 234.516 243.206 234.76 244.488 234.76C245.133 234.76 245.686 234.724 246.148 234.652C246.611 234.574 247.031 234.483 247.408 234.379V230.004H244.078V228.52ZM260.582 232.201C260.582 233.048 260.37 233.77 259.947 234.369C259.531 234.962 258.945 235.414 258.189 235.727C257.434 236.039 256.546 236.195 255.523 236.195C254.983 236.195 254.472 236.169 253.99 236.117C253.508 236.065 253.066 235.99 252.662 235.893C252.258 235.795 251.904 235.674 251.598 235.531V233.939C252.086 234.141 252.682 234.33 253.385 234.506C254.088 234.675 254.824 234.76 255.592 234.76C256.308 234.76 256.913 234.665 257.408 234.477C257.903 234.281 258.277 234.005 258.531 233.646C258.792 233.282 258.922 232.846 258.922 232.338C258.922 231.85 258.814 231.443 258.6 231.117C258.385 230.785 258.027 230.486 257.525 230.219C257.031 229.945 256.354 229.656 255.494 229.35C254.889 229.135 254.355 228.9 253.893 228.646C253.43 228.386 253.043 228.093 252.73 227.768C252.418 227.442 252.18 227.064 252.018 226.635C251.861 226.205 251.783 225.714 251.783 225.16C251.783 224.398 251.975 223.747 252.359 223.207C252.75 222.66 253.287 222.243 253.971 221.957C254.661 221.664 255.452 221.518 256.344 221.518C257.105 221.518 257.809 221.589 258.453 221.732C259.104 221.876 259.7 222.068 260.24 222.309L259.723 223.734C259.208 223.52 258.661 223.34 258.082 223.197C257.509 223.054 256.917 222.982 256.305 222.982C255.693 222.982 255.175 223.074 254.752 223.256C254.335 223.432 254.016 223.682 253.795 224.008C253.574 224.333 253.463 224.721 253.463 225.17C253.463 225.671 253.567 226.088 253.775 226.42C253.99 226.752 254.329 227.048 254.791 227.309C255.26 227.562 255.878 227.829 256.646 228.109C257.486 228.415 258.199 228.741 258.785 229.086C259.371 229.424 259.817 229.841 260.123 230.336C260.429 230.824 260.582 231.446 260.582 232.201ZM271.559 232.201C271.559 233.048 271.347 233.77 270.924 234.369C270.507 234.962 269.921 235.414 269.166 235.727C268.411 236.039 267.522 236.195 266.5 236.195C265.96 236.195 265.449 236.169 264.967 236.117C264.485 236.065 264.042 235.99 263.639 235.893C263.235 235.795 262.88 235.674 262.574 235.531V233.939C263.062 234.141 263.658 234.33 264.361 234.506C265.064 234.675 265.8 234.76 266.568 234.76C267.285 234.76 267.89 234.665 268.385 234.477C268.88 234.281 269.254 234.005 269.508 233.646C269.768 233.282 269.898 232.846 269.898 232.338C269.898 231.85 269.791 231.443 269.576 231.117C269.361 230.785 269.003 230.486 268.502 230.219C268.007 229.945 267.33 229.656 266.471 229.35C265.865 229.135 265.331 228.9 264.869 228.646C264.407 228.386 264.02 228.093 263.707 227.768C263.395 227.442 263.157 227.064 262.994 226.635C262.838 226.205 262.76 225.714 262.76 225.16C262.76 224.398 262.952 223.747 263.336 223.207C263.727 222.66 264.264 222.243 264.947 221.957C265.637 221.664 266.428 221.518 267.32 221.518C268.082 221.518 268.785 221.589 269.43 221.732C270.081 221.876 270.676 222.068 271.217 222.309L270.699 223.734C270.185 223.52 269.638 223.34 269.059 223.197C268.486 223.054 267.893 222.982 267.281 222.982C266.669 222.982 266.152 223.074 265.729 223.256C265.312 223.432 264.993 223.682 264.771 224.008C264.55 224.333 264.439 224.721 264.439 225.17C264.439 225.671 264.544 226.088 264.752 226.42C264.967 226.752 265.305 227.048 265.768 227.309C266.236 227.562 266.855 227.829 267.623 228.109C268.463 228.415 269.176 228.741 269.762 229.086C270.348 229.424 270.794 229.841 271.1 230.336C271.406 230.824 271.559 231.446 271.559 232.201ZM278.209 221.723C280.051 221.723 281.396 222.084 282.242 222.807C283.095 223.523 283.521 224.551 283.521 225.893C283.521 226.498 283.421 227.074 283.219 227.621C283.023 228.161 282.704 228.64 282.262 229.057C281.819 229.467 281.236 229.792 280.514 230.033C279.798 230.268 278.919 230.385 277.877 230.385H276.139V236H274.479V221.723H278.209ZM278.053 223.139H276.139V228.959H277.691C278.603 228.959 279.361 228.861 279.967 228.666C280.579 228.471 281.038 228.155 281.344 227.719C281.65 227.276 281.803 226.69 281.803 225.961C281.803 225.01 281.5 224.304 280.895 223.842C280.289 223.373 279.342 223.139 278.053 223.139ZM294.459 236H286.51V221.723H294.459V223.188H288.17V227.807H294.098V229.252H288.17V234.535H294.459V236ZM303.727 222.982C302.939 222.982 302.229 223.119 301.598 223.393C300.973 223.66 300.439 224.05 299.996 224.564C299.56 225.072 299.225 225.688 298.99 226.41C298.756 227.133 298.639 227.947 298.639 228.852C298.639 230.049 298.824 231.091 299.195 231.977C299.573 232.855 300.133 233.536 300.875 234.018C301.624 234.499 302.558 234.74 303.678 234.74C304.316 234.74 304.915 234.688 305.475 234.584C306.041 234.473 306.591 234.337 307.125 234.174V235.619C306.604 235.814 306.057 235.958 305.484 236.049C304.911 236.146 304.231 236.195 303.443 236.195C301.992 236.195 300.777 235.896 299.801 235.297C298.831 234.691 298.102 233.839 297.613 232.738C297.132 231.638 296.891 230.339 296.891 228.842C296.891 227.761 297.04 226.775 297.34 225.883C297.646 224.984 298.089 224.21 298.668 223.559C299.254 222.908 299.97 222.406 300.816 222.055C301.669 221.697 302.646 221.518 303.746 221.518C304.469 221.518 305.165 221.589 305.836 221.732C306.507 221.876 307.112 222.081 307.652 222.348L306.988 223.754C306.533 223.546 306.031 223.367 305.484 223.217C304.944 223.061 304.358 222.982 303.727 222.982ZM310.221 236V221.723H311.881V236H310.221ZM324.762 236L323.004 231.469H317.281L315.533 236H313.854L319.439 221.664H320.934L326.48 236H324.762ZM322.506 229.994L320.836 225.492C320.797 225.375 320.732 225.183 320.641 224.916C320.556 224.649 320.468 224.372 320.377 224.086C320.286 223.799 320.211 223.568 320.152 223.393C320.087 223.66 320.016 223.926 319.938 224.193C319.866 224.454 319.794 224.698 319.723 224.926C319.651 225.147 319.589 225.336 319.537 225.492L317.838 229.994H322.506ZM328.463 236V221.723H330.123V234.516H336.461V236H328.463ZM338.912 236V221.723H340.572V236H338.912ZM352.555 232.201C352.555 233.048 352.343 233.77 351.92 234.369C351.503 234.962 350.917 235.414 350.162 235.727C349.407 236.039 348.518 236.195 347.496 236.195C346.956 236.195 346.445 236.169 345.963 236.117C345.481 236.065 345.038 235.99 344.635 235.893C344.231 235.795 343.876 235.674 343.57 235.531V233.939C344.059 234.141 344.654 234.33 345.357 234.506C346.061 234.675 346.796 234.76 347.564 234.76C348.281 234.76 348.886 234.665 349.381 234.477C349.876 234.281 350.25 234.005 350.504 233.646C350.764 233.282 350.895 232.846 350.895 232.338C350.895 231.85 350.787 231.443 350.572 231.117C350.357 230.785 349.999 230.486 349.498 230.219C349.003 229.945 348.326 229.656 347.467 229.35C346.861 229.135 346.327 228.9 345.865 228.646C345.403 228.386 345.016 228.093 344.703 227.768C344.391 227.442 344.153 227.064 343.99 226.635C343.834 226.205 343.756 225.714 343.756 225.16C343.756 224.398 343.948 223.747 344.332 223.207C344.723 222.66 345.26 222.243 345.943 221.957C346.633 221.664 347.424 221.518 348.316 221.518C349.078 221.518 349.781 221.589 350.426 221.732C351.077 221.876 351.673 222.068 352.213 222.309L351.695 223.734C351.181 223.52 350.634 223.34 350.055 223.197C349.482 223.054 348.889 222.982 348.277 222.982C347.665 222.982 347.148 223.074 346.725 223.256C346.308 223.432 345.989 223.682 345.768 224.008C345.546 224.333 345.436 224.721 345.436 225.17C345.436 225.671 345.54 226.088 345.748 226.42C345.963 226.752 346.301 227.048 346.764 227.309C347.232 227.562 347.851 227.829 348.619 228.109C349.459 228.415 350.172 228.741 350.758 229.086C351.344 229.424 351.79 229.841 352.096 230.336C352.402 230.824 352.555 231.446 352.555 232.201ZM359.859 236H358.189V223.188H353.697V221.723H364.332V223.188H359.859V236ZM62.0371 296H54.0879V281.723H62.0371V283.188H55.748V287.807H61.6758V289.252H55.748V294.535H62.0371V296ZM64.0488 291.352V289.906H68.8926V291.352H64.0488ZM77.9258 296L73.1309 283.363H73.0527C73.0788 283.63 73.1016 283.956 73.1211 284.34C73.1406 284.724 73.1569 285.144 73.1699 285.6C73.1829 286.049 73.1895 286.508 73.1895 286.977V296H71.6465V281.723H74.1074L78.6289 293.598H78.6973L83.2871 281.723H85.7285V296H84.0879V286.859C84.0879 286.436 84.0944 286.013 84.1074 285.59C84.1204 285.16 84.1367 284.757 84.1562 284.379C84.1758 283.995 84.1953 283.663 84.2148 283.383H84.1367L79.2832 296H77.9258ZM98.5898 296L96.832 291.469H91.1094L89.3613 296H87.6816L93.2676 281.664H94.7617L100.309 296H98.5898ZM96.334 289.994L94.6641 285.492C94.625 285.375 94.5599 285.183 94.4688 284.916C94.3841 284.649 94.2962 284.372 94.2051 284.086C94.1139 283.799 94.0391 283.568 93.9805 283.393C93.9154 283.66 93.8438 283.926 93.7656 284.193C93.694 284.454 93.6224 284.698 93.5508 284.926C93.4792 285.147 93.4173 285.336 93.3652 285.492L91.666 289.994H96.334ZM102.291 296V281.723H103.951V296H102.291ZM107.877 296V281.723H109.537V294.516H115.875V296H107.877ZM117.838 294.984C117.838 294.529 117.949 294.206 118.17 294.018C118.391 293.822 118.661 293.725 118.98 293.725C119.312 293.725 119.592 293.822 119.82 294.018C120.048 294.206 120.162 294.529 120.162 294.984C120.162 295.434 120.048 295.762 119.82 295.971C119.592 296.173 119.312 296.273 118.98 296.273C118.661 296.273 118.391 296.173 118.17 295.971C117.949 295.762 117.838 295.434 117.838 294.984ZM117.838 286.322C117.838 285.854 117.949 285.525 118.17 285.336C118.391 285.141 118.661 285.043 118.98 285.043C119.312 285.043 119.592 285.141 119.82 285.336C120.048 285.525 120.162 285.854 120.162 286.322C120.162 286.765 120.048 287.087 119.82 287.289C119.592 287.491 119.312 287.592 118.98 287.592C118.661 287.592 118.391 287.491 118.17 287.289C117.949 287.087 117.838 286.765 117.838 286.322ZM136.725 296H128.775V281.723H136.725V283.188H130.436V287.807H136.363V289.252H130.436V294.535H136.725V296ZM146.168 296L141.373 283.363H141.295C141.321 283.63 141.344 283.956 141.363 284.34C141.383 284.724 141.399 285.144 141.412 285.6C141.425 286.049 141.432 286.508 141.432 286.977V296H139.889V281.723H142.35L146.871 293.598H146.939L151.529 281.723H153.971V296H152.33V286.859C152.33 286.436 152.337 286.013 152.35 285.59C152.363 285.16 152.379 284.757 152.398 284.379C152.418 283.995 152.438 283.663 152.457 283.383H152.379L147.525 296H146.168ZM164.156 296L159.361 283.363H159.283C159.309 283.63 159.332 283.956 159.352 284.34C159.371 284.724 159.387 285.144 159.4 285.6C159.413 286.049 159.42 286.508 159.42 286.977V296H157.877V281.723H160.338L164.859 293.598H164.928L169.518 281.723H171.959V296H170.318V286.859C170.318 286.436 170.325 286.013 170.338 285.59C170.351 285.16 170.367 284.757 170.387 284.379C170.406 283.995 170.426 283.663 170.445 283.383H170.367L165.514 296H164.156ZM184.82 296L183.062 291.469H177.34L175.592 296H173.912L179.498 281.664H180.992L186.539 296H184.82ZM182.564 289.994L180.895 285.492C180.855 285.375 180.79 285.183 180.699 284.916C180.615 284.649 180.527 284.372 180.436 284.086C180.344 283.799 180.27 283.568 180.211 283.393C180.146 283.66 180.074 283.926 179.996 284.193C179.924 284.454 179.853 284.698 179.781 284.926C179.71 285.147 179.648 285.336 179.596 285.492L177.896 289.994H182.564ZM203.355 288.871C203.355 289.49 203.284 290.095 203.141 290.688C203.004 291.273 202.792 291.804 202.506 292.279C202.219 292.748 201.861 293.122 201.432 293.402C201.008 293.682 200.507 293.822 199.928 293.822C199.322 293.822 198.84 293.646 198.482 293.295C198.124 292.943 197.91 292.527 197.838 292.045H197.75C197.503 292.559 197.138 292.986 196.656 293.324C196.181 293.656 195.595 293.822 194.898 293.822C193.883 293.822 193.098 293.487 192.545 292.816C191.998 292.139 191.725 291.241 191.725 290.121C191.725 289.249 191.897 288.477 192.242 287.807C192.594 287.13 193.085 286.599 193.717 286.215C194.355 285.824 195.107 285.629 195.973 285.629C196.552 285.629 197.115 285.678 197.662 285.775C198.209 285.873 198.645 285.98 198.971 286.098L198.775 290.033C198.769 290.274 198.762 290.46 198.756 290.59C198.749 290.714 198.746 290.811 198.746 290.883C198.746 291.586 198.87 292.061 199.117 292.309C199.371 292.549 199.677 292.67 200.035 292.67C200.471 292.67 200.836 292.501 201.129 292.162C201.428 291.817 201.656 291.358 201.812 290.785C201.969 290.206 202.047 289.564 202.047 288.861C202.047 287.618 201.796 286.557 201.295 285.678C200.794 284.799 200.1 284.128 199.215 283.666C198.336 283.204 197.324 282.973 196.178 282.973C195.038 282.973 194.026 283.152 193.141 283.51C192.262 283.868 191.516 284.376 190.904 285.033C190.299 285.684 189.84 286.459 189.527 287.357C189.215 288.256 189.059 289.249 189.059 290.336C189.059 291.664 189.293 292.794 189.762 293.725C190.237 294.656 190.93 295.365 191.842 295.854C192.76 296.335 193.876 296.576 195.191 296.576C195.986 296.576 196.751 296.488 197.486 296.312C198.222 296.137 198.88 295.938 199.459 295.717V296.986C198.886 297.227 198.245 297.423 197.535 297.572C196.826 297.729 196.044 297.807 195.191 297.807C193.622 297.807 192.281 297.51 191.168 296.918C190.055 296.332 189.202 295.486 188.609 294.379C188.017 293.272 187.721 291.944 187.721 290.395C187.721 289.138 187.913 287.982 188.297 286.928C188.688 285.873 189.247 284.958 189.977 284.184C190.712 283.409 191.601 282.81 192.643 282.387C193.691 281.957 194.869 281.742 196.178 281.742C197.577 281.742 198.814 282.032 199.889 282.611C200.969 283.184 201.816 284.005 202.428 285.072C203.046 286.133 203.355 287.4 203.355 288.871ZM193.18 290.16C193.18 291.026 193.352 291.661 193.697 292.064C194.042 292.468 194.521 292.67 195.133 292.67C195.888 292.67 196.441 292.387 196.793 291.82C197.151 291.254 197.356 290.505 197.408 289.574L197.525 287.025C197.337 286.967 197.105 286.918 196.832 286.879C196.565 286.833 196.285 286.811 195.992 286.811C195.322 286.811 194.778 286.97 194.361 287.289C193.951 287.608 193.652 288.021 193.463 288.529C193.274 289.037 193.18 289.581 193.18 290.16ZM206.451 281.723H210.494C212.278 281.723 213.619 281.99 214.518 282.523C215.416 283.057 215.865 283.965 215.865 285.248C215.865 285.801 215.758 286.299 215.543 286.742C215.335 287.178 215.029 287.54 214.625 287.826C214.221 288.113 213.723 288.311 213.131 288.422V288.52C213.756 288.617 214.309 288.796 214.791 289.057C215.273 289.317 215.65 289.682 215.924 290.15C216.197 290.619 216.334 291.215 216.334 291.938C216.334 292.816 216.129 293.559 215.719 294.164C215.315 294.77 214.742 295.229 214 295.541C213.258 295.847 212.379 296 211.363 296H206.451V281.723ZM208.111 287.846H210.846C212.089 287.846 212.949 287.641 213.424 287.23C213.906 286.82 214.146 286.221 214.146 285.434C214.146 284.62 213.86 284.034 213.287 283.676C212.721 283.318 211.816 283.139 210.572 283.139H208.111V287.846ZM208.111 289.242V294.584H211.08C212.35 294.584 213.248 294.337 213.775 293.842C214.303 293.34 214.566 292.667 214.566 291.82C214.566 291.28 214.446 290.818 214.205 290.434C213.971 290.049 213.587 289.757 213.053 289.555C212.525 289.346 211.819 289.242 210.934 289.242H208.111ZM219.381 296V281.723H221.041V294.516H227.379V296H219.381ZM242.213 288.842C242.213 289.942 242.073 290.945 241.793 291.85C241.513 292.748 241.096 293.523 240.543 294.174C239.996 294.818 239.316 295.316 238.502 295.668C237.688 296.02 236.744 296.195 235.67 296.195C234.563 296.195 233.596 296.02 232.77 295.668C231.949 295.316 231.266 294.815 230.719 294.164C230.178 293.513 229.771 292.735 229.498 291.83C229.231 290.925 229.098 289.923 229.098 288.822C229.098 287.364 229.339 286.085 229.82 284.984C230.302 283.884 231.031 283.028 232.008 282.416C232.991 281.804 234.221 281.498 235.699 281.498C237.112 281.498 238.3 281.801 239.264 282.406C240.234 283.012 240.966 283.865 241.461 284.965C241.962 286.059 242.213 287.351 242.213 288.842ZM230.846 288.842C230.846 290.053 231.018 291.101 231.363 291.986C231.708 292.872 232.236 293.555 232.945 294.037C233.661 294.519 234.57 294.76 235.67 294.76C236.777 294.76 237.682 294.519 238.385 294.037C239.094 293.555 239.618 292.872 239.957 291.986C240.296 291.101 240.465 290.053 240.465 288.842C240.465 286.999 240.077 285.561 239.303 284.525C238.535 283.484 237.333 282.963 235.699 282.963C234.592 282.963 233.681 283.201 232.965 283.676C232.249 284.151 231.715 284.828 231.363 285.707C231.018 286.579 230.846 287.624 230.846 288.842ZM257.779 288.842C257.779 289.942 257.639 290.945 257.359 291.85C257.079 292.748 256.663 293.523 256.109 294.174C255.562 294.818 254.882 295.316 254.068 295.668C253.255 296.02 252.311 296.195 251.236 296.195C250.13 296.195 249.163 296.02 248.336 295.668C247.516 295.316 246.832 294.815 246.285 294.164C245.745 293.513 245.338 292.735 245.064 291.83C244.798 290.925 244.664 289.923 244.664 288.822C244.664 287.364 244.905 286.085 245.387 284.984C245.868 283.884 246.598 283.028 247.574 282.416C248.557 281.804 249.788 281.498 251.266 281.498C252.678 281.498 253.867 281.801 254.83 282.406C255.8 283.012 256.533 283.865 257.027 284.965C257.529 286.059 257.779 287.351 257.779 288.842ZM246.412 288.842C246.412 290.053 246.585 291.101 246.93 291.986C247.275 292.872 247.802 293.555 248.512 294.037C249.228 294.519 250.136 294.76 251.236 294.76C252.343 294.76 253.248 294.519 253.951 294.037C254.661 293.555 255.185 292.872 255.523 291.986C255.862 291.101 256.031 290.053 256.031 288.842C256.031 286.999 255.644 285.561 254.869 284.525C254.101 283.484 252.9 282.963 251.266 282.963C250.159 282.963 249.247 283.201 248.531 283.676C247.815 284.151 247.281 284.828 246.93 285.707C246.585 286.579 246.412 287.624 246.412 288.842ZM267.242 296L262.447 283.363H262.369C262.395 283.63 262.418 283.956 262.438 284.34C262.457 284.724 262.473 285.144 262.486 285.6C262.499 286.049 262.506 286.508 262.506 286.977V296H260.963V281.723H263.424L267.945 293.598H268.014L272.604 281.723H275.045V296H273.404V286.859C273.404 286.436 273.411 286.013 273.424 285.59C273.437 285.16 273.453 284.757 273.473 284.379C273.492 283.995 273.512 283.663 273.531 283.383H273.453L268.6 296H267.242ZM285.23 296L280.436 283.363H280.357C280.383 283.63 280.406 283.956 280.426 284.34C280.445 284.724 280.462 285.144 280.475 285.6C280.488 286.049 280.494 286.508 280.494 286.977V296H278.951V281.723H281.412L285.934 293.598H286.002L290.592 281.723H293.033V296H291.393V286.859C291.393 286.436 291.399 286.013 291.412 285.59C291.425 285.16 291.441 284.757 291.461 284.379C291.48 283.995 291.5 283.663 291.52 283.383H291.441L286.588 296H285.23ZM304.889 296H296.939V281.723H304.889V283.188H298.6V287.807H304.527V289.252H298.6V294.535H304.889V296ZM319.391 288.725C319.391 290.333 319.098 291.677 318.512 292.758C317.926 293.832 317.076 294.643 315.963 295.189C314.856 295.73 313.512 296 311.93 296H308.053V281.723H312.359C313.811 281.723 315.061 281.99 316.109 282.523C317.158 283.051 317.965 283.835 318.531 284.877C319.104 285.912 319.391 287.195 319.391 288.725ZM317.643 288.783C317.643 287.501 317.428 286.443 316.998 285.609C316.575 284.776 315.95 284.158 315.123 283.754C314.303 283.344 313.297 283.139 312.105 283.139H309.713V294.574H311.734C313.701 294.574 315.175 294.089 316.158 293.119C317.148 292.149 317.643 290.704 317.643 288.783ZM322.564 296V281.723H324.225V296H322.564ZM337.105 296L335.348 291.469H329.625L327.877 296H326.197L331.783 281.664H333.277L338.824 296H337.105ZM334.85 289.994L333.18 285.492C333.141 285.375 333.076 285.183 332.984 284.916C332.9 284.649 332.812 284.372 332.721 284.086C332.63 283.799 332.555 283.568 332.496 283.393C332.431 283.66 332.359 283.926 332.281 284.193C332.21 284.454 332.138 284.698 332.066 284.926C331.995 285.147 331.933 285.336 331.881 285.492L330.182 289.994H334.85ZM340.318 294.984C340.318 294.529 340.429 294.206 340.65 294.018C340.872 293.822 341.142 293.725 341.461 293.725C341.793 293.725 342.073 293.822 342.301 294.018C342.529 294.206 342.643 294.529 342.643 294.984C342.643 295.434 342.529 295.762 342.301 295.971C342.073 296.173 341.793 296.273 341.461 296.273C341.142 296.273 340.872 296.173 340.65 295.971C340.429 295.762 340.318 295.434 340.318 294.984ZM357.398 288.725C357.398 290.333 357.105 291.677 356.52 292.758C355.934 293.832 355.084 294.643 353.971 295.189C352.864 295.73 351.52 296 349.938 296H346.061V281.723H350.367C351.819 281.723 353.069 281.99 354.117 282.523C355.165 283.051 355.973 283.835 356.539 284.877C357.112 285.912 357.398 287.195 357.398 288.725ZM355.65 288.783C355.65 287.501 355.436 286.443 355.006 285.609C354.583 284.776 353.958 284.158 353.131 283.754C352.311 283.344 351.305 283.139 350.113 283.139H347.721V294.574H349.742C351.708 294.574 353.183 294.089 354.166 293.119C355.156 292.149 355.65 290.704 355.65 288.783ZM370.865 296H368.902L363.756 289.057L362.232 290.424V296H360.572V281.723H362.232V288.842C362.604 288.419 362.984 287.999 363.375 287.582C363.766 287.159 364.153 286.732 364.537 286.303L368.707 281.723H370.65L364.967 287.914L370.865 296Z" fill="black"/>
</svg>
