<svg width="422" height="429" viewBox="0 0 422 429" fill="none" xmlns="http://www.w3.org/2000/svg">
<rect width="422" height="429" fill="#FFDBE5"/>
<path d="M100.859 176V153.156H104.609V172.812H114.312V176H100.859ZM118.266 176V153.156H122.016V176H118.266ZM147.109 176H142.5L131.312 157.766H131.172C131.214 158.38 131.25 159.031 131.281 159.719C131.323 160.406 131.354 161.115 131.375 161.844C131.406 162.573 131.432 163.312 131.453 164.062V176H128.047V153.156H132.625L143.797 171.266H143.906C143.885 170.734 143.859 170.125 143.828 169.438C143.797 168.75 143.766 168.042 143.734 167.312C143.714 166.573 143.698 165.859 143.688 165.172V153.156H147.109V176ZM172.172 176H167.562L156.375 157.766H156.234C156.276 158.38 156.312 159.031 156.344 159.719C156.385 160.406 156.417 161.115 156.438 161.844C156.469 162.573 156.495 163.312 156.516 164.062V176H153.109V153.156H157.688L168.859 171.266H168.969C168.948 170.734 168.922 170.125 168.891 169.438C168.859 168.75 168.828 168.042 168.797 167.312C168.776 166.573 168.76 165.859 168.75 165.172V153.156H172.172V176ZM186.484 176V153.156H190.234V172.812H199.938V176H186.484ZM201.047 182.359C200.474 182.359 199.974 182.323 199.547 182.25C199.109 182.188 198.734 182.099 198.422 181.984V178.844C198.755 178.927 199.115 179 199.5 179.062C199.885 179.125 200.297 179.156 200.734 179.156C201.307 179.156 201.828 179.047 202.297 178.828C202.766 178.609 203.135 178.214 203.406 177.641C203.688 177.068 203.828 176.26 203.828 175.219V153.156H207.578V175.094C207.578 176.792 207.307 178.172 206.766 179.234C206.224 180.307 205.464 181.094 204.484 181.594C203.505 182.104 202.359 182.359 201.047 182.359ZM231.422 153.156V167.938C231.422 169.531 231.083 170.958 230.406 172.219C229.74 173.479 228.729 174.479 227.375 175.219C226.021 175.948 224.318 176.312 222.266 176.312C219.339 176.312 217.109 175.547 215.578 174.016C214.057 172.474 213.297 170.427 213.297 167.875V153.156H217.047V167.547C217.047 169.453 217.495 170.859 218.391 171.766C219.286 172.672 220.625 173.125 222.406 173.125C223.635 173.125 224.635 172.911 225.406 172.484C226.188 172.047 226.76 171.411 227.125 170.578C227.5 169.734 227.688 168.719 227.688 167.531V153.156H231.422ZM256.328 176H251.719L240.531 157.766H240.391C240.432 158.38 240.469 159.031 240.5 159.719C240.542 160.406 240.573 161.115 240.594 161.844C240.625 162.573 240.651 163.312 240.672 164.062V176H237.266V153.156H241.844L253.016 171.266H253.125C253.104 170.734 253.078 170.125 253.047 169.438C253.016 168.75 252.984 168.042 252.953 167.312C252.932 166.573 252.917 165.859 252.906 165.172V153.156H256.328V176ZM271.547 163.594H280.078V175.062C278.88 175.458 277.641 175.766 276.359 175.984C275.078 176.203 273.641 176.312 272.047 176.312C269.724 176.312 267.755 175.854 266.141 174.938C264.536 174.01 263.318 172.672 262.484 170.922C261.651 169.161 261.234 167.042 261.234 164.562C261.234 162.177 261.698 160.109 262.625 158.359C263.552 156.599 264.901 155.24 266.672 154.281C268.443 153.312 270.589 152.828 273.109 152.828C274.349 152.828 275.547 152.953 276.703 153.203C277.87 153.443 278.938 153.776 279.906 154.203L278.594 157.297C277.823 156.932 276.958 156.625 276 156.375C275.042 156.125 274.047 156 273.016 156C271.38 156 269.969 156.354 268.781 157.062C267.604 157.771 266.698 158.771 266.062 160.062C265.427 161.344 265.109 162.859 265.109 164.609C265.109 166.307 265.365 167.797 265.875 169.078C266.385 170.359 267.182 171.359 268.266 172.078C269.359 172.786 270.771 173.141 272.5 173.141C273.365 173.141 274.099 173.094 274.703 173C275.307 172.906 275.865 172.802 276.375 172.688V166.797H271.547V163.594ZM299.703 176L297.469 169.656H288.734L286.5 176H282.547L291.047 153.062H295.203L303.688 176H299.703ZM296.5 166.438L294.328 160.188C294.245 159.917 294.125 159.536 293.969 159.047C293.812 158.547 293.656 158.042 293.5 157.531C293.344 157.01 293.214 156.573 293.109 156.219C293.005 156.646 292.875 157.125 292.719 157.656C292.573 158.177 292.427 158.667 292.281 159.125C292.146 159.583 292.042 159.938 291.969 160.188L289.781 166.438H296.5ZM313.125 153.156C315.094 153.156 316.719 153.396 318 153.875C319.292 154.354 320.25 155.083 320.875 156.062C321.51 157.042 321.828 158.286 321.828 159.797C321.828 160.922 321.62 161.88 321.203 162.672C320.786 163.464 320.24 164.12 319.562 164.641C318.885 165.161 318.161 165.578 317.391 165.891L323.875 176H319.641L314.125 166.844H310.453V176H306.703V153.156H313.125ZM312.875 156.281H310.453V163.75H313.047C314.786 163.75 316.047 163.427 316.828 162.781C317.62 162.135 318.016 161.182 318.016 159.922C318.016 158.599 317.594 157.661 316.75 157.109C315.917 156.557 314.625 156.281 312.875 156.281ZM161.527 221.723L157.709 236H156.039L153.207 226.391C153.122 226.117 153.041 225.844 152.963 225.57C152.891 225.29 152.823 225.027 152.758 224.779C152.693 224.525 152.637 224.304 152.592 224.115C152.553 223.92 152.523 223.773 152.504 223.676C152.491 223.773 152.465 223.917 152.426 224.105C152.393 224.294 152.348 224.512 152.289 224.76C152.237 225.007 152.172 225.271 152.094 225.551C152.022 225.831 151.944 226.114 151.859 226.4L149.105 236H147.436L143.646 221.723H145.375L147.67 230.678C147.748 230.977 147.82 231.273 147.885 231.566C147.956 231.853 148.018 232.133 148.07 232.406C148.129 232.68 148.181 232.947 148.227 233.207C148.272 233.467 148.314 233.721 148.354 233.969C148.386 233.715 148.428 233.451 148.48 233.178C148.533 232.898 148.588 232.615 148.646 232.328C148.712 232.042 148.78 231.752 148.852 231.459C148.93 231.166 149.011 230.873 149.096 230.58L151.664 221.723H153.373L156.049 230.648C156.14 230.954 156.225 231.257 156.303 231.557C156.381 231.856 156.449 232.149 156.508 232.436C156.573 232.715 156.628 232.986 156.674 233.246C156.726 233.5 156.771 233.741 156.811 233.969C156.856 233.65 156.911 233.314 156.977 232.963C157.042 232.611 157.117 232.243 157.201 231.859C157.292 231.475 157.39 231.078 157.494 230.668L159.789 221.723H161.527ZM171.732 236H163.783V221.723H171.732V223.188H165.443V227.807H171.371V229.252H165.443V234.535H171.732V236ZM174.896 221.723H178.939C180.723 221.723 182.064 221.99 182.963 222.523C183.861 223.057 184.311 223.965 184.311 225.248C184.311 225.801 184.203 226.299 183.988 226.742C183.78 227.178 183.474 227.54 183.07 227.826C182.667 228.113 182.169 228.311 181.576 228.422V228.52C182.201 228.617 182.755 228.796 183.236 229.057C183.718 229.317 184.096 229.682 184.369 230.15C184.643 230.619 184.779 231.215 184.779 231.938C184.779 232.816 184.574 233.559 184.164 234.164C183.76 234.77 183.188 235.229 182.445 235.541C181.703 235.847 180.824 236 179.809 236H174.896V221.723ZM176.557 227.846H179.291C180.535 227.846 181.394 227.641 181.869 227.23C182.351 226.82 182.592 226.221 182.592 225.434C182.592 224.62 182.305 224.034 181.732 223.676C181.166 223.318 180.261 223.139 179.018 223.139H176.557V227.846ZM176.557 229.242V234.584H179.525C180.795 234.584 181.693 234.337 182.221 233.842C182.748 233.34 183.012 232.667 183.012 231.82C183.012 231.28 182.891 230.818 182.65 230.434C182.416 230.049 182.032 229.757 181.498 229.555C180.971 229.346 180.264 229.242 179.379 229.242H176.557ZM198.627 221.723V230.961C198.627 231.97 198.422 232.868 198.012 233.656C197.608 234.444 196.996 235.066 196.176 235.521C195.355 235.971 194.327 236.195 193.09 236.195C191.326 236.195 189.981 235.717 189.057 234.76C188.139 233.803 187.68 232.523 187.68 230.922V221.723H189.35V230.971C189.35 232.182 189.669 233.116 190.307 233.773C190.951 234.431 191.911 234.76 193.188 234.76C194.06 234.76 194.773 234.604 195.326 234.291C195.886 233.972 196.299 233.529 196.566 232.963C196.84 232.39 196.977 231.729 196.977 230.98V221.723H198.627ZM213.754 228.725C213.754 230.333 213.461 231.677 212.875 232.758C212.289 233.832 211.439 234.643 210.326 235.189C209.219 235.73 207.875 236 206.293 236H202.416V221.723H206.723C208.174 221.723 209.424 221.99 210.473 222.523C211.521 223.051 212.328 223.835 212.895 224.877C213.467 225.912 213.754 227.195 213.754 228.725ZM212.006 228.783C212.006 227.501 211.791 226.443 211.361 225.609C210.938 224.776 210.313 224.158 209.486 223.754C208.666 223.344 207.66 223.139 206.469 223.139H204.076V234.574H206.098C208.064 234.574 209.538 234.089 210.521 233.119C211.511 232.149 212.006 230.704 212.006 228.783ZM226.898 221.723L221.771 236H220.102L214.975 221.723H216.713L220.053 231.127C220.189 231.505 220.31 231.866 220.414 232.211C220.525 232.556 220.622 232.888 220.707 233.207C220.792 233.526 220.867 233.835 220.932 234.135C220.997 233.835 221.072 233.526 221.156 233.207C221.241 232.882 221.339 232.546 221.449 232.201C221.56 231.85 221.684 231.482 221.82 231.098L225.141 221.723H226.898ZM228.861 236V221.723H230.521V236H228.861ZM244.74 236H242.777L237.631 229.057L236.107 230.424V236H234.447V221.723H236.107V228.842C236.479 228.419 236.859 227.999 237.25 227.582C237.641 227.159 238.028 226.732 238.412 226.303L242.582 221.723H244.525L238.842 227.914L244.74 236ZM246.693 236V221.723H248.354V234.516H254.691V236H246.693ZM265.092 236H257.143V221.723H265.092V223.188H258.803V227.807H264.73V229.252H258.803V234.535H265.092V236ZM272.113 221.723C273.285 221.723 274.252 221.869 275.014 222.162C275.782 222.449 276.355 222.888 276.732 223.48C277.11 224.073 277.299 224.828 277.299 225.746C277.299 226.501 277.162 227.133 276.889 227.641C276.615 228.142 276.257 228.549 275.814 228.861C275.372 229.174 274.9 229.415 274.398 229.584L278.314 236H276.381L272.885 230.043H269.916V236H268.256V221.723H272.113ZM272.016 223.158H269.916V228.637H272.182C273.347 228.637 274.203 228.399 274.75 227.924C275.303 227.449 275.58 226.749 275.58 225.824C275.58 224.854 275.287 224.167 274.701 223.764C274.122 223.36 273.227 223.158 272.016 223.158ZM68.334 296H60.3848V281.723H68.334V283.188H62.0449V287.807H67.9727V289.252H62.0449V294.535H68.334V296ZM70.3457 291.352V289.906H75.1895V291.352H70.3457ZM84.2227 296L79.4277 283.363H79.3496C79.3757 283.63 79.3984 283.956 79.418 284.34C79.4375 284.724 79.4538 285.144 79.4668 285.6C79.4798 286.049 79.4863 286.508 79.4863 286.977V296H77.9434V281.723H80.4043L84.9258 293.598H84.9941L89.584 281.723H92.0254V296H90.3848V286.859C90.3848 286.436 90.3913 286.013 90.4043 285.59C90.4173 285.16 90.4336 284.757 90.4531 284.379C90.4727 283.995 90.4922 283.663 90.5117 283.383H90.4336L85.5801 296H84.2227ZM104.887 296L103.129 291.469H97.4062L95.6582 296H93.9785L99.5645 281.664H101.059L106.605 296H104.887ZM102.631 289.994L100.961 285.492C100.922 285.375 100.857 285.183 100.766 284.916C100.681 284.649 100.593 284.372 100.502 284.086C100.411 283.799 100.336 283.568 100.277 283.393C100.212 283.66 100.141 283.926 100.062 284.193C99.9909 284.454 99.9193 284.698 99.8477 284.926C99.776 285.147 99.7142 285.336 99.6621 285.492L97.9629 289.994H102.631ZM108.588 296V281.723H110.248V296H108.588ZM114.174 296V281.723H115.834V294.516H122.172V296H114.174ZM124.135 294.984C124.135 294.529 124.245 294.206 124.467 294.018C124.688 293.822 124.958 293.725 125.277 293.725C125.609 293.725 125.889 293.822 126.117 294.018C126.345 294.206 126.459 294.529 126.459 294.984C126.459 295.434 126.345 295.762 126.117 295.971C125.889 296.173 125.609 296.273 125.277 296.273C124.958 296.273 124.688 296.173 124.467 295.971C124.245 295.762 124.135 295.434 124.135 294.984ZM124.135 286.322C124.135 285.854 124.245 285.525 124.467 285.336C124.688 285.141 124.958 285.043 125.277 285.043C125.609 285.043 125.889 285.141 126.117 285.336C126.345 285.525 126.459 285.854 126.459 286.322C126.459 286.765 126.345 287.087 126.117 287.289C125.889 287.491 125.609 287.592 125.277 287.592C124.958 287.592 124.688 287.491 124.467 287.289C124.245 287.087 124.135 286.765 124.135 286.322ZM135.072 296V281.723H136.732V294.516H143.07V296H135.072ZM145.521 296V281.723H147.182V296H145.521ZM162.27 296H160.355L152.572 284.008H152.494C152.514 284.327 152.536 284.691 152.562 285.102C152.589 285.505 152.608 285.938 152.621 286.4C152.641 286.856 152.65 287.322 152.65 287.797V296H151.107V281.723H153.012L160.766 293.676H160.834C160.821 293.448 160.805 293.126 160.785 292.709C160.766 292.286 160.746 291.833 160.727 291.352C160.714 290.863 160.707 290.411 160.707 289.994V281.723H162.27V296ZM177.328 296H175.414L167.631 284.008H167.553C167.572 284.327 167.595 284.691 167.621 285.102C167.647 285.505 167.667 285.938 167.68 286.4C167.699 286.856 167.709 287.322 167.709 287.797V296H166.166V281.723H168.07L175.824 293.676H175.893C175.88 293.448 175.863 293.126 175.844 292.709C175.824 292.286 175.805 291.833 175.785 291.352C175.772 290.863 175.766 290.411 175.766 289.994V281.723H177.328V296ZM196.059 288.871C196.059 289.49 195.987 290.095 195.844 290.688C195.707 291.273 195.495 291.804 195.209 292.279C194.923 292.748 194.564 293.122 194.135 293.402C193.712 293.682 193.21 293.822 192.631 293.822C192.025 293.822 191.544 293.646 191.186 293.295C190.827 292.943 190.613 292.527 190.541 292.045H190.453C190.206 292.559 189.841 292.986 189.359 293.324C188.884 293.656 188.298 293.822 187.602 293.822C186.586 293.822 185.801 293.487 185.248 292.816C184.701 292.139 184.428 291.241 184.428 290.121C184.428 289.249 184.6 288.477 184.945 287.807C185.297 287.13 185.788 286.599 186.42 286.215C187.058 285.824 187.81 285.629 188.676 285.629C189.255 285.629 189.818 285.678 190.365 285.775C190.912 285.873 191.348 285.98 191.674 286.098L191.479 290.033C191.472 290.274 191.465 290.46 191.459 290.59C191.452 290.714 191.449 290.811 191.449 290.883C191.449 291.586 191.573 292.061 191.82 292.309C192.074 292.549 192.38 292.67 192.738 292.67C193.174 292.67 193.539 292.501 193.832 292.162C194.132 291.817 194.359 291.358 194.516 290.785C194.672 290.206 194.75 289.564 194.75 288.861C194.75 287.618 194.499 286.557 193.998 285.678C193.497 284.799 192.803 284.128 191.918 283.666C191.039 283.204 190.027 282.973 188.881 282.973C187.742 282.973 186.729 283.152 185.844 283.51C184.965 283.868 184.219 284.376 183.607 285.033C183.002 285.684 182.543 286.459 182.23 287.357C181.918 288.256 181.762 289.249 181.762 290.336C181.762 291.664 181.996 292.794 182.465 293.725C182.94 294.656 183.633 295.365 184.545 295.854C185.463 296.335 186.579 296.576 187.895 296.576C188.689 296.576 189.454 296.488 190.189 296.312C190.925 296.137 191.583 295.938 192.162 295.717V296.986C191.589 297.227 190.948 297.423 190.238 297.572C189.529 297.729 188.747 297.807 187.895 297.807C186.326 297.807 184.984 297.51 183.871 296.918C182.758 296.332 181.905 295.486 181.312 294.379C180.72 293.272 180.424 291.944 180.424 290.395C180.424 289.138 180.616 287.982 181 286.928C181.391 285.873 181.951 284.958 182.68 284.184C183.415 283.409 184.304 282.81 185.346 282.387C186.394 281.957 187.572 281.742 188.881 281.742C190.281 281.742 191.518 282.032 192.592 282.611C193.673 283.184 194.519 284.005 195.131 285.072C195.749 286.133 196.059 287.4 196.059 288.871ZM185.883 290.16C185.883 291.026 186.055 291.661 186.4 292.064C186.745 292.468 187.224 292.67 187.836 292.67C188.591 292.67 189.145 292.387 189.496 291.82C189.854 291.254 190.059 290.505 190.111 289.574L190.229 287.025C190.04 286.967 189.809 286.918 189.535 286.879C189.268 286.833 188.988 286.811 188.695 286.811C188.025 286.811 187.481 286.97 187.064 287.289C186.654 287.608 186.355 288.021 186.166 288.529C185.977 289.037 185.883 289.581 185.883 290.16ZM199.154 281.723H203.197C204.981 281.723 206.322 281.99 207.221 282.523C208.119 283.057 208.568 283.965 208.568 285.248C208.568 285.801 208.461 286.299 208.246 286.742C208.038 287.178 207.732 287.54 207.328 287.826C206.924 288.113 206.426 288.311 205.834 288.422V288.52C206.459 288.617 207.012 288.796 207.494 289.057C207.976 289.317 208.354 289.682 208.627 290.15C208.9 290.619 209.037 291.215 209.037 291.938C209.037 292.816 208.832 293.559 208.422 294.164C208.018 294.77 207.445 295.229 206.703 295.541C205.961 295.847 205.082 296 204.066 296H199.154V281.723ZM200.814 287.846H203.549C204.792 287.846 205.652 287.641 206.127 287.23C206.609 286.82 206.85 286.221 206.85 285.434C206.85 284.62 206.563 284.034 205.99 283.676C205.424 283.318 204.519 283.139 203.275 283.139H200.814V287.846ZM200.814 289.242V294.584H203.783C205.053 294.584 205.951 294.337 206.479 293.842C207.006 293.34 207.27 292.667 207.27 291.82C207.27 291.28 207.149 290.818 206.908 290.434C206.674 290.049 206.29 289.757 205.756 289.555C205.229 289.346 204.522 289.242 203.637 289.242H200.814ZM212.084 296V281.723H213.744V294.516H220.082V296H212.084ZM234.916 288.842C234.916 289.942 234.776 290.945 234.496 291.85C234.216 292.748 233.799 293.523 233.246 294.174C232.699 294.818 232.019 295.316 231.205 295.668C230.391 296.02 229.447 296.195 228.373 296.195C227.266 296.195 226.299 296.02 225.473 295.668C224.652 295.316 223.969 294.815 223.422 294.164C222.882 293.513 222.475 292.735 222.201 291.83C221.934 290.925 221.801 289.923 221.801 288.822C221.801 287.364 222.042 286.085 222.523 284.984C223.005 283.884 223.734 283.028 224.711 282.416C225.694 281.804 226.924 281.498 228.402 281.498C229.815 281.498 231.003 281.801 231.967 282.406C232.937 283.012 233.669 283.865 234.164 284.965C234.665 286.059 234.916 287.351 234.916 288.842ZM223.549 288.842C223.549 290.053 223.721 291.101 224.066 291.986C224.411 292.872 224.939 293.555 225.648 294.037C226.365 294.519 227.273 294.76 228.373 294.76C229.48 294.76 230.385 294.519 231.088 294.037C231.798 293.555 232.322 292.872 232.66 291.986C232.999 291.101 233.168 290.053 233.168 288.842C233.168 286.999 232.781 285.561 232.006 284.525C231.238 283.484 230.036 282.963 228.402 282.963C227.296 282.963 226.384 283.201 225.668 283.676C224.952 284.151 224.418 284.828 224.066 285.707C223.721 286.579 223.549 287.624 223.549 288.842ZM250.482 288.842C250.482 289.942 250.342 290.945 250.062 291.85C249.783 292.748 249.366 293.523 248.812 294.174C248.266 294.818 247.585 295.316 246.771 295.668C245.958 296.02 245.014 296.195 243.939 296.195C242.833 296.195 241.866 296.02 241.039 295.668C240.219 295.316 239.535 294.815 238.988 294.164C238.448 293.513 238.041 292.735 237.768 291.83C237.501 290.925 237.367 289.923 237.367 288.822C237.367 287.364 237.608 286.085 238.09 284.984C238.572 283.884 239.301 283.028 240.277 282.416C241.26 281.804 242.491 281.498 243.969 281.498C245.382 281.498 246.57 281.801 247.533 282.406C248.503 283.012 249.236 283.865 249.73 284.965C250.232 286.059 250.482 287.351 250.482 288.842ZM239.115 288.842C239.115 290.053 239.288 291.101 239.633 291.986C239.978 292.872 240.505 293.555 241.215 294.037C241.931 294.519 242.839 294.76 243.939 294.76C245.046 294.76 245.951 294.519 246.654 294.037C247.364 293.555 247.888 292.872 248.227 291.986C248.565 291.101 248.734 290.053 248.734 288.842C248.734 286.999 248.347 285.561 247.572 284.525C246.804 283.484 245.603 282.963 243.969 282.963C242.862 282.963 241.951 283.201 241.234 283.676C240.518 284.151 239.984 284.828 239.633 285.707C239.288 286.579 239.115 287.624 239.115 288.842ZM259.945 296L255.15 283.363H255.072C255.098 283.63 255.121 283.956 255.141 284.34C255.16 284.724 255.176 285.144 255.189 285.6C255.202 286.049 255.209 286.508 255.209 286.977V296H253.666V281.723H256.127L260.648 293.598H260.717L265.307 281.723H267.748V296H266.107V286.859C266.107 286.436 266.114 286.013 266.127 285.59C266.14 285.16 266.156 284.757 266.176 284.379C266.195 283.995 266.215 283.663 266.234 283.383H266.156L261.303 296H259.945ZM277.934 296L273.139 283.363H273.061C273.087 283.63 273.109 283.956 273.129 284.34C273.148 284.724 273.165 285.144 273.178 285.6C273.191 286.049 273.197 286.508 273.197 286.977V296H271.654V281.723H274.115L278.637 293.598H278.705L283.295 281.723H285.736V296H284.096V286.859C284.096 286.436 284.102 286.013 284.115 285.59C284.128 285.16 284.145 284.757 284.164 284.379C284.184 283.995 284.203 283.663 284.223 283.383H284.145L279.291 296H277.934ZM297.592 296H289.643V281.723H297.592V283.188H291.303V287.807H297.23V289.252H291.303V294.535H297.592V296ZM312.094 288.725C312.094 290.333 311.801 291.677 311.215 292.758C310.629 293.832 309.779 294.643 308.666 295.189C307.559 295.73 306.215 296 304.633 296H300.756V281.723H305.062C306.514 281.723 307.764 281.99 308.812 282.523C309.861 283.051 310.668 283.835 311.234 284.877C311.807 285.912 312.094 287.195 312.094 288.725ZM310.346 288.783C310.346 287.501 310.131 286.443 309.701 285.609C309.278 284.776 308.653 284.158 307.826 283.754C307.006 283.344 306 283.139 304.809 283.139H302.416V294.574H304.438C306.404 294.574 307.878 294.089 308.861 293.119C309.851 292.149 310.346 290.704 310.346 288.783ZM315.268 296V281.723H316.928V296H315.268ZM329.809 296L328.051 291.469H322.328L320.58 296H318.9L324.486 281.664H325.98L331.527 296H329.809ZM327.553 289.994L325.883 285.492C325.844 285.375 325.779 285.183 325.688 284.916C325.603 284.649 325.515 284.372 325.424 284.086C325.333 283.799 325.258 283.568 325.199 283.393C325.134 283.66 325.062 283.926 324.984 284.193C324.913 284.454 324.841 284.698 324.77 284.926C324.698 285.147 324.636 285.336 324.584 285.492L322.885 289.994H327.553ZM333.021 294.984C333.021 294.529 333.132 294.206 333.354 294.018C333.575 293.822 333.845 293.725 334.164 293.725C334.496 293.725 334.776 293.822 335.004 294.018C335.232 294.206 335.346 294.529 335.346 294.984C335.346 295.434 335.232 295.762 335.004 295.971C334.776 296.173 334.496 296.273 334.164 296.273C333.845 296.273 333.575 296.173 333.354 295.971C333.132 295.762 333.021 295.434 333.021 294.984ZM350.102 288.725C350.102 290.333 349.809 291.677 349.223 292.758C348.637 293.832 347.787 294.643 346.674 295.189C345.567 295.73 344.223 296 342.641 296H338.764V281.723H343.07C344.522 281.723 345.772 281.99 346.82 282.523C347.868 283.051 348.676 283.835 349.242 284.877C349.815 285.912 350.102 287.195 350.102 288.725ZM348.354 288.783C348.354 287.501 348.139 286.443 347.709 285.609C347.286 284.776 346.661 284.158 345.834 283.754C345.014 283.344 344.008 283.139 342.816 283.139H340.424V294.574H342.445C344.411 294.574 345.886 294.089 346.869 293.119C347.859 292.149 348.354 290.704 348.354 288.783ZM363.568 296H361.605L356.459 289.057L354.936 290.424V296H353.275V281.723H354.936V288.842C355.307 288.419 355.688 287.999 356.078 287.582C356.469 287.159 356.856 286.732 357.24 286.303L361.41 281.723H363.354L357.67 287.914L363.568 296Z" fill="black" fill-opacity="0.8"/>
</svg>
