<svg width="422" height="429" viewBox="0 0 422 429" fill="none" xmlns="http://www.w3.org/2000/svg">
<rect width="422" height="429" fill="#FFDBE5"/>
<path d="M88.2344 176V153.156H91.9844V176H88.2344ZM117.078 176H112.469L101.281 157.766H101.141C101.182 158.38 101.219 159.031 101.25 159.719C101.292 160.406 101.323 161.115 101.344 161.844C101.375 162.573 101.401 163.312 101.422 164.062V176H98.0156V153.156H102.594L113.766 171.266H113.875C113.854 170.734 113.828 170.125 113.797 169.438C113.766 168.75 113.734 168.042 113.703 167.312C113.682 166.573 113.667 165.859 113.656 165.172V153.156H117.078V176ZM136.016 176H123.078V153.156H136.016V156.312H126.828V162.516H135.438V165.656H126.828V172.828H136.016V176ZM154.141 169.781C154.141 171.135 153.807 172.302 153.141 173.281C152.484 174.26 151.536 175.01 150.297 175.531C149.068 176.052 147.599 176.312 145.891 176.312C145.057 176.312 144.26 176.266 143.5 176.172C142.74 176.078 142.021 175.943 141.344 175.766C140.677 175.578 140.068 175.354 139.516 175.094V171.562C140.443 171.969 141.479 172.339 142.625 172.672C143.771 172.995 144.938 173.156 146.125 173.156C147.094 173.156 147.896 173.031 148.531 172.781C149.177 172.521 149.656 172.156 149.969 171.688C150.281 171.208 150.438 170.651 150.438 170.016C150.438 169.339 150.255 168.766 149.891 168.297C149.526 167.828 148.974 167.401 148.234 167.016C147.505 166.62 146.589 166.198 145.484 165.75C144.734 165.448 144.016 165.104 143.328 164.719C142.651 164.333 142.047 163.88 141.516 163.359C140.984 162.839 140.562 162.224 140.25 161.516C139.948 160.797 139.797 159.953 139.797 158.984C139.797 157.693 140.104 156.589 140.719 155.672C141.344 154.755 142.219 154.052 143.344 153.562C144.479 153.073 145.802 152.828 147.312 152.828C148.51 152.828 149.635 152.953 150.688 153.203C151.75 153.453 152.792 153.807 153.812 154.266L152.625 157.281C151.688 156.896 150.776 156.589 149.891 156.359C149.016 156.13 148.12 156.016 147.203 156.016C146.411 156.016 145.74 156.135 145.188 156.375C144.635 156.615 144.214 156.953 143.922 157.391C143.641 157.818 143.5 158.328 143.5 158.922C143.5 159.589 143.661 160.151 143.984 160.609C144.318 161.057 144.828 161.469 145.516 161.844C146.214 162.219 147.109 162.635 148.203 163.094C149.464 163.615 150.531 164.161 151.406 164.734C152.292 165.307 152.969 165.995 153.438 166.797C153.906 167.589 154.141 168.583 154.141 169.781ZM164.016 182.359C163.443 182.359 162.943 182.323 162.516 182.25C162.078 182.188 161.703 182.099 161.391 181.984V178.844C161.724 178.927 162.083 179 162.469 179.062C162.854 179.125 163.266 179.156 163.703 179.156C164.276 179.156 164.797 179.047 165.266 178.828C165.734 178.609 166.104 178.214 166.375 177.641C166.656 177.068 166.797 176.26 166.797 175.219V153.156H170.547V175.094C170.547 176.792 170.276 178.172 169.734 179.234C169.193 180.307 168.432 181.094 167.453 181.594C166.474 182.104 165.328 182.359 164.016 182.359ZM196.734 164.547C196.734 166.307 196.51 167.911 196.062 169.359C195.625 170.797 194.964 172.036 194.078 173.078C193.193 174.109 192.083 174.906 190.75 175.469C189.417 176.031 187.854 176.312 186.062 176.312C184.24 176.312 182.656 176.031 181.312 175.469C179.979 174.906 178.87 174.104 177.984 173.062C177.109 172.021 176.453 170.776 176.016 169.328C175.578 167.88 175.359 166.276 175.359 164.516C175.359 162.161 175.745 160.109 176.516 158.359C177.297 156.599 178.479 155.234 180.062 154.266C181.656 153.286 183.667 152.797 186.094 152.797C188.469 152.797 190.443 153.281 192.016 154.25C193.589 155.219 194.766 156.583 195.547 158.344C196.339 160.094 196.734 162.161 196.734 164.547ZM179.297 164.547C179.297 166.307 179.536 167.833 180.016 169.125C180.495 170.406 181.229 171.396 182.219 172.094C183.219 172.781 184.5 173.125 186.062 173.125C187.635 173.125 188.917 172.781 189.906 172.094C190.896 171.396 191.625 170.406 192.094 169.125C192.562 167.833 192.797 166.307 192.797 164.547C192.797 161.87 192.26 159.776 191.188 158.266C190.125 156.745 188.427 155.984 186.094 155.984C184.531 155.984 183.245 156.328 182.234 157.016C181.234 157.703 180.495 158.688 180.016 159.969C179.536 161.24 179.297 162.766 179.297 164.547ZM219.656 176H215.922V165.688H205.391V176H201.641V153.156H205.391V162.5H215.922V153.156H219.656V176ZM239.859 176L237.625 169.656H228.891L226.656 176H222.703L231.203 153.062H235.359L243.844 176H239.859ZM236.656 166.438L234.484 160.188C234.401 159.917 234.281 159.536 234.125 159.047C233.969 158.547 233.812 158.042 233.656 157.531C233.5 157.01 233.37 156.573 233.266 156.219C233.161 156.646 233.031 157.125 232.875 157.656C232.729 158.177 232.583 158.667 232.438 159.125C232.302 159.583 232.198 159.938 232.125 160.188L229.938 166.438H236.656ZM265.922 176H261.312L250.125 157.766H249.984C250.026 158.38 250.062 159.031 250.094 159.719C250.135 160.406 250.167 161.115 250.188 161.844C250.219 162.573 250.245 163.312 250.266 164.062V176H246.859V153.156H251.438L262.609 171.266H262.719C262.698 170.734 262.672 170.125 262.641 169.438C262.609 168.75 262.578 168.042 262.547 167.312C262.526 166.573 262.51 165.859 262.5 165.172V153.156H265.922V176ZM285.109 169.781C285.109 171.135 284.776 172.302 284.109 173.281C283.453 174.26 282.505 175.01 281.266 175.531C280.036 176.052 278.568 176.312 276.859 176.312C276.026 176.312 275.229 176.266 274.469 176.172C273.708 176.078 272.99 175.943 272.312 175.766C271.646 175.578 271.036 175.354 270.484 175.094V171.562C271.411 171.969 272.448 172.339 273.594 172.672C274.74 172.995 275.906 173.156 277.094 173.156C278.062 173.156 278.865 173.031 279.5 172.781C280.146 172.521 280.625 172.156 280.938 171.688C281.25 171.208 281.406 170.651 281.406 170.016C281.406 169.339 281.224 168.766 280.859 168.297C280.495 167.828 279.943 167.401 279.203 167.016C278.474 166.62 277.557 166.198 276.453 165.75C275.703 165.448 274.984 165.104 274.297 164.719C273.62 164.333 273.016 163.88 272.484 163.359C271.953 162.839 271.531 162.224 271.219 161.516C270.917 160.797 270.766 159.953 270.766 158.984C270.766 157.693 271.073 156.589 271.688 155.672C272.312 154.755 273.188 154.052 274.312 153.562C275.448 153.073 276.771 152.828 278.281 152.828C279.479 152.828 280.604 152.953 281.656 153.203C282.719 153.453 283.76 153.807 284.781 154.266L283.594 157.281C282.656 156.896 281.745 156.589 280.859 156.359C279.984 156.13 279.089 156.016 278.172 156.016C277.38 156.016 276.708 156.135 276.156 156.375C275.604 156.615 275.182 156.953 274.891 157.391C274.609 157.818 274.469 158.328 274.469 158.922C274.469 159.589 274.63 160.151 274.953 160.609C275.286 161.057 275.797 161.469 276.484 161.844C277.182 162.219 278.078 162.635 279.172 163.094C280.432 163.615 281.5 164.161 282.375 164.734C283.26 165.307 283.938 165.995 284.406 166.797C284.875 167.589 285.109 168.583 285.109 169.781ZM309.797 164.547C309.797 166.307 309.573 167.911 309.125 169.359C308.688 170.797 308.026 172.036 307.141 173.078C306.255 174.109 305.146 174.906 303.812 175.469C302.479 176.031 300.917 176.312 299.125 176.312C297.302 176.312 295.719 176.031 294.375 175.469C293.042 174.906 291.932 174.104 291.047 173.062C290.172 172.021 289.516 170.776 289.078 169.328C288.641 167.88 288.422 166.276 288.422 164.516C288.422 162.161 288.807 160.109 289.578 158.359C290.359 156.599 291.542 155.234 293.125 154.266C294.719 153.286 296.729 152.797 299.156 152.797C301.531 152.797 303.505 153.281 305.078 154.25C306.651 155.219 307.828 156.583 308.609 158.344C309.401 160.094 309.797 162.161 309.797 164.547ZM292.359 164.547C292.359 166.307 292.599 167.833 293.078 169.125C293.557 170.406 294.292 171.396 295.281 172.094C296.281 172.781 297.562 173.125 299.125 173.125C300.698 173.125 301.979 172.781 302.969 172.094C303.958 171.396 304.688 170.406 305.156 169.125C305.625 167.833 305.859 166.307 305.859 164.547C305.859 161.87 305.323 159.776 304.25 158.266C303.188 156.745 301.49 155.984 299.156 155.984C297.594 155.984 296.307 156.328 295.297 157.016C294.297 157.703 293.557 158.688 293.078 159.969C292.599 161.24 292.359 162.766 292.359 164.547ZM333.766 176H329.156L317.969 157.766H317.828C317.87 158.38 317.906 159.031 317.938 159.719C317.979 160.406 318.01 161.115 318.031 161.844C318.062 162.573 318.089 163.312 318.109 164.062V176H314.703V153.156H319.281L330.453 171.266H330.562C330.542 170.734 330.516 170.125 330.484 169.438C330.453 168.75 330.422 168.042 330.391 167.312C330.37 166.573 330.354 165.859 330.344 165.172V153.156H333.766V176ZM124.74 222.982C123.952 222.982 123.243 223.119 122.611 223.393C121.986 223.66 121.452 224.05 121.01 224.564C120.574 225.072 120.238 225.688 120.004 226.41C119.77 227.133 119.652 227.947 119.652 228.852C119.652 230.049 119.838 231.091 120.209 231.977C120.587 232.855 121.146 233.536 121.889 234.018C122.637 234.499 123.572 234.74 124.691 234.74C125.329 234.74 125.928 234.688 126.488 234.584C127.055 234.473 127.605 234.337 128.139 234.174V235.619C127.618 235.814 127.071 235.958 126.498 236.049C125.925 236.146 125.245 236.195 124.457 236.195C123.005 236.195 121.791 235.896 120.814 235.297C119.844 234.691 119.115 233.839 118.627 232.738C118.145 231.638 117.904 230.339 117.904 228.842C117.904 227.761 118.054 226.775 118.354 225.883C118.66 224.984 119.102 224.21 119.682 223.559C120.268 222.908 120.984 222.406 121.83 222.055C122.683 221.697 123.66 221.518 124.76 221.518C125.482 221.518 126.179 221.589 126.85 221.732C127.52 221.876 128.126 222.081 128.666 222.348L128.002 223.754C127.546 223.546 127.045 223.367 126.498 223.217C125.958 223.061 125.372 222.982 124.74 222.982ZM135.092 221.723C136.264 221.723 137.23 221.869 137.992 222.162C138.76 222.449 139.333 222.888 139.711 223.48C140.089 224.073 140.277 224.828 140.277 225.746C140.277 226.501 140.141 227.133 139.867 227.641C139.594 228.142 139.236 228.549 138.793 228.861C138.35 229.174 137.878 229.415 137.377 229.584L141.293 236H139.359L135.863 230.043H132.895V236H131.234V221.723H135.092ZM134.994 223.158H132.895V228.637H135.16C136.326 228.637 137.182 228.399 137.729 227.924C138.282 227.449 138.559 226.749 138.559 225.824C138.559 224.854 138.266 224.167 137.68 223.764C137.1 223.36 136.205 223.158 134.994 223.158ZM151.527 236H143.578V221.723H151.527V223.188H145.238V227.807H151.166V229.252H145.238V234.535H151.527V236ZM163.646 236L161.889 231.469H156.166L154.418 236H152.738L158.324 221.664H159.818L165.365 236H163.646ZM161.391 229.994L159.721 225.492C159.682 225.375 159.617 225.183 159.525 224.916C159.441 224.649 159.353 224.372 159.262 224.086C159.171 223.799 159.096 223.568 159.037 223.393C158.972 223.66 158.9 223.926 158.822 224.193C158.751 224.454 158.679 224.698 158.607 224.926C158.536 225.147 158.474 225.336 158.422 225.492L156.723 229.994H161.391ZM171.732 236H170.062V223.188H165.57V221.723H176.205V223.188H171.732V236ZM178.363 236V221.723H180.023V236H178.363ZM193.92 221.723L188.793 236H187.123L181.996 221.723H183.734L187.074 231.127C187.211 231.505 187.331 231.866 187.436 232.211C187.546 232.556 187.644 232.888 187.729 233.207C187.813 233.526 187.888 233.835 187.953 234.135C188.018 233.835 188.093 233.526 188.178 233.207C188.262 232.882 188.36 232.546 188.471 232.201C188.581 231.85 188.705 231.482 188.842 231.098L192.162 221.723H193.92ZM203.832 236H195.883V221.723H203.832V223.188H197.543V227.807H203.471V229.252H197.543V234.535H203.832V236ZM223.529 228.725C223.529 230.333 223.236 231.677 222.65 232.758C222.064 233.832 221.215 234.643 220.102 235.189C218.995 235.73 217.65 236 216.068 236H212.191V221.723H216.498C217.95 221.723 219.2 221.99 220.248 222.523C221.296 223.051 222.104 223.835 222.67 224.877C223.243 225.912 223.529 227.195 223.529 228.725ZM221.781 228.783C221.781 227.501 221.566 226.443 221.137 225.609C220.714 224.776 220.089 224.158 219.262 223.754C218.441 223.344 217.436 223.139 216.244 223.139H213.852V234.574H215.873C217.839 234.574 219.314 234.089 220.297 233.119C221.286 232.149 221.781 230.704 221.781 228.783ZM226.703 236V221.723H228.363V236H226.703ZM236.146 221.723C237.318 221.723 238.285 221.869 239.047 222.162C239.815 222.449 240.388 222.888 240.766 223.48C241.143 224.073 241.332 224.828 241.332 225.746C241.332 226.501 241.195 227.133 240.922 227.641C240.648 228.142 240.29 228.549 239.848 228.861C239.405 229.174 238.933 229.415 238.432 229.584L242.348 236H240.414L236.918 230.043H233.949V236H232.289V221.723H236.146ZM236.049 223.158H233.949V228.637H236.215C237.38 228.637 238.236 228.399 238.783 227.924C239.337 227.449 239.613 226.749 239.613 225.824C239.613 224.854 239.32 224.167 238.734 223.764C238.155 223.36 237.26 223.158 236.049 223.158ZM252.582 236H244.633V221.723H252.582V223.188H246.293V227.807H252.221V229.252H246.293V234.535H252.582V236ZM261.85 222.982C261.062 222.982 260.352 223.119 259.721 223.393C259.096 223.66 258.562 224.05 258.119 224.564C257.683 225.072 257.348 225.688 257.113 226.41C256.879 227.133 256.762 227.947 256.762 228.852C256.762 230.049 256.947 231.091 257.318 231.977C257.696 232.855 258.256 233.536 258.998 234.018C259.747 234.499 260.681 234.74 261.801 234.74C262.439 234.74 263.038 234.688 263.598 234.584C264.164 234.473 264.714 234.337 265.248 234.174V235.619C264.727 235.814 264.18 235.958 263.607 236.049C263.035 236.146 262.354 236.195 261.566 236.195C260.115 236.195 258.9 235.896 257.924 235.297C256.954 234.691 256.225 233.839 255.736 232.738C255.255 231.638 255.014 230.339 255.014 228.842C255.014 227.761 255.163 226.775 255.463 225.883C255.769 224.984 256.212 224.21 256.791 223.559C257.377 222.908 258.093 222.406 258.939 222.055C259.792 221.697 260.769 221.518 261.869 221.518C262.592 221.518 263.288 221.589 263.959 221.732C264.63 221.876 265.235 222.081 265.775 222.348L265.111 223.754C264.656 223.546 264.154 223.367 263.607 223.217C263.067 223.061 262.481 222.982 261.85 222.982ZM272.729 236H271.059V223.188H266.566V221.723H277.201V223.188H272.729V236ZM291.742 228.842C291.742 229.942 291.602 230.945 291.322 231.85C291.042 232.748 290.626 233.523 290.072 234.174C289.525 234.818 288.845 235.316 288.031 235.668C287.217 236.02 286.273 236.195 285.199 236.195C284.092 236.195 283.126 236.02 282.299 235.668C281.479 235.316 280.795 234.815 280.248 234.164C279.708 233.513 279.301 232.735 279.027 231.83C278.76 230.925 278.627 229.923 278.627 228.822C278.627 227.364 278.868 226.085 279.35 224.984C279.831 223.884 280.561 223.028 281.537 222.416C282.52 221.804 283.751 221.498 285.229 221.498C286.641 221.498 287.829 221.801 288.793 222.406C289.763 223.012 290.495 223.865 290.99 224.965C291.492 226.059 291.742 227.351 291.742 228.842ZM280.375 228.842C280.375 230.053 280.548 231.101 280.893 231.986C281.238 232.872 281.765 233.555 282.475 234.037C283.191 234.519 284.099 234.76 285.199 234.76C286.306 234.76 287.211 234.519 287.914 234.037C288.624 233.555 289.148 232.872 289.486 231.986C289.825 231.101 289.994 230.053 289.994 228.842C289.994 226.999 289.607 225.561 288.832 224.525C288.064 223.484 286.863 222.963 285.229 222.963C284.122 222.963 283.21 223.201 282.494 223.676C281.778 224.151 281.244 224.828 280.893 225.707C280.548 226.579 280.375 227.624 280.375 228.842ZM298.783 221.723C299.955 221.723 300.922 221.869 301.684 222.162C302.452 222.449 303.025 222.888 303.402 223.48C303.78 224.073 303.969 224.828 303.969 225.746C303.969 226.501 303.832 227.133 303.559 227.641C303.285 228.142 302.927 228.549 302.484 228.861C302.042 229.174 301.57 229.415 301.068 229.584L304.984 236H303.051L299.555 230.043H296.586V236H294.926V221.723H298.783ZM298.686 223.158H296.586V228.637H298.852C300.017 228.637 300.873 228.399 301.42 227.924C301.973 227.449 302.25 226.749 302.25 225.824C302.25 224.854 301.957 224.167 301.371 223.764C300.792 223.36 299.896 223.158 298.686 223.158ZM70.043 296H62.0938V281.723H70.043V283.188H63.7539V287.807H69.6816V289.252H63.7539V294.535H70.043V296ZM72.0547 291.352V289.906H76.8984V291.352H72.0547ZM85.9316 296L81.1367 283.363H81.0586C81.0846 283.63 81.1074 283.956 81.127 284.34C81.1465 284.724 81.1628 285.144 81.1758 285.6C81.1888 286.049 81.1953 286.508 81.1953 286.977V296H79.6523V281.723H82.1133L86.6348 293.598H86.7031L91.293 281.723H93.7344V296H92.0938V286.859C92.0938 286.436 92.1003 286.013 92.1133 285.59C92.1263 285.16 92.1426 284.757 92.1621 284.379C92.1816 283.995 92.2012 283.663 92.2207 283.383H92.1426L87.2891 296H85.9316ZM106.596 296L104.838 291.469H99.1152L97.3672 296H95.6875L101.273 281.664H102.768L108.314 296H106.596ZM104.34 289.994L102.67 285.492C102.631 285.375 102.566 285.183 102.475 284.916C102.39 284.649 102.302 284.372 102.211 284.086C102.12 283.799 102.045 283.568 101.986 283.393C101.921 283.66 101.85 283.926 101.771 284.193C101.7 284.454 101.628 284.698 101.557 284.926C101.485 285.147 101.423 285.336 101.371 285.492L99.6719 289.994H104.34ZM110.297 296V281.723H111.957V296H110.297ZM115.883 296V281.723H117.543V294.516H123.881V296H115.883ZM125.844 294.984C125.844 294.529 125.954 294.206 126.176 294.018C126.397 293.822 126.667 293.725 126.986 293.725C127.318 293.725 127.598 293.822 127.826 294.018C128.054 294.206 128.168 294.529 128.168 294.984C128.168 295.434 128.054 295.762 127.826 295.971C127.598 296.173 127.318 296.273 126.986 296.273C126.667 296.273 126.397 296.173 126.176 295.971C125.954 295.762 125.844 295.434 125.844 294.984ZM125.844 286.322C125.844 285.854 125.954 285.525 126.176 285.336C126.397 285.141 126.667 285.043 126.986 285.043C127.318 285.043 127.598 285.141 127.826 285.336C128.054 285.525 128.168 285.854 128.168 286.322C128.168 286.765 128.054 287.087 127.826 287.289C127.598 287.491 127.318 287.592 126.986 287.592C126.667 287.592 126.397 287.491 126.176 287.289C125.954 287.087 125.844 286.765 125.844 286.322ZM136.781 296V281.723H138.441V296H136.781ZM153.529 296H151.615L143.832 284.008H143.754C143.773 284.327 143.796 284.691 143.822 285.102C143.848 285.505 143.868 285.938 143.881 286.4C143.9 286.856 143.91 287.322 143.91 287.797V296H142.367V281.723H144.271L152.025 293.676H152.094C152.081 293.448 152.064 293.126 152.045 292.709C152.025 292.286 152.006 291.833 151.986 291.352C151.973 290.863 151.967 290.411 151.967 289.994V281.723H153.529V296ZM165.375 296H157.426V281.723H165.375V283.188H159.086V287.807H165.014V289.252H159.086V294.535H165.375V296ZM176.596 292.201C176.596 293.048 176.384 293.77 175.961 294.369C175.544 294.962 174.958 295.414 174.203 295.727C173.448 296.039 172.559 296.195 171.537 296.195C170.997 296.195 170.486 296.169 170.004 296.117C169.522 296.065 169.079 295.99 168.676 295.893C168.272 295.795 167.917 295.674 167.611 295.531V293.939C168.1 294.141 168.695 294.33 169.398 294.506C170.102 294.675 170.837 294.76 171.605 294.76C172.322 294.76 172.927 294.665 173.422 294.477C173.917 294.281 174.291 294.005 174.545 293.646C174.805 293.282 174.936 292.846 174.936 292.338C174.936 291.85 174.828 291.443 174.613 291.117C174.398 290.785 174.04 290.486 173.539 290.219C173.044 289.945 172.367 289.656 171.508 289.35C170.902 289.135 170.368 288.9 169.906 288.646C169.444 288.386 169.057 288.093 168.744 287.768C168.432 287.442 168.194 287.064 168.031 286.635C167.875 286.205 167.797 285.714 167.797 285.16C167.797 284.398 167.989 283.747 168.373 283.207C168.764 282.66 169.301 282.243 169.984 281.957C170.674 281.664 171.465 281.518 172.357 281.518C173.119 281.518 173.822 281.589 174.467 281.732C175.118 281.876 175.714 282.068 176.254 282.309L175.736 283.734C175.222 283.52 174.675 283.34 174.096 283.197C173.523 283.054 172.93 282.982 172.318 282.982C171.706 282.982 171.189 283.074 170.766 283.256C170.349 283.432 170.03 283.682 169.809 284.008C169.587 284.333 169.477 284.721 169.477 285.17C169.477 285.671 169.581 286.088 169.789 286.42C170.004 286.752 170.342 287.048 170.805 287.309C171.273 287.562 171.892 287.829 172.66 288.109C173.5 288.415 174.213 288.741 174.799 289.086C175.385 289.424 175.831 289.841 176.137 290.336C176.443 290.824 176.596 291.446 176.596 292.201ZM194.35 288.871C194.35 289.49 194.278 290.095 194.135 290.688C193.998 291.273 193.786 291.804 193.5 292.279C193.214 292.748 192.855 293.122 192.426 293.402C192.003 293.682 191.501 293.822 190.922 293.822C190.316 293.822 189.835 293.646 189.477 293.295C189.118 292.943 188.904 292.527 188.832 292.045H188.744C188.497 292.559 188.132 292.986 187.65 293.324C187.175 293.656 186.589 293.822 185.893 293.822C184.877 293.822 184.092 293.487 183.539 292.816C182.992 292.139 182.719 291.241 182.719 290.121C182.719 289.249 182.891 288.477 183.236 287.807C183.588 287.13 184.079 286.599 184.711 286.215C185.349 285.824 186.101 285.629 186.967 285.629C187.546 285.629 188.109 285.678 188.656 285.775C189.203 285.873 189.639 285.98 189.965 286.098L189.77 290.033C189.763 290.274 189.757 290.46 189.75 290.59C189.743 290.714 189.74 290.811 189.74 290.883C189.74 291.586 189.864 292.061 190.111 292.309C190.365 292.549 190.671 292.67 191.029 292.67C191.465 292.67 191.83 292.501 192.123 292.162C192.423 291.817 192.65 291.358 192.807 290.785C192.963 290.206 193.041 289.564 193.041 288.861C193.041 287.618 192.79 286.557 192.289 285.678C191.788 284.799 191.094 284.128 190.209 283.666C189.33 283.204 188.318 282.973 187.172 282.973C186.033 282.973 185.02 283.152 184.135 283.51C183.256 283.868 182.51 284.376 181.898 285.033C181.293 285.684 180.834 286.459 180.521 287.357C180.209 288.256 180.053 289.249 180.053 290.336C180.053 291.664 180.287 292.794 180.756 293.725C181.231 294.656 181.924 295.365 182.836 295.854C183.754 296.335 184.87 296.576 186.186 296.576C186.98 296.576 187.745 296.488 188.48 296.312C189.216 296.137 189.874 295.938 190.453 295.717V296.986C189.88 297.227 189.239 297.423 188.529 297.572C187.82 297.729 187.038 297.807 186.186 297.807C184.617 297.807 183.275 297.51 182.162 296.918C181.049 296.332 180.196 295.486 179.604 294.379C179.011 293.272 178.715 291.944 178.715 290.395C178.715 289.138 178.907 287.982 179.291 286.928C179.682 285.873 180.242 284.958 180.971 284.184C181.706 283.409 182.595 282.81 183.637 282.387C184.685 281.957 185.863 281.742 187.172 281.742C188.572 281.742 189.809 282.032 190.883 282.611C191.964 283.184 192.81 284.005 193.422 285.072C194.04 286.133 194.35 287.4 194.35 288.871ZM184.174 290.16C184.174 291.026 184.346 291.661 184.691 292.064C185.036 292.468 185.515 292.67 186.127 292.67C186.882 292.67 187.436 292.387 187.787 291.82C188.145 291.254 188.35 290.505 188.402 289.574L188.52 287.025C188.331 286.967 188.1 286.918 187.826 286.879C187.559 286.833 187.279 286.811 186.986 286.811C186.316 286.811 185.772 286.97 185.355 287.289C184.945 287.608 184.646 288.021 184.457 288.529C184.268 289.037 184.174 289.581 184.174 290.16ZM197.445 281.723H201.488C203.272 281.723 204.613 281.99 205.512 282.523C206.41 283.057 206.859 283.965 206.859 285.248C206.859 285.801 206.752 286.299 206.537 286.742C206.329 287.178 206.023 287.54 205.619 287.826C205.215 288.113 204.717 288.311 204.125 288.422V288.52C204.75 288.617 205.303 288.796 205.785 289.057C206.267 289.317 206.645 289.682 206.918 290.15C207.191 290.619 207.328 291.215 207.328 291.938C207.328 292.816 207.123 293.559 206.713 294.164C206.309 294.77 205.736 295.229 204.994 295.541C204.252 295.847 203.373 296 202.357 296H197.445V281.723ZM199.105 287.846H201.84C203.083 287.846 203.943 287.641 204.418 287.23C204.9 286.82 205.141 286.221 205.141 285.434C205.141 284.62 204.854 284.034 204.281 283.676C203.715 283.318 202.81 283.139 201.566 283.139H199.105V287.846ZM199.105 289.242V294.584H202.074C203.344 294.584 204.242 294.337 204.77 293.842C205.297 293.34 205.561 292.667 205.561 291.82C205.561 291.28 205.44 290.818 205.199 290.434C204.965 290.049 204.581 289.757 204.047 289.555C203.52 289.346 202.813 289.242 201.928 289.242H199.105ZM210.375 296V281.723H212.035V294.516H218.373V296H210.375ZM233.207 288.842C233.207 289.942 233.067 290.945 232.787 291.85C232.507 292.748 232.09 293.523 231.537 294.174C230.99 294.818 230.31 295.316 229.496 295.668C228.682 296.02 227.738 296.195 226.664 296.195C225.557 296.195 224.59 296.02 223.764 295.668C222.943 295.316 222.26 294.815 221.713 294.164C221.173 293.513 220.766 292.735 220.492 291.83C220.225 290.925 220.092 289.923 220.092 288.822C220.092 287.364 220.333 286.085 220.814 284.984C221.296 283.884 222.025 283.028 223.002 282.416C223.985 281.804 225.215 281.498 226.693 281.498C228.106 281.498 229.294 281.801 230.258 282.406C231.228 283.012 231.96 283.865 232.455 284.965C232.956 286.059 233.207 287.351 233.207 288.842ZM221.84 288.842C221.84 290.053 222.012 291.101 222.357 291.986C222.702 292.872 223.23 293.555 223.939 294.037C224.656 294.519 225.564 294.76 226.664 294.76C227.771 294.76 228.676 294.519 229.379 294.037C230.089 293.555 230.613 292.872 230.951 291.986C231.29 291.101 231.459 290.053 231.459 288.842C231.459 286.999 231.072 285.561 230.297 284.525C229.529 283.484 228.327 282.963 226.693 282.963C225.587 282.963 224.675 283.201 223.959 283.676C223.243 284.151 222.709 284.828 222.357 285.707C222.012 286.579 221.84 287.624 221.84 288.842ZM248.773 288.842C248.773 289.942 248.633 290.945 248.354 291.85C248.074 292.748 247.657 293.523 247.104 294.174C246.557 294.818 245.876 295.316 245.062 295.668C244.249 296.02 243.305 296.195 242.23 296.195C241.124 296.195 240.157 296.02 239.33 295.668C238.51 295.316 237.826 294.815 237.279 294.164C236.739 293.513 236.332 292.735 236.059 291.83C235.792 290.925 235.658 289.923 235.658 288.822C235.658 287.364 235.899 286.085 236.381 284.984C236.863 283.884 237.592 283.028 238.568 282.416C239.551 281.804 240.782 281.498 242.26 281.498C243.673 281.498 244.861 281.801 245.824 282.406C246.794 283.012 247.527 283.865 248.021 284.965C248.523 286.059 248.773 287.351 248.773 288.842ZM237.406 288.842C237.406 290.053 237.579 291.101 237.924 291.986C238.269 292.872 238.796 293.555 239.506 294.037C240.222 294.519 241.13 294.76 242.23 294.76C243.337 294.76 244.242 294.519 244.945 294.037C245.655 293.555 246.179 292.872 246.518 291.986C246.856 291.101 247.025 290.053 247.025 288.842C247.025 286.999 246.638 285.561 245.863 284.525C245.095 283.484 243.894 282.963 242.26 282.963C241.153 282.963 240.242 283.201 239.525 283.676C238.809 284.151 238.275 284.828 237.924 285.707C237.579 286.579 237.406 287.624 237.406 288.842ZM258.236 296L253.441 283.363H253.363C253.389 283.63 253.412 283.956 253.432 284.34C253.451 284.724 253.467 285.144 253.48 285.6C253.493 286.049 253.5 286.508 253.5 286.977V296H251.957V281.723H254.418L258.939 293.598H259.008L263.598 281.723H266.039V296H264.398V286.859C264.398 286.436 264.405 286.013 264.418 285.59C264.431 285.16 264.447 284.757 264.467 284.379C264.486 283.995 264.506 283.663 264.525 283.383H264.447L259.594 296H258.236ZM276.225 296L271.43 283.363H271.352C271.378 283.63 271.4 283.956 271.42 284.34C271.439 284.724 271.456 285.144 271.469 285.6C271.482 286.049 271.488 286.508 271.488 286.977V296H269.945V281.723H272.406L276.928 293.598H276.996L281.586 281.723H284.027V296H282.387V286.859C282.387 286.436 282.393 286.013 282.406 285.59C282.419 285.16 282.436 284.757 282.455 284.379C282.475 283.995 282.494 283.663 282.514 283.383H282.436L277.582 296H276.225ZM295.883 296H287.934V281.723H295.883V283.188H289.594V287.807H295.521V289.252H289.594V294.535H295.883V296ZM310.385 288.725C310.385 290.333 310.092 291.677 309.506 292.758C308.92 293.832 308.07 294.643 306.957 295.189C305.85 295.73 304.506 296 302.924 296H299.047V281.723H303.354C304.805 281.723 306.055 281.99 307.104 282.523C308.152 283.051 308.959 283.835 309.525 284.877C310.098 285.912 310.385 287.195 310.385 288.725ZM308.637 288.783C308.637 287.501 308.422 286.443 307.992 285.609C307.569 284.776 306.944 284.158 306.117 283.754C305.297 283.344 304.291 283.139 303.1 283.139H300.707V294.574H302.729C304.695 294.574 306.169 294.089 307.152 293.119C308.142 292.149 308.637 290.704 308.637 288.783ZM313.559 296V281.723H315.219V296H313.559ZM328.1 296L326.342 291.469H320.619L318.871 296H317.191L322.777 281.664H324.271L329.818 296H328.1ZM325.844 289.994L324.174 285.492C324.135 285.375 324.07 285.183 323.979 284.916C323.894 284.649 323.806 284.372 323.715 284.086C323.624 283.799 323.549 283.568 323.49 283.393C323.425 283.66 323.354 283.926 323.275 284.193C323.204 284.454 323.132 284.698 323.061 284.926C322.989 285.147 322.927 285.336 322.875 285.492L321.176 289.994H325.844ZM331.312 294.984C331.312 294.529 331.423 294.206 331.645 294.018C331.866 293.822 332.136 293.725 332.455 293.725C332.787 293.725 333.067 293.822 333.295 294.018C333.523 294.206 333.637 294.529 333.637 294.984C333.637 295.434 333.523 295.762 333.295 295.971C333.067 296.173 332.787 296.273 332.455 296.273C332.136 296.273 331.866 296.173 331.645 295.971C331.423 295.762 331.312 295.434 331.312 294.984ZM348.393 288.725C348.393 290.333 348.1 291.677 347.514 292.758C346.928 293.832 346.078 294.643 344.965 295.189C343.858 295.73 342.514 296 340.932 296H337.055V281.723H341.361C342.813 281.723 344.063 281.99 345.111 282.523C346.16 283.051 346.967 283.835 347.533 284.877C348.106 285.912 348.393 287.195 348.393 288.725ZM346.645 288.783C346.645 287.501 346.43 286.443 346 285.609C345.577 284.776 344.952 284.158 344.125 283.754C343.305 283.344 342.299 283.139 341.107 283.139H338.715V294.574H340.736C342.702 294.574 344.177 294.089 345.16 293.119C346.15 292.149 346.645 290.704 346.645 288.783ZM361.859 296H359.896L354.75 289.057L353.227 290.424V296H351.566V281.723H353.227V288.842C353.598 288.419 353.979 287.999 354.369 287.582C354.76 287.159 355.147 286.732 355.531 286.303L359.701 281.723H361.645L355.961 287.914L361.859 296Z" fill="black"/>
</svg>
