<svg width="422" height="429" viewBox="0 0 422 429" fill="none" xmlns="http://www.w3.org/2000/svg">
<rect width="422" height="429" fill="#FFDBE5"/>
<path d="M86.5469 182.359C85.974 182.359 85.474 182.323 85.0469 182.25C84.6094 182.188 84.2344 182.099 83.9219 181.984V178.844C84.2552 178.927 84.6146 179 85 179.062C85.3854 179.125 85.7969 179.156 86.2344 179.156C86.8073 179.156 87.3281 179.047 87.7969 178.828C88.2656 178.609 88.6354 178.214 88.9062 177.641C89.1875 177.068 89.3281 176.26 89.3281 175.219V153.156H93.0781V175.094C93.0781 176.792 92.8073 178.172 92.2656 179.234C91.724 180.307 90.9635 181.094 89.9844 181.594C89.0052 182.104 87.8594 182.359 86.5469 182.359ZM119.266 164.547C119.266 166.307 119.042 167.911 118.594 169.359C118.156 170.797 117.495 172.036 116.609 173.078C115.724 174.109 114.615 174.906 113.281 175.469C111.948 176.031 110.385 176.312 108.594 176.312C106.771 176.312 105.188 176.031 103.844 175.469C102.51 174.906 101.401 174.104 100.516 173.062C99.6406 172.021 98.9844 170.776 98.5469 169.328C98.1094 167.88 97.8906 166.276 97.8906 164.516C97.8906 162.161 98.276 160.109 99.0469 158.359C99.8281 156.599 101.01 155.234 102.594 154.266C104.188 153.286 106.198 152.797 108.625 152.797C111 152.797 112.974 153.281 114.547 154.25C116.12 155.219 117.297 156.583 118.078 158.344C118.87 160.094 119.266 162.161 119.266 164.547ZM101.828 164.547C101.828 166.307 102.068 167.833 102.547 169.125C103.026 170.406 103.76 171.396 104.75 172.094C105.75 172.781 107.031 173.125 108.594 173.125C110.167 173.125 111.448 172.781 112.438 172.094C113.427 171.396 114.156 170.406 114.625 169.125C115.094 167.833 115.328 166.307 115.328 164.547C115.328 161.87 114.792 159.776 113.719 158.266C112.656 156.745 110.958 155.984 108.625 155.984C107.062 155.984 105.776 156.328 104.766 157.016C103.766 157.703 103.026 158.688 102.547 159.969C102.068 161.24 101.828 162.766 101.828 164.547ZM143.234 176H138.625L127.438 157.766H127.297C127.339 158.38 127.375 159.031 127.406 159.719C127.448 160.406 127.479 161.115 127.5 161.844C127.531 162.573 127.557 163.312 127.578 164.062V176H124.172V153.156H128.75L139.922 171.266H140.031C140.01 170.734 139.984 170.125 139.953 169.438C139.922 168.75 139.891 168.042 139.859 167.312C139.839 166.573 139.823 165.859 139.812 165.172V153.156H143.234V176ZM163.391 176L161.156 169.656H152.422L150.188 176H146.234L154.734 153.062H158.891L167.375 176H163.391ZM160.188 166.438L158.016 160.188C157.932 159.917 157.812 159.536 157.656 159.047C157.5 158.547 157.344 158.042 157.188 157.531C157.031 157.01 156.901 156.573 156.797 156.219C156.693 156.646 156.562 157.125 156.406 157.656C156.26 158.177 156.115 158.667 155.969 159.125C155.833 159.583 155.729 159.938 155.656 160.188L153.469 166.438H160.188ZM183.578 169.781C183.578 171.135 183.245 172.302 182.578 173.281C181.922 174.26 180.974 175.01 179.734 175.531C178.505 176.052 177.036 176.312 175.328 176.312C174.495 176.312 173.698 176.266 172.938 176.172C172.177 176.078 171.458 175.943 170.781 175.766C170.115 175.578 169.505 175.354 168.953 175.094V171.562C169.88 171.969 170.917 172.339 172.062 172.672C173.208 172.995 174.375 173.156 175.562 173.156C176.531 173.156 177.333 173.031 177.969 172.781C178.615 172.521 179.094 172.156 179.406 171.688C179.719 171.208 179.875 170.651 179.875 170.016C179.875 169.339 179.693 168.766 179.328 168.297C178.964 167.828 178.411 167.401 177.672 167.016C176.943 166.62 176.026 166.198 174.922 165.75C174.172 165.448 173.453 165.104 172.766 164.719C172.089 164.333 171.484 163.88 170.953 163.359C170.422 162.839 170 162.224 169.688 161.516C169.385 160.797 169.234 159.953 169.234 158.984C169.234 157.693 169.542 156.589 170.156 155.672C170.781 154.755 171.656 154.052 172.781 153.562C173.917 153.073 175.24 152.828 176.75 152.828C177.948 152.828 179.073 152.953 180.125 153.203C181.188 153.453 182.229 153.807 183.25 154.266L182.062 157.281C181.125 156.896 180.214 156.589 179.328 156.359C178.453 156.13 177.557 156.016 176.641 156.016C175.849 156.016 175.177 156.135 174.625 156.375C174.073 156.615 173.651 156.953 173.359 157.391C173.078 157.818 172.938 158.328 172.938 158.922C172.938 159.589 173.099 160.151 173.422 160.609C173.755 161.057 174.266 161.469 174.953 161.844C175.651 162.219 176.547 162.635 177.641 163.094C178.901 163.615 179.969 164.161 180.844 164.734C181.729 165.307 182.406 165.995 182.875 166.797C183.344 167.589 183.578 168.583 183.578 169.781ZM196.297 176V153.156H200.047V172.812H209.75V176H196.297ZM227.859 176L225.625 169.656H216.891L214.656 176H210.703L219.203 153.062H223.359L231.844 176H227.859ZM224.656 166.438L222.484 160.188C222.401 159.917 222.281 159.536 222.125 159.047C221.969 158.547 221.812 158.042 221.656 157.531C221.5 157.01 221.37 156.573 221.266 156.219C221.161 156.646 221.031 157.125 220.875 157.656C220.729 158.177 220.583 158.667 220.438 159.125C220.302 159.583 220.198 159.938 220.125 160.188L217.938 166.438H224.656ZM252.797 153.156V167.938C252.797 169.531 252.458 170.958 251.781 172.219C251.115 173.479 250.104 174.479 248.75 175.219C247.396 175.948 245.693 176.312 243.641 176.312C240.714 176.312 238.484 175.547 236.953 174.016C235.432 172.474 234.672 170.427 234.672 167.875V153.156H238.422V167.547C238.422 169.453 238.87 170.859 239.766 171.766C240.661 172.672 242 173.125 243.781 173.125C245.01 173.125 246.01 172.911 246.781 172.484C247.562 172.047 248.135 171.411 248.5 170.578C248.875 169.734 249.062 168.719 249.062 167.531V153.156H252.797ZM265.062 153.156C267.031 153.156 268.656 153.396 269.938 153.875C271.229 154.354 272.188 155.083 272.812 156.062C273.448 157.042 273.766 158.286 273.766 159.797C273.766 160.922 273.557 161.88 273.141 162.672C272.724 163.464 272.177 164.12 271.5 164.641C270.823 165.161 270.099 165.578 269.328 165.891L275.812 176H271.578L266.062 166.844H262.391V176H258.641V153.156H265.062ZM264.812 156.281H262.391V163.75H264.984C266.724 163.75 267.984 163.427 268.766 162.781C269.557 162.135 269.953 161.182 269.953 159.922C269.953 158.599 269.531 157.661 268.688 157.109C267.854 156.557 266.562 156.281 264.812 156.281ZM292.266 169.781C292.266 171.135 291.932 172.302 291.266 173.281C290.609 174.26 289.661 175.01 288.422 175.531C287.193 176.052 285.724 176.312 284.016 176.312C283.182 176.312 282.385 176.266 281.625 176.172C280.865 176.078 280.146 175.943 279.469 175.766C278.802 175.578 278.193 175.354 277.641 175.094V171.562C278.568 171.969 279.604 172.339 280.75 172.672C281.896 172.995 283.062 173.156 284.25 173.156C285.219 173.156 286.021 173.031 286.656 172.781C287.302 172.521 287.781 172.156 288.094 171.688C288.406 171.208 288.562 170.651 288.562 170.016C288.562 169.339 288.38 168.766 288.016 168.297C287.651 167.828 287.099 167.401 286.359 167.016C285.63 166.62 284.714 166.198 283.609 165.75C282.859 165.448 282.141 165.104 281.453 164.719C280.776 164.333 280.172 163.88 279.641 163.359C279.109 162.839 278.688 162.224 278.375 161.516C278.073 160.797 277.922 159.953 277.922 158.984C277.922 157.693 278.229 156.589 278.844 155.672C279.469 154.755 280.344 154.052 281.469 153.562C282.604 153.073 283.927 152.828 285.438 152.828C286.635 152.828 287.76 152.953 288.812 153.203C289.875 153.453 290.917 153.807 291.938 154.266L290.75 157.281C289.812 156.896 288.901 156.589 288.016 156.359C287.141 156.13 286.245 156.016 285.328 156.016C284.536 156.016 283.865 156.135 283.312 156.375C282.76 156.615 282.339 156.953 282.047 157.391C281.766 157.818 281.625 158.328 281.625 158.922C281.625 159.589 281.786 160.151 282.109 160.609C282.443 161.057 282.953 161.469 283.641 161.844C284.339 162.219 285.234 162.635 286.328 163.094C287.589 163.615 288.656 164.161 289.531 164.734C290.417 165.307 291.094 165.995 291.562 166.797C292.031 167.589 292.266 168.583 292.266 169.781ZM309.609 176H296.672V153.156H309.609V156.312H300.422V162.516H309.031V165.656H300.422V172.828H309.609V176ZM333.609 176H329L317.812 157.766H317.672C317.714 158.38 317.75 159.031 317.781 159.719C317.823 160.406 317.854 161.115 317.875 161.844C317.906 162.573 317.932 163.312 317.953 164.062V176H314.547V153.156H319.125L330.297 171.266H330.406C330.385 170.734 330.359 170.125 330.328 169.438C330.297 168.75 330.266 168.042 330.234 167.312C330.214 166.573 330.198 165.859 330.188 165.172V153.156H333.609V176ZM74.6445 236H72.6816L67.5352 229.057L66.0117 230.424V236H64.3516V221.723H66.0117V228.842C66.3828 228.419 66.7637 227.999 67.1543 227.582C67.5449 227.159 67.9323 226.732 68.3164 226.303L72.4863 221.723H74.4297L68.7461 227.914L74.6445 236ZM88.9805 228.842C88.9805 229.942 88.8405 230.945 88.5605 231.85C88.2806 232.748 87.8639 233.523 87.3105 234.174C86.7637 234.818 86.0833 235.316 85.2695 235.668C84.4557 236.02 83.5117 236.195 82.4375 236.195C81.3307 236.195 80.3639 236.02 79.5371 235.668C78.7168 235.316 78.0332 234.815 77.4863 234.164C76.946 233.513 76.5391 232.735 76.2656 231.83C75.9987 230.925 75.8652 229.923 75.8652 228.822C75.8652 227.364 76.1061 226.085 76.5879 224.984C77.0697 223.884 77.7988 223.028 78.7754 222.416C79.7585 221.804 80.9889 221.498 82.4668 221.498C83.8796 221.498 85.0677 221.801 86.0312 222.406C87.0013 223.012 87.7337 223.865 88.2285 224.965C88.7298 226.059 88.9805 227.351 88.9805 228.842ZM77.6133 228.842C77.6133 230.053 77.7858 231.101 78.1309 231.986C78.4759 232.872 79.0033 233.555 79.7129 234.037C80.429 234.519 81.3372 234.76 82.4375 234.76C83.5443 234.76 84.4492 234.519 85.1523 234.037C85.862 233.555 86.3861 232.872 86.7246 231.986C87.0632 231.101 87.2324 230.053 87.2324 228.842C87.2324 226.999 86.8451 225.561 86.0703 224.525C85.3021 223.484 84.1009 222.963 82.4668 222.963C81.36 222.963 80.4486 223.201 79.7324 223.676C79.0163 224.151 78.4824 224.828 78.1309 225.707C77.7858 226.579 77.6133 227.624 77.6133 228.842ZM98.4434 236L93.6484 223.363H93.5703C93.5964 223.63 93.6191 223.956 93.6387 224.34C93.6582 224.724 93.6745 225.144 93.6875 225.6C93.7005 226.049 93.707 226.508 93.707 226.977V236H92.1641V221.723H94.625L99.1465 233.598H99.2148L103.805 221.723H106.246V236H104.605V226.859C104.605 226.436 104.612 226.013 104.625 225.59C104.638 225.16 104.654 224.757 104.674 224.379C104.693 223.995 104.713 223.663 104.732 223.383H104.654L99.8008 236H98.4434ZM116.432 236L111.637 223.363H111.559C111.585 223.63 111.607 223.956 111.627 224.34C111.646 224.724 111.663 225.144 111.676 225.6C111.689 226.049 111.695 226.508 111.695 226.977V236H110.152V221.723H112.613L117.135 233.598H117.203L121.793 221.723H124.234V236H122.594V226.859C122.594 226.436 122.6 226.013 122.613 225.59C122.626 225.16 122.643 224.757 122.662 224.379C122.682 223.995 122.701 223.663 122.721 223.383H122.643L117.789 236H116.432ZM138.941 221.723V230.961C138.941 231.97 138.736 232.868 138.326 233.656C137.923 234.444 137.311 235.066 136.49 235.521C135.67 235.971 134.641 236.195 133.404 236.195C131.64 236.195 130.296 235.717 129.371 234.76C128.453 233.803 127.994 232.523 127.994 230.922V221.723H129.664V230.971C129.664 232.182 129.983 233.116 130.621 233.773C131.266 234.431 132.226 234.76 133.502 234.76C134.374 234.76 135.087 234.604 135.641 234.291C136.201 233.972 136.614 233.529 136.881 232.963C137.154 232.39 137.291 231.729 137.291 230.98V221.723H138.941ZM153.893 236H151.979L144.195 224.008H144.117C144.137 224.327 144.16 224.691 144.186 225.102C144.212 225.505 144.231 225.938 144.244 226.4C144.264 226.856 144.273 227.322 144.273 227.797V236H142.73V221.723H144.635L152.389 233.676H152.457C152.444 233.448 152.428 233.126 152.408 232.709C152.389 232.286 152.369 231.833 152.35 231.352C152.337 230.863 152.33 230.411 152.33 229.994V221.723H153.893V236ZM157.789 236V221.723H159.449V236H157.789ZM173.668 236H171.705L166.559 229.057L165.035 230.424V236H163.375V221.723H165.035V228.842C165.406 228.419 165.787 227.999 166.178 227.582C166.568 227.159 166.956 226.732 167.34 226.303L171.51 221.723H173.453L167.77 227.914L173.668 236ZM184.576 236L182.818 231.469H177.096L175.348 236H173.668L179.254 221.664H180.748L186.295 236H184.576ZM182.32 229.994L180.65 225.492C180.611 225.375 180.546 225.183 180.455 224.916C180.37 224.649 180.283 224.372 180.191 224.086C180.1 223.799 180.025 223.568 179.967 223.393C179.902 223.66 179.83 223.926 179.752 224.193C179.68 224.454 179.609 224.698 179.537 224.926C179.465 225.147 179.404 225.336 179.352 225.492L177.652 229.994H182.32ZM192.662 236H190.992V223.188H186.5V221.723H197.135V223.188H192.662V236ZM199.293 236V221.723H200.953V236H199.293ZM217.262 228.842C217.262 229.942 217.122 230.945 216.842 231.85C216.562 232.748 216.145 233.523 215.592 234.174C215.045 234.818 214.365 235.316 213.551 235.668C212.737 236.02 211.793 236.195 210.719 236.195C209.612 236.195 208.645 236.02 207.818 235.668C206.998 235.316 206.314 234.815 205.768 234.164C205.227 233.513 204.82 232.735 204.547 231.83C204.28 230.925 204.146 229.923 204.146 228.822C204.146 227.364 204.387 226.085 204.869 224.984C205.351 223.884 206.08 223.028 207.057 222.416C208.04 221.804 209.27 221.498 210.748 221.498C212.161 221.498 213.349 221.801 214.312 222.406C215.283 223.012 216.015 223.865 216.51 224.965C217.011 226.059 217.262 227.351 217.262 228.842ZM205.895 228.842C205.895 230.053 206.067 231.101 206.412 231.986C206.757 232.872 207.285 233.555 207.994 234.037C208.71 234.519 209.618 234.76 210.719 234.76C211.826 234.76 212.73 234.519 213.434 234.037C214.143 233.555 214.667 232.872 215.006 231.986C215.344 231.101 215.514 230.053 215.514 228.842C215.514 226.999 215.126 225.561 214.352 224.525C213.583 223.484 212.382 222.963 210.748 222.963C209.641 222.963 208.73 223.201 208.014 223.676C207.298 224.151 206.764 224.828 206.412 225.707C206.067 226.579 205.895 227.624 205.895 228.842ZM231.607 236H229.693L221.91 224.008H221.832C221.852 224.327 221.874 224.691 221.9 225.102C221.926 225.505 221.946 225.938 221.959 226.4C221.979 226.856 221.988 227.322 221.988 227.797V236H220.445V221.723H222.35L230.104 233.676H230.172C230.159 233.448 230.143 233.126 230.123 232.709C230.104 232.286 230.084 231.833 230.064 231.352C230.051 230.863 230.045 230.411 230.045 229.994V221.723H231.607V236ZM243.561 232.201C243.561 233.048 243.349 233.77 242.926 234.369C242.509 234.962 241.923 235.414 241.168 235.727C240.413 236.039 239.524 236.195 238.502 236.195C237.962 236.195 237.451 236.169 236.969 236.117C236.487 236.065 236.044 235.99 235.641 235.893C235.237 235.795 234.882 235.674 234.576 235.531V233.939C235.064 234.141 235.66 234.33 236.363 234.506C237.066 234.675 237.802 234.76 238.57 234.76C239.286 234.76 239.892 234.665 240.387 234.477C240.882 234.281 241.256 234.005 241.51 233.646C241.77 233.282 241.9 232.846 241.9 232.338C241.9 231.85 241.793 231.443 241.578 231.117C241.363 230.785 241.005 230.486 240.504 230.219C240.009 229.945 239.332 229.656 238.473 229.35C237.867 229.135 237.333 228.9 236.871 228.646C236.409 228.386 236.021 228.093 235.709 227.768C235.396 227.442 235.159 227.064 234.996 226.635C234.84 226.205 234.762 225.714 234.762 225.16C234.762 224.398 234.954 223.747 235.338 223.207C235.729 222.66 236.266 222.243 236.949 221.957C237.639 221.664 238.43 221.518 239.322 221.518C240.084 221.518 240.787 221.589 241.432 221.732C242.083 221.876 242.678 222.068 243.219 222.309L242.701 223.734C242.187 223.52 241.64 223.34 241.061 223.197C240.488 223.054 239.895 222.982 239.283 222.982C238.671 222.982 238.154 223.074 237.73 223.256C237.314 223.432 236.995 223.682 236.773 224.008C236.552 224.333 236.441 224.721 236.441 225.17C236.441 225.671 236.546 226.088 236.754 226.42C236.969 226.752 237.307 227.048 237.77 227.309C238.238 227.562 238.857 227.829 239.625 228.109C240.465 228.415 241.178 228.741 241.764 229.086C242.35 229.424 242.796 229.841 243.102 230.336C243.408 230.824 243.561 231.446 243.561 232.201ZM256.773 236H254.811L249.664 229.057L248.141 230.424V236H246.48V221.723H248.141V228.842C248.512 228.419 248.893 227.999 249.283 227.582C249.674 227.159 250.061 226.732 250.445 226.303L254.615 221.723H256.559L250.875 227.914L256.773 236ZM271.109 228.842C271.109 229.942 270.969 230.945 270.689 231.85C270.41 232.748 269.993 233.523 269.439 234.174C268.893 234.818 268.212 235.316 267.398 235.668C266.585 236.02 265.641 236.195 264.566 236.195C263.46 236.195 262.493 236.02 261.666 235.668C260.846 235.316 260.162 234.815 259.615 234.164C259.075 233.513 258.668 232.735 258.395 231.83C258.128 230.925 257.994 229.923 257.994 228.822C257.994 227.364 258.235 226.085 258.717 224.984C259.199 223.884 259.928 223.028 260.904 222.416C261.887 221.804 263.118 221.498 264.596 221.498C266.008 221.498 267.197 221.801 268.16 222.406C269.13 223.012 269.863 223.865 270.357 224.965C270.859 226.059 271.109 227.351 271.109 228.842ZM259.742 228.842C259.742 230.053 259.915 231.101 260.26 231.986C260.605 232.872 261.132 233.555 261.842 234.037C262.558 234.519 263.466 234.76 264.566 234.76C265.673 234.76 266.578 234.519 267.281 234.037C267.991 233.555 268.515 232.872 268.854 231.986C269.192 231.101 269.361 230.053 269.361 228.842C269.361 226.999 268.974 225.561 268.199 224.525C267.431 223.484 266.23 222.963 264.596 222.963C263.489 222.963 262.577 223.201 261.861 223.676C261.145 224.151 260.611 224.828 260.26 225.707C259.915 226.579 259.742 227.624 259.742 228.842ZM285.455 236H283.541L275.758 224.008H275.68C275.699 224.327 275.722 224.691 275.748 225.102C275.774 225.505 275.794 225.938 275.807 226.4C275.826 226.856 275.836 227.322 275.836 227.797V236H274.293V221.723H276.197L283.951 233.676H284.02C284.007 233.448 283.99 233.126 283.971 232.709C283.951 232.286 283.932 231.833 283.912 231.352C283.899 230.863 283.893 230.411 283.893 229.994V221.723H285.455V236ZM297.408 232.201C297.408 233.048 297.197 233.77 296.773 234.369C296.357 234.962 295.771 235.414 295.016 235.727C294.26 236.039 293.372 236.195 292.35 236.195C291.809 236.195 291.298 236.169 290.816 236.117C290.335 236.065 289.892 235.99 289.488 235.893C289.085 235.795 288.73 235.674 288.424 235.531V233.939C288.912 234.141 289.508 234.33 290.211 234.506C290.914 234.675 291.65 234.76 292.418 234.76C293.134 234.76 293.74 234.665 294.234 234.477C294.729 234.281 295.104 234.005 295.357 233.646C295.618 233.282 295.748 232.846 295.748 232.338C295.748 231.85 295.641 231.443 295.426 231.117C295.211 230.785 294.853 230.486 294.352 230.219C293.857 229.945 293.18 229.656 292.32 229.35C291.715 229.135 291.181 228.9 290.719 228.646C290.257 228.386 289.869 228.093 289.557 227.768C289.244 227.442 289.007 227.064 288.844 226.635C288.688 226.205 288.609 225.714 288.609 225.16C288.609 224.398 288.801 223.747 289.186 223.207C289.576 222.66 290.113 222.243 290.797 221.957C291.487 221.664 292.278 221.518 293.17 221.518C293.932 221.518 294.635 221.589 295.279 221.732C295.93 221.876 296.526 222.068 297.066 222.309L296.549 223.734C296.035 223.52 295.488 223.34 294.908 223.197C294.335 223.054 293.743 222.982 293.131 222.982C292.519 222.982 292.001 223.074 291.578 223.256C291.161 223.432 290.842 223.682 290.621 224.008C290.4 224.333 290.289 224.721 290.289 225.17C290.289 225.671 290.393 226.088 290.602 226.42C290.816 226.752 291.155 227.048 291.617 227.309C292.086 227.562 292.704 227.829 293.473 228.109C294.312 228.415 295.025 228.741 295.611 229.086C296.197 229.424 296.643 229.841 296.949 230.336C297.255 230.824 297.408 231.446 297.408 232.201ZM311.129 221.723V230.961C311.129 231.97 310.924 232.868 310.514 233.656C310.11 234.444 309.498 235.066 308.678 235.521C307.857 235.971 306.829 236.195 305.592 236.195C303.827 236.195 302.483 235.717 301.559 234.76C300.641 233.803 300.182 232.523 300.182 230.922V221.723H301.852V230.971C301.852 232.182 302.171 233.116 302.809 233.773C303.453 234.431 304.413 234.76 305.689 234.76C306.562 234.76 307.275 234.604 307.828 234.291C308.388 233.972 308.801 233.529 309.068 232.963C309.342 232.39 309.479 231.729 309.479 230.98V221.723H311.129ZM314.918 236V221.723H316.578V234.516H322.916V236H314.918ZM333.316 236H325.367V221.723H333.316V223.188H327.027V227.807H332.955V229.252H327.027V234.535H333.316V236ZM347.643 236H345.729L337.945 224.008H337.867C337.887 224.327 337.91 224.691 337.936 225.102C337.962 225.505 337.981 225.938 337.994 226.4C338.014 226.856 338.023 227.322 338.023 227.797V236H336.48V221.723H338.385L346.139 233.676H346.207C346.194 233.448 346.178 233.126 346.158 232.709C346.139 232.286 346.119 231.833 346.1 231.352C346.087 230.863 346.08 230.411 346.08 229.994V221.723H347.643V236ZM355.924 236H354.254V223.188H349.762V221.723H360.396V223.188H355.924V236ZM62.0957 296H54.1465V281.723H62.0957V283.188H55.8066V287.807H61.7344V289.252H55.8066V294.535H62.0957V296ZM64.1074 291.352V289.906H68.9512V291.352H64.1074ZM77.9844 296L73.1895 283.363H73.1113C73.1374 283.63 73.1602 283.956 73.1797 284.34C73.1992 284.724 73.2155 285.144 73.2285 285.6C73.2415 286.049 73.248 286.508 73.248 286.977V296H71.7051V281.723H74.166L78.6875 293.598H78.7559L83.3457 281.723H85.7871V296H84.1465V286.859C84.1465 286.436 84.153 286.013 84.166 285.59C84.179 285.16 84.1953 284.757 84.2148 284.379C84.2344 283.995 84.2539 283.663 84.2734 283.383H84.1953L79.3418 296H77.9844ZM98.6484 296L96.8906 291.469H91.168L89.4199 296H87.7402L93.3262 281.664H94.8203L100.367 296H98.6484ZM96.3926 289.994L94.7227 285.492C94.6836 285.375 94.6185 285.183 94.5273 284.916C94.4427 284.649 94.3548 284.372 94.2637 284.086C94.1725 283.799 94.0977 283.568 94.0391 283.393C93.974 283.66 93.9023 283.926 93.8242 284.193C93.7526 284.454 93.681 284.698 93.6094 284.926C93.5378 285.147 93.4759 285.336 93.4238 285.492L91.7246 289.994H96.3926ZM102.35 296V281.723H104.01V296H102.35ZM107.936 296V281.723H109.596V294.516H115.934V296H107.936ZM117.896 294.984C117.896 294.529 118.007 294.206 118.229 294.018C118.45 293.822 118.72 293.725 119.039 293.725C119.371 293.725 119.651 293.822 119.879 294.018C120.107 294.206 120.221 294.529 120.221 294.984C120.221 295.434 120.107 295.762 119.879 295.971C119.651 296.173 119.371 296.273 119.039 296.273C118.72 296.273 118.45 296.173 118.229 295.971C118.007 295.762 117.896 295.434 117.896 294.984ZM117.896 286.322C117.896 285.854 118.007 285.525 118.229 285.336C118.45 285.141 118.72 285.043 119.039 285.043C119.371 285.043 119.651 285.141 119.879 285.336C120.107 285.525 120.221 285.854 120.221 286.322C120.221 286.765 120.107 287.087 119.879 287.289C119.651 287.491 119.371 287.592 119.039 287.592C118.72 287.592 118.45 287.491 118.229 287.289C118.007 287.087 117.896 286.765 117.896 286.322ZM126.773 299.76C126.448 299.76 126.161 299.737 125.914 299.691C125.667 299.646 125.455 299.584 125.279 299.506V298.09C125.488 298.155 125.712 298.204 125.953 298.236C126.194 298.275 126.454 298.295 126.734 298.295C127.099 298.295 127.434 298.223 127.74 298.08C128.046 297.937 128.29 297.693 128.473 297.348C128.655 297.003 128.746 296.527 128.746 295.922V281.723H130.416V295.795C130.416 296.687 130.266 297.426 129.967 298.012C129.674 298.598 129.254 299.034 128.707 299.32C128.167 299.613 127.522 299.76 126.773 299.76ZM146.588 288.842C146.588 289.942 146.448 290.945 146.168 291.85C145.888 292.748 145.471 293.523 144.918 294.174C144.371 294.818 143.691 295.316 142.877 295.668C142.063 296.02 141.119 296.195 140.045 296.195C138.938 296.195 137.971 296.02 137.145 295.668C136.324 295.316 135.641 294.815 135.094 294.164C134.553 293.513 134.146 292.735 133.873 291.83C133.606 290.925 133.473 289.923 133.473 288.822C133.473 287.364 133.714 286.085 134.195 284.984C134.677 283.884 135.406 283.028 136.383 282.416C137.366 281.804 138.596 281.498 140.074 281.498C141.487 281.498 142.675 281.801 143.639 282.406C144.609 283.012 145.341 283.865 145.836 284.965C146.337 286.059 146.588 287.351 146.588 288.842ZM135.221 288.842C135.221 290.053 135.393 291.101 135.738 291.986C136.083 292.872 136.611 293.555 137.32 294.037C138.036 294.519 138.945 294.76 140.045 294.76C141.152 294.76 142.057 294.519 142.76 294.037C143.469 293.555 143.993 292.872 144.332 291.986C144.671 291.101 144.84 290.053 144.84 288.842C144.84 286.999 144.452 285.561 143.678 284.525C142.91 283.484 141.708 282.963 140.074 282.963C138.967 282.963 138.056 283.201 137.34 283.676C136.624 284.151 136.09 284.828 135.738 285.707C135.393 286.579 135.221 287.624 135.221 288.842ZM160.934 296H159.02L151.236 284.008H151.158C151.178 284.327 151.201 284.691 151.227 285.102C151.253 285.505 151.272 285.938 151.285 286.4C151.305 286.856 151.314 287.322 151.314 287.797V296H149.771V281.723H151.676L159.43 293.676H159.498C159.485 293.448 159.469 293.126 159.449 292.709C159.43 292.286 159.41 291.833 159.391 291.352C159.378 290.863 159.371 290.411 159.371 289.994V281.723H160.934V296ZM173.785 296L172.027 291.469H166.305L164.557 296H162.877L168.463 281.664H169.957L175.504 296H173.785ZM171.529 289.994L169.859 285.492C169.82 285.375 169.755 285.183 169.664 284.916C169.579 284.649 169.492 284.372 169.4 284.086C169.309 283.799 169.234 283.568 169.176 283.393C169.111 283.66 169.039 283.926 168.961 284.193C168.889 284.454 168.818 284.698 168.746 284.926C168.674 285.147 168.613 285.336 168.561 285.492L166.861 289.994H171.529ZM185.543 292.201C185.543 293.048 185.331 293.77 184.908 294.369C184.492 294.962 183.906 295.414 183.15 295.727C182.395 296.039 181.507 296.195 180.484 296.195C179.944 296.195 179.433 296.169 178.951 296.117C178.469 296.065 178.027 295.99 177.623 295.893C177.219 295.795 176.865 295.674 176.559 295.531V293.939C177.047 294.141 177.643 294.33 178.346 294.506C179.049 294.675 179.785 294.76 180.553 294.76C181.269 294.76 181.874 294.665 182.369 294.477C182.864 294.281 183.238 294.005 183.492 293.646C183.753 293.282 183.883 292.846 183.883 292.338C183.883 291.85 183.775 291.443 183.561 291.117C183.346 290.785 182.988 290.486 182.486 290.219C181.992 289.945 181.314 289.656 180.455 289.35C179.85 289.135 179.316 288.9 178.854 288.646C178.391 288.386 178.004 288.093 177.691 287.768C177.379 287.442 177.141 287.064 176.979 286.635C176.822 286.205 176.744 285.714 176.744 285.16C176.744 284.398 176.936 283.747 177.32 283.207C177.711 282.66 178.248 282.243 178.932 281.957C179.622 281.664 180.413 281.518 181.305 281.518C182.066 281.518 182.77 281.589 183.414 281.732C184.065 281.876 184.661 282.068 185.201 282.309L184.684 283.734C184.169 283.52 183.622 283.34 183.043 283.197C182.47 283.054 181.878 282.982 181.266 282.982C180.654 282.982 180.136 283.074 179.713 283.256C179.296 283.432 178.977 283.682 178.756 284.008C178.535 284.333 178.424 284.721 178.424 285.17C178.424 285.671 178.528 286.088 178.736 286.42C178.951 286.752 179.29 287.048 179.752 287.309C180.221 287.562 180.839 287.829 181.607 288.109C182.447 288.415 183.16 288.741 183.746 289.086C184.332 289.424 184.778 289.841 185.084 290.336C185.39 290.824 185.543 291.446 185.543 292.201ZM203.297 288.871C203.297 289.49 203.225 290.095 203.082 290.688C202.945 291.273 202.734 291.804 202.447 292.279C202.161 292.748 201.803 293.122 201.373 293.402C200.95 293.682 200.449 293.822 199.869 293.822C199.264 293.822 198.782 293.646 198.424 293.295C198.066 292.943 197.851 292.527 197.779 292.045H197.691C197.444 292.559 197.079 292.986 196.598 293.324C196.122 293.656 195.536 293.822 194.84 293.822C193.824 293.822 193.04 293.487 192.486 292.816C191.939 292.139 191.666 291.241 191.666 290.121C191.666 289.249 191.839 288.477 192.184 287.807C192.535 287.13 193.027 286.599 193.658 286.215C194.296 285.824 195.048 285.629 195.914 285.629C196.493 285.629 197.057 285.678 197.604 285.775C198.15 285.873 198.587 285.98 198.912 286.098L198.717 290.033C198.71 290.274 198.704 290.46 198.697 290.59C198.691 290.714 198.688 290.811 198.688 290.883C198.688 291.586 198.811 292.061 199.059 292.309C199.312 292.549 199.618 292.67 199.977 292.67C200.413 292.67 200.777 292.501 201.07 292.162C201.37 291.817 201.598 291.358 201.754 290.785C201.91 290.206 201.988 289.564 201.988 288.861C201.988 287.618 201.738 286.557 201.236 285.678C200.735 284.799 200.042 284.128 199.156 283.666C198.277 283.204 197.265 282.973 196.119 282.973C194.98 282.973 193.967 283.152 193.082 283.51C192.203 283.868 191.458 284.376 190.846 285.033C190.24 285.684 189.781 286.459 189.469 287.357C189.156 288.256 189 289.249 189 290.336C189 291.664 189.234 292.794 189.703 293.725C190.178 294.656 190.872 295.365 191.783 295.854C192.701 296.335 193.818 296.576 195.133 296.576C195.927 296.576 196.692 296.488 197.428 296.312C198.163 296.137 198.821 295.938 199.4 295.717V296.986C198.827 297.227 198.186 297.423 197.477 297.572C196.767 297.729 195.986 297.807 195.133 297.807C193.564 297.807 192.223 297.51 191.109 296.918C189.996 296.332 189.143 295.486 188.551 294.379C187.958 293.272 187.662 291.944 187.662 290.395C187.662 289.138 187.854 287.982 188.238 286.928C188.629 285.873 189.189 284.958 189.918 284.184C190.654 283.409 191.542 282.81 192.584 282.387C193.632 281.957 194.811 281.742 196.119 281.742C197.519 281.742 198.756 282.032 199.83 282.611C200.911 283.184 201.757 284.005 202.369 285.072C202.988 286.133 203.297 287.4 203.297 288.871ZM193.121 290.16C193.121 291.026 193.294 291.661 193.639 292.064C193.984 292.468 194.462 292.67 195.074 292.67C195.829 292.67 196.383 292.387 196.734 291.82C197.092 291.254 197.298 290.505 197.35 289.574L197.467 287.025C197.278 286.967 197.047 286.918 196.773 286.879C196.507 286.833 196.227 286.811 195.934 286.811C195.263 286.811 194.719 286.97 194.303 287.289C193.893 287.608 193.593 288.021 193.404 288.529C193.215 289.037 193.121 289.581 193.121 290.16ZM206.393 281.723H210.436C212.219 281.723 213.561 281.99 214.459 282.523C215.357 283.057 215.807 283.965 215.807 285.248C215.807 285.801 215.699 286.299 215.484 286.742C215.276 287.178 214.97 287.54 214.566 287.826C214.163 288.113 213.665 288.311 213.072 288.422V288.52C213.697 288.617 214.251 288.796 214.732 289.057C215.214 289.317 215.592 289.682 215.865 290.15C216.139 290.619 216.275 291.215 216.275 291.938C216.275 292.816 216.07 293.559 215.66 294.164C215.257 294.77 214.684 295.229 213.941 295.541C213.199 295.847 212.32 296 211.305 296H206.393V281.723ZM208.053 287.846H210.787C212.031 287.846 212.89 287.641 213.365 287.23C213.847 286.82 214.088 286.221 214.088 285.434C214.088 284.62 213.801 284.034 213.229 283.676C212.662 283.318 211.757 283.139 210.514 283.139H208.053V287.846ZM208.053 289.242V294.584H211.021C212.291 294.584 213.189 294.337 213.717 293.842C214.244 293.34 214.508 292.667 214.508 291.82C214.508 291.28 214.387 290.818 214.146 290.434C213.912 290.049 213.528 289.757 212.994 289.555C212.467 289.346 211.76 289.242 210.875 289.242H208.053ZM219.322 296V281.723H220.982V294.516H227.32V296H219.322ZM242.154 288.842C242.154 289.942 242.014 290.945 241.734 291.85C241.454 292.748 241.038 293.523 240.484 294.174C239.938 294.818 239.257 295.316 238.443 295.668C237.63 296.02 236.686 296.195 235.611 296.195C234.505 296.195 233.538 296.02 232.711 295.668C231.891 295.316 231.207 294.815 230.66 294.164C230.12 293.513 229.713 292.735 229.439 291.83C229.173 290.925 229.039 289.923 229.039 288.822C229.039 287.364 229.28 286.085 229.762 284.984C230.243 283.884 230.973 283.028 231.949 282.416C232.932 281.804 234.163 281.498 235.641 281.498C237.053 281.498 238.242 281.801 239.205 282.406C240.175 283.012 240.908 283.865 241.402 284.965C241.904 286.059 242.154 287.351 242.154 288.842ZM230.787 288.842C230.787 290.053 230.96 291.101 231.305 291.986C231.65 292.872 232.177 293.555 232.887 294.037C233.603 294.519 234.511 294.76 235.611 294.76C236.718 294.76 237.623 294.519 238.326 294.037C239.036 293.555 239.56 292.872 239.898 291.986C240.237 291.101 240.406 290.053 240.406 288.842C240.406 286.999 240.019 285.561 239.244 284.525C238.476 283.484 237.275 282.963 235.641 282.963C234.534 282.963 233.622 283.201 232.906 283.676C232.19 284.151 231.656 284.828 231.305 285.707C230.96 286.579 230.787 287.624 230.787 288.842ZM257.721 288.842C257.721 289.942 257.581 290.945 257.301 291.85C257.021 292.748 256.604 293.523 256.051 294.174C255.504 294.818 254.824 295.316 254.01 295.668C253.196 296.02 252.252 296.195 251.178 296.195C250.071 296.195 249.104 296.02 248.277 295.668C247.457 295.316 246.773 294.815 246.227 294.164C245.686 293.513 245.279 292.735 245.006 291.83C244.739 290.925 244.605 289.923 244.605 288.822C244.605 287.364 244.846 286.085 245.328 284.984C245.81 283.884 246.539 283.028 247.516 282.416C248.499 281.804 249.729 281.498 251.207 281.498C252.62 281.498 253.808 281.801 254.771 282.406C255.742 283.012 256.474 283.865 256.969 284.965C257.47 286.059 257.721 287.351 257.721 288.842ZM246.354 288.842C246.354 290.053 246.526 291.101 246.871 291.986C247.216 292.872 247.743 293.555 248.453 294.037C249.169 294.519 250.077 294.76 251.178 294.76C252.285 294.76 253.189 294.519 253.893 294.037C254.602 293.555 255.126 292.872 255.465 291.986C255.803 291.101 255.973 290.053 255.973 288.842C255.973 286.999 255.585 285.561 254.811 284.525C254.042 283.484 252.841 282.963 251.207 282.963C250.1 282.963 249.189 283.201 248.473 283.676C247.757 284.151 247.223 284.828 246.871 285.707C246.526 286.579 246.354 287.624 246.354 288.842ZM267.184 296L262.389 283.363H262.311C262.337 283.63 262.359 283.956 262.379 284.34C262.398 284.724 262.415 285.144 262.428 285.6C262.441 286.049 262.447 286.508 262.447 286.977V296H260.904V281.723H263.365L267.887 293.598H267.955L272.545 281.723H274.986V296H273.346V286.859C273.346 286.436 273.352 286.013 273.365 285.59C273.378 285.16 273.395 284.757 273.414 284.379C273.434 283.995 273.453 283.663 273.473 283.383H273.395L268.541 296H267.184ZM285.172 296L280.377 283.363H280.299C280.325 283.63 280.348 283.956 280.367 284.34C280.387 284.724 280.403 285.144 280.416 285.6C280.429 286.049 280.436 286.508 280.436 286.977V296H278.893V281.723H281.354L285.875 293.598H285.943L290.533 281.723H292.975V296H291.334V286.859C291.334 286.436 291.34 286.013 291.354 285.59C291.367 285.16 291.383 284.757 291.402 284.379C291.422 283.995 291.441 283.663 291.461 283.383H291.383L286.529 296H285.172ZM304.83 296H296.881V281.723H304.83V283.188H298.541V287.807H304.469V289.252H298.541V294.535H304.83V296ZM319.332 288.725C319.332 290.333 319.039 291.677 318.453 292.758C317.867 293.832 317.018 294.643 315.904 295.189C314.798 295.73 313.453 296 311.871 296H307.994V281.723H312.301C313.753 281.723 315.003 281.99 316.051 282.523C317.099 283.051 317.906 283.835 318.473 284.877C319.046 285.912 319.332 287.195 319.332 288.725ZM317.584 288.783C317.584 287.501 317.369 286.443 316.939 285.609C316.516 284.776 315.891 284.158 315.064 283.754C314.244 283.344 313.238 283.139 312.047 283.139H309.654V294.574H311.676C313.642 294.574 315.117 294.089 316.1 293.119C317.089 292.149 317.584 290.704 317.584 288.783ZM322.506 296V281.723H324.166V296H322.506ZM337.047 296L335.289 291.469H329.566L327.818 296H326.139L331.725 281.664H333.219L338.766 296H337.047ZM334.791 289.994L333.121 285.492C333.082 285.375 333.017 285.183 332.926 284.916C332.841 284.649 332.753 284.372 332.662 284.086C332.571 283.799 332.496 283.568 332.438 283.393C332.372 283.66 332.301 283.926 332.223 284.193C332.151 284.454 332.079 284.698 332.008 284.926C331.936 285.147 331.874 285.336 331.822 285.492L330.123 289.994H334.791ZM340.26 294.984C340.26 294.529 340.37 294.206 340.592 294.018C340.813 293.822 341.083 293.725 341.402 293.725C341.734 293.725 342.014 293.822 342.242 294.018C342.47 294.206 342.584 294.529 342.584 294.984C342.584 295.434 342.47 295.762 342.242 295.971C342.014 296.173 341.734 296.273 341.402 296.273C341.083 296.273 340.813 296.173 340.592 295.971C340.37 295.762 340.26 295.434 340.26 294.984ZM357.34 288.725C357.34 290.333 357.047 291.677 356.461 292.758C355.875 293.832 355.025 294.643 353.912 295.189C352.805 295.73 351.461 296 349.879 296H346.002V281.723H350.309C351.76 281.723 353.01 281.99 354.059 282.523C355.107 283.051 355.914 283.835 356.48 284.877C357.053 285.912 357.34 287.195 357.34 288.725ZM355.592 288.783C355.592 287.501 355.377 286.443 354.947 285.609C354.524 284.776 353.899 284.158 353.072 283.754C352.252 283.344 351.246 283.139 350.055 283.139H347.662V294.574H349.684C351.65 294.574 353.124 294.089 354.107 293.119C355.097 292.149 355.592 290.704 355.592 288.783ZM370.807 296H368.844L363.697 289.057L362.174 290.424V296H360.514V281.723H362.174V288.842C362.545 288.419 362.926 287.999 363.316 287.582C363.707 287.159 364.094 286.732 364.479 286.303L368.648 281.723H370.592L364.908 287.914L370.807 296Z" fill="black" fill-opacity="0.8"/>
</svg>
